%TF.GenerationSoftware,KiCad,Pcbnew,10.0.1*%
%TF.CreationDate,2026-06-12T14:07:18-07:00*%
%TF.ProjectId,t1n-smart-lock,74316e2d-736d-4617-9274-2d6c6f636b2e,v1.0*%
%TF.SameCoordinates,Original*%
%TF.FileFunction,Copper,L2,Bot*%
%TF.FilePolarity,Positive*%
%FSLAX46Y46*%
G04 Gerber Fmt 4.6, Leading zero omitted, Abs format (unit mm)*
G04 Created by KiCad (PCBNEW 10.0.1) date 2026-06-12 14:07:18*
%MOMM*%
%LPD*%
G01*
G04 APERTURE LIST*
G04 Aperture macros list*
%AMRoundRect*
0 Rectangle with rounded corners*
0 $1 Rounding radius*
0 $2 $3 $4 $5 $6 $7 $8 $9 X,Y pos of 4 corners*
0 Add a 4 corners polygon primitive as box body*
4,1,4,$2,$3,$4,$5,$6,$7,$8,$9,$2,$3,0*
0 Add four circle primitives for the rounded corners*
1,1,$1+$1,$2,$3*
1,1,$1+$1,$4,$5*
1,1,$1+$1,$6,$7*
1,1,$1+$1,$8,$9*
0 Add four rect primitives between the rounded corners*
20,1,$1+$1,$2,$3,$4,$5,0*
20,1,$1+$1,$4,$5,$6,$7,0*
20,1,$1+$1,$6,$7,$8,$9,0*
20,1,$1+$1,$8,$9,$2,$3,0*%
G04 Aperture macros list end*
%TA.AperFunction,ComponentPad*%
%ADD10C,1.600000*%
%TD*%
%TA.AperFunction,ComponentPad*%
%ADD11RoundRect,0.250000X1.050000X1.050000X-1.050000X1.050000X-1.050000X-1.050000X1.050000X-1.050000X0*%
%TD*%
%TA.AperFunction,ComponentPad*%
%ADD12C,2.600000*%
%TD*%
%TA.AperFunction,ComponentPad*%
%ADD13RoundRect,0.250000X-0.550000X-0.550000X0.550000X-0.550000X0.550000X0.550000X-0.550000X0.550000X0*%
%TD*%
%TA.AperFunction,ComponentPad*%
%ADD14R,1.700000X1.700000*%
%TD*%
%TA.AperFunction,ComponentPad*%
%ADD15C,1.700000*%
%TD*%
%TA.AperFunction,ComponentPad*%
%ADD16R,1.050000X1.500000*%
%TD*%
%TA.AperFunction,ComponentPad*%
%ADD17O,1.050000X1.500000*%
%TD*%
%TA.AperFunction,ComponentPad*%
%ADD18RoundRect,0.250000X0.550000X0.550000X-0.550000X0.550000X-0.550000X-0.550000X0.550000X-0.550000X0*%
%TD*%
G04 APERTURE END LIST*
D10*
%TO.P,R1,1*%
%TO.N,/GPIO1*%
X120021685Y-92250000D03*
%TO.P,R1,2*%
%TO.N,Net-(Q1-B)*%
X130181685Y-92250000D03*
%TD*%
D11*
%TO.P,J3,1,Pin_1_1*%
%TO.N,/WT_YL*%
X166951685Y-71500000D03*
D12*
%TO.P,J3,2,Pin_2_2*%
%TO.N,/WT_RD*%
X161871685Y-71500000D03*
%TO.P,J3,3,Pin_3_3*%
%TO.N,/WT_BK*%
X156791685Y-71500000D03*
%TO.P,J3,4,Pin_4_4*%
%TO.N,/WT_DG*%
X151711685Y-71500000D03*
%TO.P,J3,5,Pin_5_5*%
%TO.N,GND*%
X146631685Y-71500000D03*
%TD*%
D10*
%TO.P,R3,1*%
%TO.N,+3V3*%
X147641685Y-90500000D03*
%TO.P,R3,2*%
%TO.N,/GPIO20*%
X147641685Y-100660000D03*
%TD*%
D13*
%TO.P,U1,1*%
%TO.N,Net-(R2-Pad2)*%
X135331685Y-98730000D03*
D10*
%TO.P,U1,2*%
%TO.N,GND*%
X135331685Y-101270000D03*
%TO.P,U1,3*%
X142951685Y-101270000D03*
%TO.P,U1,4*%
%TO.N,/GPIO20*%
X142951685Y-98730000D03*
%TD*%
%TO.P,R6,1*%
%TO.N,/WT_RD*%
X156691685Y-110020001D03*
%TO.P,R6,2*%
%TO.N,Net-(U3A-+)*%
X146531685Y-110020001D03*
%TD*%
D14*
%TO.P,J1,1,Pin_1_1*%
%TO.N,unconnected-(J1-Pin_1-Pad1)*%
X123243370Y-71000000D03*
D15*
%TO.P,J1,2,Pin_2_2*%
%TO.N,/GPIO1*%
X123243370Y-73540000D03*
%TO.P,J1,3,Pin_3_3*%
%TO.N,/GPIO2*%
X123243370Y-76080000D03*
%TO.P,J1,4,Pin_4_4*%
%TO.N,unconnected-(J1-Pin_4-Pad4)*%
X123243370Y-78620000D03*
%TO.P,J1,5,Pin_5_5*%
%TO.N,unconnected-(J1-Pin_5-Pad5)*%
X123243370Y-81160000D03*
%TO.P,J1,6,Pin_6_6*%
%TO.N,unconnected-(J1-Pin_6-Pad6)*%
X123243370Y-83700000D03*
%TO.P,J1,7,Pin_7_7*%
%TO.N,unconnected-(J1-Pin_7-Pad7)*%
X123243370Y-86240000D03*
%TD*%
D10*
%TO.P,R8,1*%
%TO.N,Net-(U3A--)*%
X121531685Y-110020001D03*
%TO.P,R8,2*%
%TO.N,GND*%
X131691685Y-110020001D03*
%TD*%
D16*
%TO.P,Q1,1,E_1*%
%TO.N,GND*%
X123831685Y-100110000D03*
D17*
%TO.P,Q1,2,B_2*%
%TO.N,Net-(Q1-B)*%
X125101685Y-100110000D03*
%TO.P,Q1,3,C_3*%
%TO.N,/WT_YL*%
X126371685Y-100110000D03*
%TD*%
D10*
%TO.P,R7,1*%
%TO.N,+3V3*%
X156531685Y-116500000D03*
%TO.P,R7,2*%
%TO.N,Net-(U3A--)*%
X146371685Y-116500000D03*
%TD*%
D18*
%TO.P,U3,1*%
%TO.N,/GPIO2*%
X142416685Y-117830001D03*
D10*
%TO.P,U3,2,-_2*%
%TO.N,Net-(U3A--)*%
X142416685Y-115290001D03*
%TO.P,U3,3,+_3*%
%TO.N,Net-(U3A-+)*%
X142416685Y-112750001D03*
%TO.P,U3,4,V-_4*%
%TO.N,GND*%
X142416685Y-110210001D03*
%TO.P,U3,5,+_5*%
%TO.N,unconnected-(U3B-+-Pad5)*%
X134796685Y-110210001D03*
%TO.P,U3,6,-_6*%
%TO.N,unconnected-(U3B---Pad6)*%
X134796685Y-112750001D03*
%TO.P,U3,7*%
%TO.N,unconnected-(U3-Pad7)*%
X134796685Y-115290001D03*
%TO.P,U3,8,V+_8*%
%TO.N,+3V3*%
X134796685Y-117830001D03*
%TD*%
%TO.P,R2,1*%
%TO.N,/WT_BK*%
X134061685Y-92000000D03*
%TO.P,R2,2*%
%TO.N,Net-(R2-Pad2)*%
X144221685Y-92000000D03*
%TD*%
%TO.P,R5,1*%
%TO.N,+3V3*%
X166371685Y-90340000D03*
%TO.P,R5,2*%
%TO.N,/GPIO18*%
X166371685Y-100500000D03*
%TD*%
%TO.P,R9,1*%
%TO.N,+3V3*%
X121531685Y-116520001D03*
%TO.P,R9,2*%
%TO.N,/GPIO2*%
X131691685Y-116520001D03*
%TD*%
D14*
%TO.P,J2,1,Pin_1_1*%
%TO.N,unconnected-(J2-Pin_1-Pad1)*%
X138483370Y-70960000D03*
D15*
%TO.P,J2,2,Pin_2_2*%
%TO.N,GND*%
X138483370Y-73500000D03*
%TO.P,J2,3,Pin_3_3*%
%TO.N,+3V3*%
X138483370Y-76040000D03*
%TO.P,J2,4,Pin_4_4*%
%TO.N,/GPIO18*%
X138483370Y-78580000D03*
%TO.P,J2,5,Pin_5_5*%
%TO.N,/GPIO20*%
X138483370Y-81120000D03*
%TO.P,J2,6,Pin_6_6*%
%TO.N,unconnected-(J2-Pin_6-Pad6)*%
X138483370Y-83660000D03*
%TO.P,J2,7,Pin_7_7*%
%TO.N,unconnected-(J2-Pin_7-Pad7)*%
X138483370Y-86200000D03*
%TD*%
D13*
%TO.P,U2,1*%
%TO.N,Net-(R4-Pad2)*%
X154061685Y-98725000D03*
D10*
%TO.P,U2,2*%
%TO.N,GND*%
X154061685Y-101265000D03*
%TO.P,U2,3*%
X161681685Y-101265000D03*
%TO.P,U2,4*%
%TO.N,/GPIO18*%
X161681685Y-98725000D03*
%TD*%
%TO.P,R4,1*%
%TO.N,/WT_DG*%
X152981685Y-92000000D03*
%TO.P,R4,2*%
%TO.N,Net-(R4-Pad2)*%
X163141685Y-92000000D03*
%TD*%
%TA.AperFunction,Conductor*%
%TO.N,GND*%
G36*
X170316419Y-66061632D02*
G01*
X170346746Y-66064285D01*
X170473780Y-66075399D01*
X170495060Y-66079151D01*
X170612213Y-66110542D01*
X170642394Y-66118629D01*
X170662706Y-66126022D01*
X170800940Y-66190482D01*
X170819658Y-66201289D01*
X170944607Y-66288779D01*
X170961165Y-66302673D01*
X171069011Y-66410519D01*
X171082905Y-66427077D01*
X171170395Y-66552026D01*
X171181202Y-66570744D01*
X171245662Y-66708978D01*
X171253055Y-66729290D01*
X171292532Y-66876621D01*
X171296285Y-66897906D01*
X171299053Y-66929540D01*
X171307152Y-67022120D01*
X171310053Y-67055272D01*
X171310525Y-67066080D01*
X171310525Y-67133853D01*
X171310608Y-67135124D01*
X171371179Y-119994517D01*
X171370707Y-120005466D01*
X171356946Y-120162753D01*
X171353193Y-120184039D01*
X171313716Y-120331370D01*
X171306323Y-120351682D01*
X171241863Y-120489916D01*
X171231056Y-120508634D01*
X171143566Y-120633583D01*
X171129672Y-120650141D01*
X171021826Y-120757987D01*
X171005268Y-120771881D01*
X170880319Y-120859371D01*
X170861601Y-120870178D01*
X170723367Y-120934638D01*
X170703055Y-120942031D01*
X170555724Y-120981508D01*
X170534439Y-120985261D01*
X170377081Y-120999029D01*
X170366273Y-120999501D01*
X119377097Y-120999501D01*
X119366289Y-120999029D01*
X119208930Y-120985261D01*
X119187645Y-120981508D01*
X119040314Y-120942031D01*
X119020002Y-120934638D01*
X118881768Y-120870178D01*
X118863050Y-120859371D01*
X118738101Y-120771881D01*
X118721543Y-120757987D01*
X118613697Y-120650141D01*
X118599803Y-120633583D01*
X118512313Y-120508634D01*
X118501506Y-120489916D01*
X118437046Y-120351682D01*
X118429653Y-120331370D01*
X118390176Y-120184039D01*
X118386423Y-120162753D01*
X118372662Y-120005466D01*
X118372190Y-119994517D01*
X118376289Y-116417649D01*
X120231185Y-116417649D01*
X120231185Y-116622352D01*
X120263207Y-116824535D01*
X120326466Y-117019224D01*
X120381484Y-117127201D01*
X120409208Y-117181613D01*
X120419400Y-117201614D01*
X120539713Y-117367214D01*
X120684471Y-117511972D01*
X120822546Y-117612287D01*
X120850075Y-117632288D01*
X120966292Y-117691504D01*
X121032461Y-117725219D01*
X121032463Y-117725219D01*
X121032466Y-117725221D01*
X121136822Y-117759128D01*
X121227150Y-117788478D01*
X121328242Y-117804489D01*
X121429333Y-117820501D01*
X121429334Y-117820501D01*
X121634036Y-117820501D01*
X121634037Y-117820501D01*
X121836219Y-117788478D01*
X122030904Y-117725221D01*
X122213295Y-117632288D01*
X122360323Y-117525467D01*
X122378898Y-117511972D01*
X122378900Y-117511969D01*
X122378904Y-117511967D01*
X122523651Y-117367220D01*
X122523653Y-117367216D01*
X122523656Y-117367214D01*
X122623352Y-117229992D01*
X122643972Y-117201611D01*
X122736905Y-117019220D01*
X122800162Y-116824535D01*
X122832185Y-116622353D01*
X122832185Y-116417649D01*
X130391185Y-116417649D01*
X130391185Y-116622352D01*
X130423207Y-116824535D01*
X130486466Y-117019224D01*
X130541484Y-117127201D01*
X130569208Y-117181613D01*
X130579400Y-117201614D01*
X130699713Y-117367214D01*
X130844471Y-117511972D01*
X130982546Y-117612287D01*
X131010075Y-117632288D01*
X131126292Y-117691504D01*
X131192461Y-117725219D01*
X131192463Y-117725219D01*
X131192466Y-117725221D01*
X131296822Y-117759128D01*
X131387150Y-117788478D01*
X131488242Y-117804489D01*
X131589333Y-117820501D01*
X131589334Y-117820501D01*
X131794036Y-117820501D01*
X131794037Y-117820501D01*
X131996219Y-117788478D01*
X132190904Y-117725221D01*
X132373295Y-117632288D01*
X132520323Y-117525467D01*
X132538898Y-117511972D01*
X132538900Y-117511969D01*
X132538904Y-117511967D01*
X132683651Y-117367220D01*
X132683653Y-117367216D01*
X132683656Y-117367214D01*
X132783352Y-117229992D01*
X132803972Y-117201611D01*
X132896905Y-117019220D01*
X132960162Y-116824535D01*
X132992185Y-116622353D01*
X132992185Y-116417649D01*
X132960162Y-116215467D01*
X132953663Y-116195466D01*
X132896903Y-116020777D01*
X132863188Y-115954608D01*
X132803972Y-115838391D01*
X132789438Y-115818386D01*
X132683656Y-115672787D01*
X132538898Y-115528029D01*
X132373298Y-115407716D01*
X132373297Y-115407715D01*
X132373295Y-115407714D01*
X132316338Y-115378692D01*
X132190908Y-115314782D01*
X131996219Y-115251523D01*
X131821680Y-115223879D01*
X131794037Y-115219501D01*
X131589333Y-115219501D01*
X131565014Y-115223352D01*
X131387150Y-115251523D01*
X131192461Y-115314782D01*
X131010071Y-115407716D01*
X130844471Y-115528029D01*
X130699713Y-115672787D01*
X130579400Y-115838387D01*
X130486466Y-116020777D01*
X130423207Y-116215466D01*
X130391185Y-116417649D01*
X122832185Y-116417649D01*
X122800162Y-116215467D01*
X122793663Y-116195466D01*
X122736903Y-116020777D01*
X122703188Y-115954608D01*
X122643972Y-115838391D01*
X122629438Y-115818386D01*
X122523656Y-115672787D01*
X122378898Y-115528029D01*
X122213298Y-115407716D01*
X122213297Y-115407715D01*
X122213295Y-115407714D01*
X122156338Y-115378692D01*
X122030908Y-115314782D01*
X121836219Y-115251523D01*
X121661680Y-115223879D01*
X121634037Y-115219501D01*
X121429333Y-115219501D01*
X121405014Y-115223352D01*
X121227150Y-115251523D01*
X121032461Y-115314782D01*
X120850071Y-115407716D01*
X120684471Y-115528029D01*
X120539713Y-115672787D01*
X120419400Y-115838387D01*
X120326466Y-116020777D01*
X120263207Y-116215466D01*
X120231185Y-116417649D01*
X118376289Y-116417649D01*
X118383737Y-109917649D01*
X120231185Y-109917649D01*
X120231185Y-110122352D01*
X120263207Y-110324535D01*
X120326466Y-110519224D01*
X120349054Y-110563554D01*
X120419270Y-110701360D01*
X120419400Y-110701614D01*
X120539713Y-110867214D01*
X120684471Y-111011972D01*
X120804911Y-111099475D01*
X120850075Y-111132288D01*
X120966292Y-111191504D01*
X121032461Y-111225219D01*
X121032463Y-111225219D01*
X121032466Y-111225221D01*
X121136822Y-111259128D01*
X121227150Y-111288478D01*
X121328242Y-111304489D01*
X121429333Y-111320501D01*
X121429334Y-111320501D01*
X121634036Y-111320501D01*
X121634037Y-111320501D01*
X121836219Y-111288478D01*
X122030904Y-111225221D01*
X122213295Y-111132288D01*
X122316626Y-111057214D01*
X122378898Y-111011972D01*
X122378900Y-111011969D01*
X122378904Y-111011967D01*
X122523651Y-110867220D01*
X122523653Y-110867216D01*
X122523656Y-110867214D01*
X122576417Y-110794591D01*
X122643972Y-110701611D01*
X122736905Y-110519220D01*
X122800162Y-110324535D01*
X122832185Y-110122353D01*
X122832185Y-109917683D01*
X130391685Y-109917683D01*
X130391685Y-110122318D01*
X130423694Y-110324418D01*
X130486929Y-110519032D01*
X130579826Y-110701351D01*
X130579832Y-110701360D01*
X130612208Y-110745922D01*
X130612209Y-110745923D01*
X131291685Y-110066447D01*
X131291685Y-110072662D01*
X131318944Y-110174395D01*
X131371605Y-110265607D01*
X131446079Y-110340081D01*
X131537291Y-110392742D01*
X131639024Y-110420001D01*
X131645238Y-110420001D01*
X130965761Y-111099475D01*
X131010335Y-111131860D01*
X131192653Y-111224756D01*
X131387267Y-111287991D01*
X131589368Y-111320001D01*
X131794002Y-111320001D01*
X131996102Y-111287991D01*
X132190716Y-111224756D01*
X132373034Y-111131860D01*
X132417606Y-111099475D01*
X131738132Y-110420001D01*
X131744346Y-110420001D01*
X131846079Y-110392742D01*
X131937291Y-110340081D01*
X132011765Y-110265607D01*
X132064426Y-110174395D01*
X132091685Y-110072662D01*
X132091685Y-110066448D01*
X132771159Y-110745922D01*
X132803544Y-110701350D01*
X132896440Y-110519032D01*
X132959675Y-110324418D01*
X132991685Y-110122318D01*
X132991685Y-110107649D01*
X133496185Y-110107649D01*
X133496185Y-110312353D01*
X133508918Y-110392742D01*
X133528208Y-110514535D01*
X133528207Y-110514535D01*
X133591466Y-110709224D01*
X133655376Y-110834654D01*
X133684270Y-110891360D01*
X133684400Y-110891614D01*
X133804713Y-111057214D01*
X133949471Y-111201972D01*
X134068539Y-111288478D01*
X134115075Y-111322288D01*
X134206525Y-111368884D01*
X134207765Y-111369516D01*
X134258561Y-111417491D01*
X134275356Y-111485312D01*
X134252819Y-111551447D01*
X134207765Y-111590486D01*
X134115071Y-111637716D01*
X133949471Y-111758029D01*
X133804713Y-111902787D01*
X133684400Y-112068387D01*
X133591466Y-112250777D01*
X133528207Y-112445466D01*
X133496185Y-112647649D01*
X133496185Y-112852352D01*
X133528207Y-113054535D01*
X133591466Y-113249224D01*
X133684400Y-113431614D01*
X133804713Y-113597214D01*
X133949471Y-113741972D01*
X134104434Y-113854557D01*
X134115075Y-113862288D01*
X134206525Y-113908884D01*
X134207765Y-113909516D01*
X134258561Y-113957491D01*
X134275356Y-114025312D01*
X134252819Y-114091447D01*
X134207765Y-114130486D01*
X134115071Y-114177716D01*
X133949471Y-114298029D01*
X133804713Y-114442787D01*
X133684400Y-114608387D01*
X133591466Y-114790777D01*
X133528207Y-114985466D01*
X133496185Y-115187649D01*
X133496185Y-115392352D01*
X133528207Y-115594535D01*
X133591466Y-115789224D01*
X133684400Y-115971614D01*
X133804713Y-116137214D01*
X133949471Y-116281972D01*
X134090473Y-116384414D01*
X134115075Y-116402288D01*
X134188553Y-116439727D01*
X134207765Y-116449516D01*
X134258561Y-116497491D01*
X134275356Y-116565312D01*
X134252819Y-116631447D01*
X134207765Y-116670486D01*
X134115071Y-116717716D01*
X133949471Y-116838029D01*
X133804713Y-116982787D01*
X133684400Y-117148387D01*
X133591466Y-117330777D01*
X133528207Y-117525466D01*
X133496185Y-117727649D01*
X133496185Y-117932352D01*
X133528207Y-118134535D01*
X133591466Y-118329224D01*
X133684400Y-118511614D01*
X133804713Y-118677214D01*
X133949471Y-118821972D01*
X134104434Y-118934557D01*
X134115075Y-118942288D01*
X134231292Y-119001504D01*
X134297461Y-119035219D01*
X134297463Y-119035219D01*
X134297466Y-119035221D01*
X134388541Y-119064813D01*
X134492150Y-119098478D01*
X134593242Y-119114489D01*
X134694333Y-119130501D01*
X134694334Y-119130501D01*
X134899036Y-119130501D01*
X134899037Y-119130501D01*
X135101219Y-119098478D01*
X135295904Y-119035221D01*
X135478295Y-118942288D01*
X135607167Y-118848658D01*
X135643898Y-118821972D01*
X135643900Y-118821969D01*
X135643904Y-118821967D01*
X135788651Y-118677220D01*
X135788653Y-118677216D01*
X135788656Y-118677214D01*
X135893577Y-118532800D01*
X135908972Y-118511611D01*
X136001905Y-118329220D01*
X136065162Y-118134535D01*
X136097185Y-117932353D01*
X136097185Y-117727649D01*
X136065162Y-117525467D01*
X136054278Y-117491971D01*
X136013742Y-117367214D01*
X136001905Y-117330782D01*
X136001903Y-117330779D01*
X136001903Y-117330777D01*
X135950550Y-117229992D01*
X135908972Y-117148391D01*
X135893577Y-117127201D01*
X135788656Y-116982787D01*
X135643898Y-116838029D01*
X135478299Y-116717716D01*
X135471691Y-116714349D01*
X135385602Y-116670484D01*
X135334808Y-116622512D01*
X135318013Y-116554691D01*
X135340550Y-116488556D01*
X135385602Y-116449517D01*
X135478295Y-116402288D01*
X135502897Y-116384414D01*
X135643898Y-116281972D01*
X135643900Y-116281969D01*
X135643904Y-116281967D01*
X135788651Y-116137220D01*
X135788653Y-116137216D01*
X135788656Y-116137214D01*
X135873251Y-116020777D01*
X135908972Y-115971611D01*
X136001905Y-115789220D01*
X136065162Y-115594535D01*
X136097185Y-115392353D01*
X136097185Y-115187649D01*
X136065162Y-114985467D01*
X136001905Y-114790782D01*
X136001903Y-114790779D01*
X136001903Y-114790777D01*
X135959632Y-114707816D01*
X135908972Y-114608391D01*
X135901241Y-114597750D01*
X135788656Y-114442787D01*
X135643898Y-114298029D01*
X135478299Y-114177716D01*
X135471691Y-114174349D01*
X135385602Y-114130484D01*
X135334808Y-114082512D01*
X135318013Y-114014691D01*
X135340550Y-113948556D01*
X135385602Y-113909517D01*
X135478295Y-113862288D01*
X135499455Y-113846914D01*
X135643898Y-113741972D01*
X135643900Y-113741969D01*
X135643904Y-113741967D01*
X135788651Y-113597220D01*
X135788653Y-113597216D01*
X135788656Y-113597214D01*
X135872664Y-113481585D01*
X135908972Y-113431611D01*
X136001905Y-113249220D01*
X136065162Y-113054535D01*
X136097185Y-112852353D01*
X136097185Y-112647649D01*
X141116185Y-112647649D01*
X141116185Y-112852352D01*
X141148207Y-113054535D01*
X141211466Y-113249224D01*
X141304400Y-113431614D01*
X141424713Y-113597214D01*
X141569471Y-113741972D01*
X141724434Y-113854557D01*
X141735075Y-113862288D01*
X141826525Y-113908884D01*
X141827765Y-113909516D01*
X141878561Y-113957491D01*
X141895356Y-114025312D01*
X141872819Y-114091447D01*
X141827765Y-114130486D01*
X141735071Y-114177716D01*
X141569471Y-114298029D01*
X141424713Y-114442787D01*
X141304400Y-114608387D01*
X141211466Y-114790777D01*
X141148207Y-114985466D01*
X141116185Y-115187649D01*
X141116185Y-115392352D01*
X141148207Y-115594535D01*
X141211466Y-115789224D01*
X141304400Y-115971614D01*
X141424713Y-116137214D01*
X141424719Y-116137220D01*
X141569466Y-116281967D01*
X141663137Y-116350022D01*
X141705802Y-116405351D01*
X141711781Y-116474964D01*
X141679176Y-116536760D01*
X141629256Y-116568046D01*
X141547351Y-116595187D01*
X141547348Y-116595188D01*
X141398027Y-116687290D01*
X141273974Y-116811343D01*
X141181872Y-116960664D01*
X141181871Y-116960667D01*
X141126686Y-117127204D01*
X141126686Y-117127205D01*
X141126685Y-117127205D01*
X141116185Y-117229984D01*
X141116185Y-118430002D01*
X141116186Y-118430019D01*
X141126685Y-118532797D01*
X141126686Y-118532800D01*
X141174541Y-118677214D01*
X141181871Y-118699335D01*
X141273973Y-118848657D01*
X141398029Y-118972713D01*
X141547351Y-119064815D01*
X141713888Y-119120000D01*
X141816676Y-119130501D01*
X143016693Y-119130500D01*
X143119482Y-119120000D01*
X143286019Y-119064815D01*
X143435341Y-118972713D01*
X143559397Y-118848657D01*
X143651499Y-118699335D01*
X143706684Y-118532798D01*
X143717185Y-118430010D01*
X143717184Y-117229993D01*
X143706684Y-117127204D01*
X143651499Y-116960667D01*
X143559397Y-116811345D01*
X143435341Y-116687289D01*
X143330061Y-116622352D01*
X143286021Y-116595188D01*
X143286020Y-116595187D01*
X143286019Y-116595187D01*
X143204112Y-116568045D01*
X143194055Y-116561082D01*
X143182142Y-116558312D01*
X143165868Y-116541566D01*
X143146669Y-116528273D01*
X143141972Y-116516976D01*
X143133448Y-116508205D01*
X143128811Y-116485320D01*
X143119846Y-116463757D01*
X143122002Y-116451715D01*
X143119573Y-116439727D01*
X143128044Y-116417967D01*
X143131683Y-116397648D01*
X145071185Y-116397648D01*
X145071185Y-116602351D01*
X145103207Y-116804534D01*
X145166466Y-116999223D01*
X145259400Y-117181613D01*
X145379713Y-117347213D01*
X145524471Y-117491971D01*
X145679434Y-117604556D01*
X145690075Y-117612287D01*
X145806292Y-117671503D01*
X145872461Y-117705218D01*
X145872463Y-117705218D01*
X145872466Y-117705220D01*
X145976822Y-117739127D01*
X146067150Y-117768477D01*
X146168242Y-117784488D01*
X146269333Y-117800500D01*
X146269334Y-117800500D01*
X146474036Y-117800500D01*
X146474037Y-117800500D01*
X146676219Y-117768477D01*
X146870904Y-117705220D01*
X147053295Y-117612287D01*
X147146275Y-117544732D01*
X147218898Y-117491971D01*
X147218900Y-117491968D01*
X147218904Y-117491966D01*
X147363651Y-117347219D01*
X147363653Y-117347215D01*
X147363656Y-117347213D01*
X147416417Y-117274590D01*
X147483972Y-117181610D01*
X147576905Y-116999219D01*
X147640162Y-116804534D01*
X147672185Y-116602352D01*
X147672185Y-116397648D01*
X155231185Y-116397648D01*
X155231185Y-116602351D01*
X155263207Y-116804534D01*
X155326466Y-116999223D01*
X155419400Y-117181613D01*
X155539713Y-117347213D01*
X155684471Y-117491971D01*
X155839434Y-117604556D01*
X155850075Y-117612287D01*
X155966292Y-117671503D01*
X156032461Y-117705218D01*
X156032463Y-117705218D01*
X156032466Y-117705220D01*
X156136822Y-117739127D01*
X156227150Y-117768477D01*
X156328242Y-117784488D01*
X156429333Y-117800500D01*
X156429334Y-117800500D01*
X156634036Y-117800500D01*
X156634037Y-117800500D01*
X156836219Y-117768477D01*
X157030904Y-117705220D01*
X157213295Y-117612287D01*
X157306275Y-117544732D01*
X157378898Y-117491971D01*
X157378900Y-117491968D01*
X157378904Y-117491966D01*
X157523651Y-117347219D01*
X157523653Y-117347215D01*
X157523656Y-117347213D01*
X157576417Y-117274590D01*
X157643972Y-117181610D01*
X157736905Y-116999219D01*
X157800162Y-116804534D01*
X157832185Y-116602352D01*
X157832185Y-116397648D01*
X157815524Y-116292456D01*
X157800162Y-116195465D01*
X157770812Y-116105137D01*
X157736905Y-116000781D01*
X157736903Y-116000778D01*
X157736903Y-116000776D01*
X157703188Y-115934607D01*
X157643972Y-115818390D01*
X157622779Y-115789220D01*
X157523656Y-115652786D01*
X157378898Y-115508028D01*
X157213298Y-115387715D01*
X157213297Y-115387714D01*
X157213295Y-115387713D01*
X157156338Y-115358691D01*
X157030908Y-115294781D01*
X156836219Y-115231522D01*
X156661680Y-115203878D01*
X156634037Y-115199500D01*
X156429333Y-115199500D01*
X156405014Y-115203351D01*
X156227150Y-115231522D01*
X156032461Y-115294781D01*
X155850071Y-115387715D01*
X155684471Y-115508028D01*
X155539713Y-115652786D01*
X155419400Y-115818386D01*
X155326466Y-116000776D01*
X155263207Y-116195465D01*
X155231185Y-116397648D01*
X147672185Y-116397648D01*
X147655524Y-116292456D01*
X147640162Y-116195465D01*
X147610812Y-116105137D01*
X147576905Y-116000781D01*
X147576903Y-116000778D01*
X147576903Y-116000776D01*
X147543188Y-115934607D01*
X147483972Y-115818390D01*
X147462779Y-115789220D01*
X147363656Y-115652786D01*
X147218898Y-115508028D01*
X147053298Y-115387715D01*
X147053297Y-115387714D01*
X147053295Y-115387713D01*
X146996338Y-115358691D01*
X146870908Y-115294781D01*
X146676219Y-115231522D01*
X146501680Y-115203878D01*
X146474037Y-115199500D01*
X146269333Y-115199500D01*
X146245014Y-115203351D01*
X146067150Y-115231522D01*
X145872461Y-115294781D01*
X145690071Y-115387715D01*
X145524471Y-115508028D01*
X145379713Y-115652786D01*
X145259400Y-115818386D01*
X145166466Y-116000776D01*
X145103207Y-116195465D01*
X145071185Y-116397648D01*
X143131683Y-116397648D01*
X143132161Y-116394981D01*
X143141109Y-116384414D01*
X143144923Y-116374619D01*
X143170231Y-116350023D01*
X143263904Y-116281967D01*
X143408651Y-116137220D01*
X143408653Y-116137216D01*
X143408656Y-116137214D01*
X143493251Y-116020777D01*
X143528972Y-115971611D01*
X143621905Y-115789220D01*
X143685162Y-115594535D01*
X143717185Y-115392353D01*
X143717185Y-115187649D01*
X143685162Y-114985467D01*
X143621905Y-114790782D01*
X143621903Y-114790779D01*
X143621903Y-114790777D01*
X143579632Y-114707816D01*
X143528972Y-114608391D01*
X143521241Y-114597750D01*
X143408656Y-114442787D01*
X143263898Y-114298029D01*
X143098299Y-114177716D01*
X143091691Y-114174349D01*
X143005602Y-114130484D01*
X143000303Y-114125479D01*
X142993340Y-114123324D01*
X142975247Y-114101816D01*
X142954808Y-114082512D01*
X142953055Y-114075434D01*
X142948363Y-114069856D01*
X142944770Y-114041979D01*
X142938013Y-114014691D01*
X142940364Y-114007789D01*
X142939433Y-114000559D01*
X142951482Y-113975164D01*
X142960550Y-113948556D01*
X142966995Y-113942470D01*
X142969385Y-113937435D01*
X142985426Y-113925069D01*
X142996394Y-113914715D01*
X143000883Y-113911921D01*
X143036619Y-113893713D01*
X165521185Y-113893713D01*
X165521185Y-114106287D01*
X165554439Y-114316243D01*
X165595554Y-114442782D01*
X165620129Y-114518414D01*
X165716636Y-114707820D01*
X165841575Y-114879786D01*
X165991898Y-115030109D01*
X166163864Y-115155048D01*
X166163866Y-115155049D01*
X166163869Y-115155051D01*
X166353273Y-115251557D01*
X166555442Y-115317246D01*
X166765398Y-115350500D01*
X166765399Y-115350500D01*
X166977971Y-115350500D01*
X166977972Y-115350500D01*
X167187928Y-115317246D01*
X167390097Y-115251557D01*
X167579501Y-115155051D01*
X167601474Y-115139086D01*
X167751471Y-115030109D01*
X167751473Y-115030106D01*
X167751477Y-115030104D01*
X167901789Y-114879792D01*
X167901791Y-114879788D01*
X167901794Y-114879786D01*
X168026733Y-114707820D01*
X168026732Y-114707820D01*
X168026736Y-114707816D01*
X168123242Y-114518412D01*
X168188931Y-114316243D01*
X168222185Y-114106287D01*
X168222185Y-113893713D01*
X168188931Y-113683757D01*
X168123242Y-113481588D01*
X168026736Y-113292184D01*
X168026734Y-113292181D01*
X168026733Y-113292179D01*
X167901794Y-113120213D01*
X167751471Y-112969890D01*
X167579505Y-112844951D01*
X167390099Y-112748444D01*
X167390098Y-112748443D01*
X167390097Y-112748443D01*
X167187928Y-112682754D01*
X167187926Y-112682753D01*
X167187925Y-112682753D01*
X167026642Y-112657208D01*
X166977972Y-112649500D01*
X166765398Y-112649500D01*
X166716727Y-112657208D01*
X166555445Y-112682753D01*
X166353270Y-112748444D01*
X166163864Y-112844951D01*
X165991898Y-112969890D01*
X165841575Y-113120213D01*
X165716636Y-113292179D01*
X165620129Y-113481585D01*
X165554438Y-113683760D01*
X165526163Y-113862285D01*
X165521185Y-113893713D01*
X143036619Y-113893713D01*
X143098295Y-113862288D01*
X143263904Y-113741967D01*
X143408651Y-113597220D01*
X143408653Y-113597216D01*
X143408656Y-113597214D01*
X143492664Y-113481585D01*
X143528972Y-113431611D01*
X143621905Y-113249220D01*
X143685162Y-113054535D01*
X143717185Y-112852353D01*
X143717185Y-112647649D01*
X143685162Y-112445467D01*
X143621905Y-112250782D01*
X143621903Y-112250779D01*
X143621903Y-112250777D01*
X143588188Y-112184608D01*
X143528972Y-112068391D01*
X143521241Y-112057750D01*
X143408656Y-111902787D01*
X143263898Y-111758029D01*
X143098296Y-111637714D01*
X143005054Y-111590204D01*
X142954259Y-111542230D01*
X142937464Y-111474408D01*
X142960002Y-111408274D01*
X143005056Y-111369235D01*
X143098031Y-111321862D01*
X143098032Y-111321862D01*
X143142606Y-111289475D01*
X142463132Y-110610001D01*
X142469346Y-110610001D01*
X142571079Y-110582742D01*
X142662291Y-110530081D01*
X142736765Y-110455607D01*
X142789426Y-110364395D01*
X142816685Y-110262662D01*
X142816685Y-110256448D01*
X143496159Y-110935922D01*
X143528544Y-110891350D01*
X143621440Y-110709032D01*
X143684675Y-110514418D01*
X143716685Y-110312318D01*
X143716685Y-110107683D01*
X143688887Y-109932175D01*
X143686586Y-109917649D01*
X145231185Y-109917649D01*
X145231185Y-110122352D01*
X145263207Y-110324535D01*
X145326466Y-110519224D01*
X145349054Y-110563554D01*
X145419270Y-110701360D01*
X145419400Y-110701614D01*
X145539713Y-110867214D01*
X145684471Y-111011972D01*
X145804911Y-111099475D01*
X145850075Y-111132288D01*
X145966292Y-111191504D01*
X146032461Y-111225219D01*
X146032463Y-111225219D01*
X146032466Y-111225221D01*
X146136822Y-111259128D01*
X146227150Y-111288478D01*
X146328242Y-111304489D01*
X146429333Y-111320501D01*
X146429334Y-111320501D01*
X146634036Y-111320501D01*
X146634037Y-111320501D01*
X146836219Y-111288478D01*
X147030904Y-111225221D01*
X147213295Y-111132288D01*
X147316626Y-111057214D01*
X147378898Y-111011972D01*
X147378900Y-111011969D01*
X147378904Y-111011967D01*
X147523651Y-110867220D01*
X147523653Y-110867216D01*
X147523656Y-110867214D01*
X147576417Y-110794591D01*
X147643972Y-110701611D01*
X147736905Y-110519220D01*
X147800162Y-110324535D01*
X147832185Y-110122353D01*
X147832185Y-109917649D01*
X155391185Y-109917649D01*
X155391185Y-110122352D01*
X155423207Y-110324535D01*
X155486466Y-110519224D01*
X155509054Y-110563554D01*
X155579270Y-110701360D01*
X155579400Y-110701614D01*
X155699713Y-110867214D01*
X155844471Y-111011972D01*
X155964911Y-111099475D01*
X156010075Y-111132288D01*
X156126292Y-111191504D01*
X156192461Y-111225219D01*
X156192463Y-111225219D01*
X156192466Y-111225221D01*
X156296822Y-111259128D01*
X156387150Y-111288478D01*
X156488242Y-111304489D01*
X156589333Y-111320501D01*
X156589334Y-111320501D01*
X156794036Y-111320501D01*
X156794037Y-111320501D01*
X156996219Y-111288478D01*
X157190904Y-111225221D01*
X157373295Y-111132288D01*
X157476626Y-111057214D01*
X157538898Y-111011972D01*
X157538900Y-111011969D01*
X157538904Y-111011967D01*
X157683651Y-110867220D01*
X157683653Y-110867216D01*
X157683656Y-110867214D01*
X157736417Y-110794591D01*
X157803972Y-110701611D01*
X157896905Y-110519220D01*
X157960162Y-110324535D01*
X157992185Y-110122353D01*
X157992185Y-109917649D01*
X157975135Y-109810001D01*
X157960162Y-109715466D01*
X157929143Y-109620001D01*
X157896905Y-109520782D01*
X157896903Y-109520779D01*
X157896903Y-109520777D01*
X157816402Y-109362787D01*
X157803972Y-109338391D01*
X157771777Y-109294078D01*
X157683656Y-109172787D01*
X157538898Y-109028029D01*
X157373298Y-108907716D01*
X157373297Y-108907715D01*
X157373295Y-108907714D01*
X157316338Y-108878692D01*
X157190908Y-108814782D01*
X156996219Y-108751523D01*
X156821680Y-108723879D01*
X156794037Y-108719501D01*
X156589333Y-108719501D01*
X156565014Y-108723352D01*
X156387150Y-108751523D01*
X156192461Y-108814782D01*
X156010071Y-108907716D01*
X155844471Y-109028029D01*
X155699713Y-109172787D01*
X155579400Y-109338387D01*
X155486466Y-109520777D01*
X155423207Y-109715466D01*
X155391185Y-109917649D01*
X147832185Y-109917649D01*
X147815135Y-109810001D01*
X147800162Y-109715466D01*
X147769143Y-109620001D01*
X147736905Y-109520782D01*
X147736903Y-109520779D01*
X147736903Y-109520777D01*
X147656402Y-109362787D01*
X147643972Y-109338391D01*
X147611777Y-109294078D01*
X147523656Y-109172787D01*
X147378898Y-109028029D01*
X147213298Y-108907716D01*
X147213297Y-108907715D01*
X147213295Y-108907714D01*
X147156338Y-108878692D01*
X147030908Y-108814782D01*
X146836219Y-108751523D01*
X146661680Y-108723879D01*
X146634037Y-108719501D01*
X146429333Y-108719501D01*
X146405014Y-108723352D01*
X146227150Y-108751523D01*
X146032461Y-108814782D01*
X145850071Y-108907716D01*
X145684471Y-109028029D01*
X145539713Y-109172787D01*
X145419400Y-109338387D01*
X145326466Y-109520777D01*
X145263207Y-109715466D01*
X145231185Y-109917649D01*
X143686586Y-109917649D01*
X143684674Y-109905582D01*
X143621440Y-109710969D01*
X143528544Y-109528651D01*
X143496159Y-109484078D01*
X143496159Y-109484077D01*
X142816685Y-110163552D01*
X142816685Y-110157340D01*
X142789426Y-110055607D01*
X142736765Y-109964395D01*
X142662291Y-109889921D01*
X142571079Y-109837260D01*
X142469346Y-109810001D01*
X142463131Y-109810001D01*
X143142607Y-109130525D01*
X143142606Y-109130524D01*
X143098044Y-109098148D01*
X143098035Y-109098142D01*
X142915716Y-109005245D01*
X142721102Y-108942010D01*
X142519002Y-108910001D01*
X142314368Y-108910001D01*
X142112267Y-108942010D01*
X141917653Y-109005245D01*
X141735329Y-109098144D01*
X141690762Y-109130524D01*
X141690762Y-109130525D01*
X142370239Y-109810001D01*
X142364024Y-109810001D01*
X142262291Y-109837260D01*
X142171079Y-109889921D01*
X142096605Y-109964395D01*
X142043944Y-110055607D01*
X142016685Y-110157340D01*
X142016685Y-110163554D01*
X141337209Y-109484078D01*
X141337208Y-109484078D01*
X141304828Y-109528645D01*
X141211929Y-109710969D01*
X141148694Y-109905583D01*
X141116685Y-110107683D01*
X141116685Y-110312318D01*
X141148694Y-110514418D01*
X141211929Y-110709032D01*
X141304826Y-110891351D01*
X141304832Y-110891360D01*
X141337208Y-110935922D01*
X141337209Y-110935923D01*
X142016685Y-110256447D01*
X142016685Y-110262662D01*
X142043944Y-110364395D01*
X142096605Y-110455607D01*
X142171079Y-110530081D01*
X142262291Y-110582742D01*
X142364024Y-110610001D01*
X142370238Y-110610001D01*
X141690761Y-111289475D01*
X141735337Y-111321862D01*
X141828313Y-111369235D01*
X141879110Y-111417209D01*
X141895905Y-111485030D01*
X141873368Y-111551165D01*
X141828315Y-111590204D01*
X141735073Y-111637714D01*
X141569471Y-111758029D01*
X141424713Y-111902787D01*
X141304400Y-112068387D01*
X141211466Y-112250777D01*
X141148207Y-112445466D01*
X141116185Y-112647649D01*
X136097185Y-112647649D01*
X136065162Y-112445467D01*
X136001905Y-112250782D01*
X136001903Y-112250779D01*
X136001903Y-112250777D01*
X135968188Y-112184608D01*
X135908972Y-112068391D01*
X135901241Y-112057750D01*
X135788656Y-111902787D01*
X135643898Y-111758029D01*
X135478299Y-111637716D01*
X135471691Y-111634349D01*
X135385602Y-111590484D01*
X135334808Y-111542512D01*
X135318013Y-111474691D01*
X135340550Y-111408556D01*
X135385602Y-111369517D01*
X135478295Y-111322288D01*
X135525501Y-111287991D01*
X135643898Y-111201972D01*
X135643900Y-111201969D01*
X135643904Y-111201967D01*
X135788651Y-111057220D01*
X135788653Y-111057216D01*
X135788656Y-111057214D01*
X135855990Y-110964535D01*
X135908972Y-110891611D01*
X136001905Y-110709220D01*
X136065162Y-110514535D01*
X136097185Y-110312353D01*
X136097185Y-110107649D01*
X136074962Y-109967340D01*
X136065162Y-109905466D01*
X136003427Y-109715466D01*
X136001905Y-109710782D01*
X136001903Y-109710779D01*
X136001903Y-109710777D01*
X135968188Y-109644608D01*
X135908972Y-109528391D01*
X135876777Y-109484078D01*
X135788656Y-109362787D01*
X135643898Y-109218029D01*
X135478298Y-109097716D01*
X135478297Y-109097715D01*
X135478295Y-109097714D01*
X135421338Y-109068692D01*
X135295908Y-109004782D01*
X135101219Y-108941523D01*
X134926680Y-108913879D01*
X134899037Y-108909501D01*
X134694333Y-108909501D01*
X134670014Y-108913352D01*
X134492150Y-108941523D01*
X134297461Y-109004782D01*
X134115071Y-109097716D01*
X133949471Y-109218029D01*
X133804713Y-109362787D01*
X133684400Y-109528387D01*
X133591466Y-109710777D01*
X133528207Y-109905466D01*
X133501726Y-110072662D01*
X133496185Y-110107649D01*
X132991685Y-110107649D01*
X132991685Y-109917683D01*
X132959675Y-109715583D01*
X132896440Y-109520969D01*
X132803544Y-109338651D01*
X132771159Y-109294078D01*
X132771159Y-109294077D01*
X132091685Y-109973552D01*
X132091685Y-109967340D01*
X132064426Y-109865607D01*
X132011765Y-109774395D01*
X131937291Y-109699921D01*
X131846079Y-109647260D01*
X131744346Y-109620001D01*
X131738131Y-109620001D01*
X132417607Y-108940525D01*
X132417606Y-108940524D01*
X132373044Y-108908148D01*
X132373035Y-108908142D01*
X132190716Y-108815245D01*
X131996102Y-108752010D01*
X131794002Y-108720001D01*
X131589368Y-108720001D01*
X131387267Y-108752010D01*
X131192653Y-108815245D01*
X131010329Y-108908144D01*
X130965762Y-108940524D01*
X130965762Y-108940525D01*
X131645239Y-109620001D01*
X131639024Y-109620001D01*
X131537291Y-109647260D01*
X131446079Y-109699921D01*
X131371605Y-109774395D01*
X131318944Y-109865607D01*
X131291685Y-109967340D01*
X131291685Y-109973554D01*
X130612209Y-109294078D01*
X130612208Y-109294078D01*
X130579828Y-109338645D01*
X130486929Y-109520969D01*
X130423694Y-109715583D01*
X130391685Y-109917683D01*
X122832185Y-109917683D01*
X122832185Y-109917649D01*
X122815135Y-109810001D01*
X122800162Y-109715466D01*
X122769143Y-109620001D01*
X122736905Y-109520782D01*
X122736903Y-109520779D01*
X122736903Y-109520777D01*
X122656402Y-109362787D01*
X122643972Y-109338391D01*
X122611777Y-109294078D01*
X122523656Y-109172787D01*
X122378898Y-109028029D01*
X122213298Y-108907716D01*
X122213297Y-108907715D01*
X122213295Y-108907714D01*
X122156338Y-108878692D01*
X122030908Y-108814782D01*
X121836219Y-108751523D01*
X121661680Y-108723879D01*
X121634037Y-108719501D01*
X121429333Y-108719501D01*
X121405014Y-108723352D01*
X121227150Y-108751523D01*
X121032461Y-108814782D01*
X120850071Y-108907716D01*
X120684471Y-109028029D01*
X120539713Y-109172787D01*
X120419400Y-109338387D01*
X120326466Y-109520777D01*
X120263207Y-109715466D01*
X120231185Y-109917649D01*
X118383737Y-109917649D01*
X118395889Y-99312155D01*
X122806685Y-99312155D01*
X122806685Y-99860000D01*
X123551355Y-99860000D01*
X123531610Y-99879745D01*
X123482241Y-99965255D01*
X123456685Y-100060630D01*
X123456685Y-100159370D01*
X123482241Y-100254745D01*
X123531610Y-100340255D01*
X123551355Y-100360000D01*
X122806685Y-100360000D01*
X122806685Y-100907844D01*
X122813086Y-100967372D01*
X122813088Y-100967379D01*
X122863330Y-101102086D01*
X122863334Y-101102093D01*
X122949494Y-101217187D01*
X122949497Y-101217190D01*
X123064591Y-101303350D01*
X123064598Y-101303354D01*
X123199305Y-101353596D01*
X123199312Y-101353598D01*
X123258840Y-101359999D01*
X123258857Y-101360000D01*
X123581685Y-101360000D01*
X123581685Y-100390330D01*
X123601430Y-100410075D01*
X123686940Y-100459444D01*
X123782315Y-100485000D01*
X123881055Y-100485000D01*
X123976430Y-100459444D01*
X124061940Y-100410075D01*
X124076185Y-100395830D01*
X124076185Y-100436002D01*
X124079302Y-100451671D01*
X124081685Y-100475865D01*
X124081685Y-101360000D01*
X124404513Y-101360000D01*
X124404529Y-101359999D01*
X124464057Y-101353598D01*
X124464061Y-101353597D01*
X124598774Y-101303352D01*
X124599581Y-101302748D01*
X124600530Y-101302393D01*
X124606561Y-101299101D01*
X124607034Y-101299967D01*
X124665045Y-101278329D01*
X124721346Y-101287451D01*
X124802558Y-101321091D01*
X124965973Y-101353596D01*
X125000677Y-101360499D01*
X125000681Y-101360500D01*
X125000682Y-101360500D01*
X125202689Y-101360500D01*
X125202690Y-101360499D01*
X125400812Y-101321091D01*
X125587441Y-101243786D01*
X125667795Y-101190094D01*
X125734471Y-101169217D01*
X125801851Y-101187701D01*
X125805550Y-101190078D01*
X125885929Y-101243786D01*
X126072558Y-101321091D01*
X126235973Y-101353596D01*
X126270677Y-101360499D01*
X126270681Y-101360500D01*
X126270682Y-101360500D01*
X126472689Y-101360500D01*
X126472690Y-101360499D01*
X126670812Y-101321091D01*
X126857441Y-101243786D01*
X127025403Y-101131558D01*
X127046355Y-101110606D01*
X127081827Y-101075135D01*
X127168240Y-100988721D01*
X127168243Y-100988718D01*
X127280467Y-100820762D01*
X127280467Y-100820761D01*
X127280471Y-100820756D01*
X127357776Y-100634127D01*
X127397185Y-100436003D01*
X127397185Y-99783997D01*
X127357776Y-99585873D01*
X127280471Y-99399244D01*
X127280469Y-99399241D01*
X127280467Y-99399237D01*
X127168243Y-99231281D01*
X127025403Y-99088441D01*
X126857447Y-98976217D01*
X126857437Y-98976212D01*
X126670812Y-98898909D01*
X126670804Y-98898907D01*
X126472692Y-98859500D01*
X126472688Y-98859500D01*
X126270682Y-98859500D01*
X126270677Y-98859500D01*
X126072565Y-98898907D01*
X126072557Y-98898909D01*
X125885929Y-98976213D01*
X125818591Y-99021207D01*
X125806130Y-99029534D01*
X125805576Y-99029904D01*
X125738898Y-99050782D01*
X125671518Y-99032297D01*
X125667794Y-99029904D01*
X125667240Y-99029534D01*
X125627248Y-99002812D01*
X125587440Y-98976213D01*
X125400812Y-98898909D01*
X125400804Y-98898907D01*
X125202692Y-98859500D01*
X125202688Y-98859500D01*
X125000682Y-98859500D01*
X125000677Y-98859500D01*
X124802565Y-98898907D01*
X124802553Y-98898910D01*
X124721346Y-98932547D01*
X124651876Y-98940016D01*
X124606825Y-98920405D01*
X124606557Y-98920897D01*
X124601059Y-98917894D01*
X124599580Y-98917251D01*
X124598771Y-98916645D01*
X124464064Y-98866403D01*
X124464057Y-98866401D01*
X124404529Y-98860000D01*
X124081685Y-98860000D01*
X124081685Y-99744134D01*
X124080073Y-99764066D01*
X124079727Y-99766187D01*
X124076185Y-99783997D01*
X124076185Y-99787939D01*
X124076185Y-99824170D01*
X124061940Y-99809925D01*
X123976430Y-99760556D01*
X123881055Y-99735000D01*
X123782315Y-99735000D01*
X123686940Y-99760556D01*
X123601430Y-99809925D01*
X123581685Y-99829670D01*
X123581685Y-98860000D01*
X123258840Y-98860000D01*
X123199312Y-98866401D01*
X123199305Y-98866403D01*
X123064598Y-98916645D01*
X123064591Y-98916649D01*
X122949497Y-99002809D01*
X122949494Y-99002812D01*
X122863334Y-99117906D01*
X122863330Y-99117913D01*
X122813088Y-99252620D01*
X122813086Y-99252627D01*
X122806685Y-99312155D01*
X118395889Y-99312155D01*
X118397244Y-98129983D01*
X134031185Y-98129983D01*
X134031185Y-99330001D01*
X134031186Y-99330018D01*
X134041685Y-99432796D01*
X134041686Y-99432799D01*
X134066615Y-99508028D01*
X134096871Y-99599334D01*
X134188973Y-99748656D01*
X134313029Y-99872712D01*
X134462351Y-99964814D01*
X134544837Y-99992147D01*
X134602282Y-100031920D01*
X134629105Y-100096436D01*
X134616790Y-100165212D01*
X134606828Y-100176975D01*
X134605762Y-100190524D01*
X135285239Y-100870000D01*
X135279024Y-100870000D01*
X135177291Y-100897259D01*
X135086079Y-100949920D01*
X135011605Y-101024394D01*
X134958944Y-101115606D01*
X134931685Y-101217339D01*
X134931685Y-101223553D01*
X134252209Y-100544077D01*
X134252208Y-100544077D01*
X134219828Y-100588644D01*
X134126929Y-100770968D01*
X134063694Y-100965582D01*
X134031685Y-101167682D01*
X134031685Y-101372317D01*
X134063694Y-101574417D01*
X134126929Y-101769031D01*
X134219826Y-101951350D01*
X134219832Y-101951359D01*
X134252208Y-101995921D01*
X134252209Y-101995922D01*
X134931685Y-101316446D01*
X134931685Y-101322661D01*
X134958944Y-101424394D01*
X135011605Y-101515606D01*
X135086079Y-101590080D01*
X135177291Y-101642741D01*
X135279024Y-101670000D01*
X135285238Y-101670000D01*
X134605761Y-102349474D01*
X134650335Y-102381859D01*
X134832653Y-102474755D01*
X135027267Y-102537990D01*
X135229368Y-102570000D01*
X135434002Y-102570000D01*
X135636102Y-102537990D01*
X135830716Y-102474755D01*
X136013034Y-102381859D01*
X136057606Y-102349474D01*
X135378132Y-101670000D01*
X135384346Y-101670000D01*
X135486079Y-101642741D01*
X135577291Y-101590080D01*
X135651765Y-101515606D01*
X135704426Y-101424394D01*
X135731685Y-101322661D01*
X135731685Y-101316447D01*
X136411159Y-101995921D01*
X136443544Y-101951349D01*
X136536440Y-101769031D01*
X136599675Y-101574417D01*
X136631685Y-101372317D01*
X136631685Y-101167682D01*
X136599675Y-100965582D01*
X136536440Y-100770968D01*
X136443544Y-100588650D01*
X136411159Y-100544077D01*
X136411159Y-100544076D01*
X135731685Y-101223551D01*
X135731685Y-101217339D01*
X135704426Y-101115606D01*
X135651765Y-101024394D01*
X135577291Y-100949920D01*
X135486079Y-100897259D01*
X135384346Y-100870000D01*
X135378131Y-100870000D01*
X136057607Y-100190524D01*
X136056255Y-100173349D01*
X136041984Y-100154842D01*
X136036005Y-100085229D01*
X136068610Y-100023433D01*
X136118530Y-99992148D01*
X136201019Y-99964814D01*
X136350341Y-99872712D01*
X136474397Y-99748656D01*
X136566499Y-99599334D01*
X136621684Y-99432797D01*
X136632185Y-99330009D01*
X136632184Y-98627648D01*
X141651185Y-98627648D01*
X141651185Y-98832351D01*
X141683207Y-99034534D01*
X141746466Y-99229223D01*
X141797820Y-99330009D01*
X141836850Y-99406610D01*
X141839400Y-99411613D01*
X141959713Y-99577213D01*
X142104471Y-99721971D01*
X142270070Y-99842284D01*
X142270072Y-99842285D01*
X142270075Y-99842287D01*
X142353502Y-99884795D01*
X142363315Y-99889795D01*
X142414111Y-99937770D01*
X142430906Y-100005591D01*
X142408369Y-100071725D01*
X142363315Y-100110765D01*
X142270329Y-100158143D01*
X142225762Y-100190523D01*
X142225762Y-100190524D01*
X142905239Y-100870000D01*
X142899024Y-100870000D01*
X142797291Y-100897259D01*
X142706079Y-100949920D01*
X142631605Y-101024394D01*
X142578944Y-101115606D01*
X142551685Y-101217339D01*
X142551685Y-101223553D01*
X141872209Y-100544077D01*
X141872208Y-100544077D01*
X141839828Y-100588644D01*
X141746929Y-100770968D01*
X141683694Y-100965582D01*
X141651685Y-101167682D01*
X141651685Y-101372317D01*
X141683694Y-101574417D01*
X141746929Y-101769031D01*
X141839826Y-101951350D01*
X141839832Y-101951359D01*
X141872208Y-101995921D01*
X141872209Y-101995922D01*
X142551685Y-101316446D01*
X142551685Y-101322661D01*
X142578944Y-101424394D01*
X142631605Y-101515606D01*
X142706079Y-101590080D01*
X142797291Y-101642741D01*
X142899024Y-101670000D01*
X142905238Y-101670000D01*
X142225761Y-102349474D01*
X142270335Y-102381859D01*
X142452653Y-102474755D01*
X142647267Y-102537990D01*
X142849368Y-102570000D01*
X143054002Y-102570000D01*
X143256102Y-102537990D01*
X143450716Y-102474755D01*
X143633034Y-102381859D01*
X143677606Y-102349474D01*
X142998132Y-101670000D01*
X143004346Y-101670000D01*
X143106079Y-101642741D01*
X143197291Y-101590080D01*
X143271765Y-101515606D01*
X143324426Y-101424394D01*
X143351685Y-101322661D01*
X143351685Y-101316447D01*
X144031159Y-101995921D01*
X144063544Y-101951349D01*
X144156440Y-101769031D01*
X144219675Y-101574417D01*
X144251685Y-101372317D01*
X144251685Y-101167682D01*
X144219675Y-100965582D01*
X144156440Y-100770968D01*
X144073949Y-100609071D01*
X144073948Y-100609069D01*
X144063546Y-100588652D01*
X144041019Y-100557648D01*
X146341185Y-100557648D01*
X146341185Y-100762351D01*
X146373207Y-100964534D01*
X146436466Y-101159223D01*
X146490363Y-101264999D01*
X146517195Y-101317661D01*
X146529400Y-101341613D01*
X146649713Y-101507213D01*
X146794471Y-101651971D01*
X146948711Y-101764031D01*
X146960075Y-101772287D01*
X147076292Y-101831503D01*
X147142461Y-101865218D01*
X147142463Y-101865218D01*
X147142466Y-101865220D01*
X147246822Y-101899127D01*
X147337150Y-101928477D01*
X147438242Y-101944488D01*
X147539333Y-101960500D01*
X147539334Y-101960500D01*
X147744036Y-101960500D01*
X147744037Y-101960500D01*
X147946219Y-101928477D01*
X148140904Y-101865220D01*
X148323295Y-101772287D01*
X148416275Y-101704732D01*
X148488898Y-101651971D01*
X148488900Y-101651968D01*
X148488904Y-101651966D01*
X148633651Y-101507219D01*
X148633653Y-101507215D01*
X148633656Y-101507213D01*
X148731662Y-101372317D01*
X148753972Y-101341610D01*
X148846905Y-101159219D01*
X148910162Y-100964534D01*
X148942185Y-100762352D01*
X148942185Y-100557648D01*
X148910162Y-100355466D01*
X148893795Y-100305095D01*
X148858175Y-100195466D01*
X148846905Y-100160781D01*
X148846903Y-100160778D01*
X148846903Y-100160776D01*
X148805862Y-100080229D01*
X148753972Y-99978390D01*
X148724460Y-99937770D01*
X148633656Y-99812786D01*
X148488898Y-99668028D01*
X148323298Y-99547715D01*
X148323297Y-99547714D01*
X148323295Y-99547713D01*
X148245409Y-99508028D01*
X148140908Y-99454781D01*
X147946219Y-99391522D01*
X147771680Y-99363878D01*
X147744037Y-99359500D01*
X147539333Y-99359500D01*
X147515014Y-99363351D01*
X147337150Y-99391522D01*
X147142461Y-99454781D01*
X146960071Y-99547715D01*
X146794471Y-99668028D01*
X146649713Y-99812786D01*
X146529400Y-99978386D01*
X146436466Y-100160776D01*
X146373207Y-100355465D01*
X146341185Y-100557648D01*
X144041019Y-100557648D01*
X144031159Y-100544077D01*
X144031159Y-100544076D01*
X143351685Y-101223551D01*
X143351685Y-101217339D01*
X143324426Y-101115606D01*
X143271765Y-101024394D01*
X143197291Y-100949920D01*
X143106079Y-100897259D01*
X143004346Y-100870000D01*
X142998131Y-100870000D01*
X143677607Y-100190524D01*
X143677606Y-100190523D01*
X143633044Y-100158147D01*
X143633035Y-100158141D01*
X143540054Y-100110765D01*
X143489258Y-100062790D01*
X143472463Y-99994969D01*
X143495000Y-99928835D01*
X143540055Y-99889795D01*
X143549868Y-99884795D01*
X143633295Y-99842287D01*
X143713525Y-99783997D01*
X143798898Y-99721971D01*
X143798900Y-99721968D01*
X143798904Y-99721966D01*
X143943651Y-99577219D01*
X143943653Y-99577215D01*
X143943656Y-99577213D01*
X143996417Y-99504590D01*
X144063972Y-99411610D01*
X144156905Y-99229219D01*
X144220162Y-99034534D01*
X144252185Y-98832352D01*
X144252185Y-98627648D01*
X144220162Y-98425466D01*
X144218537Y-98420466D01*
X144200595Y-98365245D01*
X144156905Y-98230781D01*
X144156902Y-98230777D01*
X144156902Y-98230774D01*
X144130078Y-98178130D01*
X144130077Y-98178129D01*
X144105550Y-98129992D01*
X144102998Y-98124983D01*
X152761185Y-98124983D01*
X152761185Y-99325001D01*
X152761186Y-99325018D01*
X152771685Y-99427796D01*
X152771686Y-99427799D01*
X152798272Y-99508028D01*
X152826871Y-99594334D01*
X152918973Y-99743656D01*
X153043029Y-99867712D01*
X153192351Y-99959814D01*
X153274837Y-99987147D01*
X153332282Y-100026920D01*
X153359105Y-100091436D01*
X153346790Y-100160212D01*
X153336828Y-100171975D01*
X153335762Y-100185524D01*
X154015239Y-100865000D01*
X154009024Y-100865000D01*
X153907291Y-100892259D01*
X153816079Y-100944920D01*
X153741605Y-101019394D01*
X153688944Y-101110606D01*
X153661685Y-101212339D01*
X153661685Y-101218553D01*
X152982209Y-100539077D01*
X152982208Y-100539077D01*
X152949828Y-100583644D01*
X152856929Y-100765968D01*
X152793694Y-100960582D01*
X152761685Y-101162682D01*
X152761685Y-101367317D01*
X152793694Y-101569417D01*
X152856929Y-101764031D01*
X152949826Y-101946350D01*
X152949832Y-101946359D01*
X152982208Y-101990921D01*
X152982209Y-101990922D01*
X153661685Y-101311446D01*
X153661685Y-101317661D01*
X153688944Y-101419394D01*
X153741605Y-101510606D01*
X153816079Y-101585080D01*
X153907291Y-101637741D01*
X154009024Y-101665000D01*
X154015238Y-101665000D01*
X153335761Y-102344474D01*
X153380335Y-102376859D01*
X153562653Y-102469755D01*
X153757267Y-102532990D01*
X153959368Y-102565000D01*
X154164002Y-102565000D01*
X154366102Y-102532990D01*
X154560716Y-102469755D01*
X154743034Y-102376859D01*
X154787606Y-102344474D01*
X154108132Y-101665000D01*
X154114346Y-101665000D01*
X154216079Y-101637741D01*
X154307291Y-101585080D01*
X154381765Y-101510606D01*
X154434426Y-101419394D01*
X154461685Y-101317661D01*
X154461685Y-101311447D01*
X155141159Y-101990921D01*
X155173544Y-101946349D01*
X155266440Y-101764031D01*
X155329675Y-101569417D01*
X155361685Y-101367317D01*
X155361685Y-101162682D01*
X155329675Y-100960582D01*
X155266440Y-100765968D01*
X155173544Y-100583650D01*
X155141159Y-100539077D01*
X155141159Y-100539076D01*
X154461685Y-101218551D01*
X154461685Y-101212339D01*
X154434426Y-101110606D01*
X154381765Y-101019394D01*
X154307291Y-100944920D01*
X154216079Y-100892259D01*
X154114346Y-100865000D01*
X154108131Y-100865000D01*
X154787607Y-100185524D01*
X154786255Y-100168349D01*
X154771984Y-100149842D01*
X154766005Y-100080229D01*
X154798610Y-100018433D01*
X154848530Y-99987148D01*
X154931019Y-99959814D01*
X155080341Y-99867712D01*
X155204397Y-99743656D01*
X155296499Y-99594334D01*
X155351684Y-99427797D01*
X155362185Y-99325009D01*
X155362184Y-98622648D01*
X160381185Y-98622648D01*
X160381185Y-98827351D01*
X160413207Y-99029534D01*
X160476466Y-99224223D01*
X160527820Y-99325009D01*
X160565646Y-99399247D01*
X160569400Y-99406613D01*
X160689713Y-99572213D01*
X160834471Y-99716971D01*
X161000070Y-99837284D01*
X161000072Y-99837285D01*
X161000075Y-99837287D01*
X161093315Y-99884795D01*
X161144111Y-99932770D01*
X161160906Y-100000591D01*
X161138369Y-100066725D01*
X161093315Y-100105765D01*
X161000329Y-100153143D01*
X160955762Y-100185523D01*
X160955762Y-100185524D01*
X161635239Y-100865000D01*
X161629024Y-100865000D01*
X161527291Y-100892259D01*
X161436079Y-100944920D01*
X161361605Y-101019394D01*
X161308944Y-101110606D01*
X161281685Y-101212339D01*
X161281685Y-101218553D01*
X160602209Y-100539077D01*
X160602208Y-100539077D01*
X160569828Y-100583644D01*
X160476929Y-100765968D01*
X160413694Y-100960582D01*
X160381685Y-101162682D01*
X160381685Y-101367317D01*
X160413694Y-101569417D01*
X160476929Y-101764031D01*
X160569826Y-101946350D01*
X160569832Y-101946359D01*
X160602208Y-101990921D01*
X160602209Y-101990922D01*
X161281685Y-101311446D01*
X161281685Y-101317661D01*
X161308944Y-101419394D01*
X161361605Y-101510606D01*
X161436079Y-101585080D01*
X161527291Y-101637741D01*
X161629024Y-101665000D01*
X161635238Y-101665000D01*
X160955761Y-102344474D01*
X161000335Y-102376859D01*
X161182653Y-102469755D01*
X161377267Y-102532990D01*
X161579368Y-102565000D01*
X161784002Y-102565000D01*
X161986102Y-102532990D01*
X162180716Y-102469755D01*
X162363034Y-102376859D01*
X162407607Y-102344474D01*
X161728132Y-101665000D01*
X161734346Y-101665000D01*
X161836079Y-101637741D01*
X161927291Y-101585080D01*
X162001765Y-101510606D01*
X162054426Y-101419394D01*
X162081685Y-101317661D01*
X162081685Y-101311447D01*
X162761159Y-101990921D01*
X162793544Y-101946349D01*
X162886440Y-101764031D01*
X162949675Y-101569417D01*
X162981685Y-101367317D01*
X162981685Y-101162682D01*
X162949675Y-100960582D01*
X162886440Y-100765968D01*
X162793544Y-100583650D01*
X162761159Y-100539077D01*
X162761159Y-100539076D01*
X162081685Y-101218551D01*
X162081685Y-101212339D01*
X162054426Y-101110606D01*
X162001765Y-101019394D01*
X161927291Y-100944920D01*
X161836079Y-100892259D01*
X161734346Y-100865000D01*
X161728131Y-100865000D01*
X162195484Y-100397648D01*
X165071185Y-100397648D01*
X165071185Y-100602351D01*
X165103207Y-100804534D01*
X165166466Y-100999223D01*
X165225767Y-101115606D01*
X165253083Y-101169217D01*
X165259400Y-101181613D01*
X165379713Y-101347213D01*
X165524471Y-101491971D01*
X165652627Y-101585080D01*
X165690075Y-101612287D01*
X165793530Y-101665000D01*
X165872461Y-101705218D01*
X165872463Y-101705218D01*
X165872466Y-101705220D01*
X165976822Y-101739127D01*
X166067150Y-101768477D01*
X166168242Y-101784488D01*
X166269333Y-101800500D01*
X166269334Y-101800500D01*
X166474036Y-101800500D01*
X166474037Y-101800500D01*
X166676219Y-101768477D01*
X166870904Y-101705220D01*
X167053295Y-101612287D01*
X167146275Y-101544732D01*
X167218898Y-101491971D01*
X167218900Y-101491968D01*
X167218904Y-101491966D01*
X167363651Y-101347219D01*
X167363653Y-101347215D01*
X167363656Y-101347213D01*
X167438799Y-101243786D01*
X167483972Y-101181610D01*
X167576905Y-100999219D01*
X167640162Y-100804534D01*
X167672185Y-100602352D01*
X167672185Y-100397648D01*
X167663095Y-100340255D01*
X167640162Y-100195465D01*
X167599956Y-100071725D01*
X167576905Y-100000781D01*
X167576903Y-100000778D01*
X167576903Y-100000776D01*
X167537699Y-99923835D01*
X167483972Y-99818390D01*
X167444504Y-99764066D01*
X167363656Y-99652786D01*
X167218898Y-99508028D01*
X167053298Y-99387715D01*
X167053297Y-99387714D01*
X167053295Y-99387713D01*
X166996338Y-99358691D01*
X166870908Y-99294781D01*
X166676219Y-99231522D01*
X166501680Y-99203878D01*
X166474037Y-99199500D01*
X166269333Y-99199500D01*
X166245014Y-99203351D01*
X166067150Y-99231522D01*
X165872461Y-99294781D01*
X165690071Y-99387715D01*
X165524471Y-99508028D01*
X165379713Y-99652786D01*
X165259400Y-99818386D01*
X165166466Y-100000776D01*
X165103207Y-100195465D01*
X165071185Y-100397648D01*
X162195484Y-100397648D01*
X162288037Y-100305095D01*
X162407607Y-100185524D01*
X162407606Y-100185523D01*
X162363044Y-100153147D01*
X162363035Y-100153141D01*
X162270054Y-100105765D01*
X162219258Y-100057790D01*
X162202463Y-99989969D01*
X162225000Y-99923835D01*
X162270055Y-99884795D01*
X162363295Y-99837287D01*
X162436643Y-99783997D01*
X162528898Y-99716971D01*
X162528900Y-99716968D01*
X162528904Y-99716966D01*
X162673651Y-99572219D01*
X162673653Y-99572215D01*
X162673656Y-99572213D01*
X162758974Y-99454781D01*
X162793972Y-99406610D01*
X162886905Y-99224219D01*
X162950162Y-99029534D01*
X162982185Y-98827352D01*
X162982185Y-98622648D01*
X162950162Y-98420466D01*
X162886905Y-98225781D01*
X162886903Y-98225778D01*
X162886903Y-98225776D01*
X162838092Y-98129981D01*
X162793972Y-98043390D01*
X162778577Y-98022200D01*
X162673656Y-97877786D01*
X162528898Y-97733028D01*
X162363298Y-97612715D01*
X162363297Y-97612714D01*
X162363295Y-97612713D01*
X162303583Y-97582288D01*
X162180908Y-97519781D01*
X161986219Y-97456522D01*
X161811680Y-97428878D01*
X161784037Y-97424500D01*
X161579333Y-97424500D01*
X161555014Y-97428351D01*
X161377150Y-97456522D01*
X161182461Y-97519781D01*
X161000071Y-97612715D01*
X160834471Y-97733028D01*
X160689713Y-97877786D01*
X160569400Y-98043386D01*
X160476466Y-98225776D01*
X160413207Y-98420465D01*
X160381185Y-98622648D01*
X155362184Y-98622648D01*
X155362184Y-98124992D01*
X155351684Y-98022203D01*
X155296499Y-97855666D01*
X155204397Y-97706344D01*
X155080341Y-97582288D01*
X154939127Y-97495187D01*
X154931021Y-97490187D01*
X154931016Y-97490185D01*
X154929547Y-97489698D01*
X154764482Y-97435001D01*
X154764480Y-97435000D01*
X154661695Y-97424500D01*
X153461683Y-97424500D01*
X153461666Y-97424501D01*
X153358888Y-97435000D01*
X153358885Y-97435001D01*
X153192353Y-97490185D01*
X153192348Y-97490187D01*
X153043027Y-97582289D01*
X152918974Y-97706342D01*
X152826872Y-97855663D01*
X152826871Y-97855666D01*
X152771686Y-98022203D01*
X152771686Y-98022204D01*
X152771685Y-98022204D01*
X152761185Y-98124983D01*
X144102998Y-98124983D01*
X144063972Y-98048390D01*
X144063970Y-98048387D01*
X144063969Y-98048385D01*
X143943656Y-97882786D01*
X143798898Y-97738028D01*
X143633298Y-97617715D01*
X143633297Y-97617714D01*
X143633295Y-97617713D01*
X143563770Y-97582288D01*
X143450908Y-97524781D01*
X143256219Y-97461522D01*
X143081680Y-97433878D01*
X143054037Y-97429500D01*
X142849333Y-97429500D01*
X142825014Y-97433351D01*
X142647150Y-97461522D01*
X142452461Y-97524781D01*
X142270071Y-97617715D01*
X142104471Y-97738028D01*
X141959713Y-97882786D01*
X141839400Y-98048386D01*
X141746466Y-98230776D01*
X141683207Y-98425465D01*
X141651185Y-98627648D01*
X136632184Y-98627648D01*
X136632184Y-98129992D01*
X136621684Y-98027203D01*
X136566499Y-97860666D01*
X136474397Y-97711344D01*
X136350341Y-97587288D01*
X136240894Y-97519781D01*
X136201021Y-97495187D01*
X136201016Y-97495185D01*
X136185927Y-97490185D01*
X136034482Y-97440001D01*
X136034480Y-97440000D01*
X135931695Y-97429500D01*
X134731683Y-97429500D01*
X134731666Y-97429501D01*
X134628888Y-97440000D01*
X134628885Y-97440001D01*
X134462353Y-97495185D01*
X134462348Y-97495187D01*
X134313027Y-97587289D01*
X134188974Y-97711342D01*
X134096872Y-97860663D01*
X134096870Y-97860668D01*
X134091198Y-97877786D01*
X134041686Y-98027203D01*
X134041686Y-98027204D01*
X134041685Y-98027204D01*
X134031185Y-98129983D01*
X118397244Y-98129983D01*
X118404099Y-92147648D01*
X118721185Y-92147648D01*
X118721185Y-92352351D01*
X118753207Y-92554534D01*
X118816466Y-92749223D01*
X118909400Y-92931613D01*
X119029713Y-93097213D01*
X119174471Y-93241971D01*
X119329434Y-93354556D01*
X119340075Y-93362287D01*
X119456292Y-93421503D01*
X119522461Y-93455218D01*
X119522463Y-93455218D01*
X119522466Y-93455220D01*
X119626822Y-93489127D01*
X119717150Y-93518477D01*
X119818242Y-93534488D01*
X119919333Y-93550500D01*
X119919334Y-93550500D01*
X120124036Y-93550500D01*
X120124037Y-93550500D01*
X120326219Y-93518477D01*
X120520904Y-93455220D01*
X120703295Y-93362287D01*
X120796275Y-93294732D01*
X120868898Y-93241971D01*
X120868900Y-93241968D01*
X120868904Y-93241966D01*
X121013651Y-93097219D01*
X121013653Y-93097215D01*
X121013656Y-93097213D01*
X121066417Y-93024590D01*
X121133972Y-92931610D01*
X121226905Y-92749219D01*
X121290162Y-92554534D01*
X121322185Y-92352352D01*
X121322185Y-92147648D01*
X128881185Y-92147648D01*
X128881185Y-92352351D01*
X128913207Y-92554534D01*
X128976466Y-92749223D01*
X129069400Y-92931613D01*
X129189713Y-93097213D01*
X129334471Y-93241971D01*
X129489434Y-93354556D01*
X129500075Y-93362287D01*
X129616292Y-93421503D01*
X129682461Y-93455218D01*
X129682463Y-93455218D01*
X129682466Y-93455220D01*
X129786822Y-93489127D01*
X129877150Y-93518477D01*
X129978242Y-93534488D01*
X130079333Y-93550500D01*
X130079334Y-93550500D01*
X130284036Y-93550500D01*
X130284037Y-93550500D01*
X130486219Y-93518477D01*
X130680904Y-93455220D01*
X130863295Y-93362287D01*
X130956275Y-93294732D01*
X131028898Y-93241971D01*
X131028900Y-93241968D01*
X131028904Y-93241966D01*
X131173651Y-93097219D01*
X131173653Y-93097215D01*
X131173656Y-93097213D01*
X131226417Y-93024590D01*
X131293972Y-92931610D01*
X131386905Y-92749219D01*
X131450162Y-92554534D01*
X131482185Y-92352352D01*
X131482185Y-92147648D01*
X131450162Y-91945466D01*
X131450161Y-91945462D01*
X131450161Y-91945461D01*
X131445493Y-91931094D01*
X131434626Y-91897648D01*
X132761185Y-91897648D01*
X132761185Y-92102351D01*
X132793207Y-92304534D01*
X132856466Y-92499223D01*
X132949400Y-92681613D01*
X133069713Y-92847213D01*
X133214471Y-92991971D01*
X133369434Y-93104556D01*
X133380075Y-93112287D01*
X133496292Y-93171503D01*
X133562461Y-93205218D01*
X133562463Y-93205218D01*
X133562466Y-93205220D01*
X133666822Y-93239127D01*
X133757150Y-93268477D01*
X133858242Y-93284488D01*
X133959333Y-93300500D01*
X133959334Y-93300500D01*
X134164036Y-93300500D01*
X134164037Y-93300500D01*
X134366219Y-93268477D01*
X134560904Y-93205220D01*
X134743295Y-93112287D01*
X134836275Y-93044732D01*
X134908898Y-92991971D01*
X134908900Y-92991968D01*
X134908904Y-92991966D01*
X135053651Y-92847219D01*
X135053653Y-92847215D01*
X135053656Y-92847213D01*
X135106417Y-92774590D01*
X135173972Y-92681610D01*
X135266905Y-92499219D01*
X135330162Y-92304534D01*
X135362185Y-92102352D01*
X135362185Y-91897648D01*
X142921185Y-91897648D01*
X142921185Y-92102351D01*
X142953207Y-92304534D01*
X143016466Y-92499223D01*
X143109400Y-92681613D01*
X143229713Y-92847213D01*
X143374471Y-92991971D01*
X143529434Y-93104556D01*
X143540075Y-93112287D01*
X143656292Y-93171503D01*
X143722461Y-93205218D01*
X143722463Y-93205218D01*
X143722466Y-93205220D01*
X143826822Y-93239127D01*
X143917150Y-93268477D01*
X144018242Y-93284488D01*
X144119333Y-93300500D01*
X144119334Y-93300500D01*
X144324036Y-93300500D01*
X144324037Y-93300500D01*
X144526219Y-93268477D01*
X144720904Y-93205220D01*
X144903295Y-93112287D01*
X144996275Y-93044732D01*
X145068898Y-92991971D01*
X145068900Y-92991968D01*
X145068904Y-92991966D01*
X145213651Y-92847219D01*
X145213653Y-92847215D01*
X145213656Y-92847213D01*
X145266417Y-92774590D01*
X145333972Y-92681610D01*
X145426905Y-92499219D01*
X145490162Y-92304534D01*
X145522185Y-92102352D01*
X145522185Y-91897648D01*
X151681185Y-91897648D01*
X151681185Y-92102351D01*
X151713207Y-92304534D01*
X151776466Y-92499223D01*
X151869400Y-92681613D01*
X151989713Y-92847213D01*
X152134471Y-92991971D01*
X152289434Y-93104556D01*
X152300075Y-93112287D01*
X152416292Y-93171503D01*
X152482461Y-93205218D01*
X152482463Y-93205218D01*
X152482466Y-93205220D01*
X152586822Y-93239127D01*
X152677150Y-93268477D01*
X152778242Y-93284488D01*
X152879333Y-93300500D01*
X152879334Y-93300500D01*
X153084036Y-93300500D01*
X153084037Y-93300500D01*
X153286219Y-93268477D01*
X153480904Y-93205220D01*
X153663295Y-93112287D01*
X153756275Y-93044732D01*
X153828898Y-92991971D01*
X153828900Y-92991968D01*
X153828904Y-92991966D01*
X153973651Y-92847219D01*
X153973653Y-92847215D01*
X153973656Y-92847213D01*
X154026417Y-92774590D01*
X154093972Y-92681610D01*
X154186905Y-92499219D01*
X154250162Y-92304534D01*
X154282185Y-92102352D01*
X154282185Y-91897648D01*
X161841185Y-91897648D01*
X161841185Y-92102351D01*
X161873207Y-92304534D01*
X161936466Y-92499223D01*
X162029400Y-92681613D01*
X162149713Y-92847213D01*
X162294471Y-92991971D01*
X162449434Y-93104556D01*
X162460075Y-93112287D01*
X162576292Y-93171503D01*
X162642461Y-93205218D01*
X162642463Y-93205218D01*
X162642466Y-93205220D01*
X162746822Y-93239127D01*
X162837150Y-93268477D01*
X162938242Y-93284488D01*
X163039333Y-93300500D01*
X163039334Y-93300500D01*
X163244036Y-93300500D01*
X163244037Y-93300500D01*
X163446219Y-93268477D01*
X163640904Y-93205220D01*
X163823295Y-93112287D01*
X163916275Y-93044732D01*
X163988898Y-92991971D01*
X163988900Y-92991968D01*
X163988904Y-92991966D01*
X164133651Y-92847219D01*
X164133653Y-92847215D01*
X164133656Y-92847213D01*
X164186417Y-92774590D01*
X164253972Y-92681610D01*
X164346905Y-92499219D01*
X164410162Y-92304534D01*
X164442185Y-92102352D01*
X164442185Y-91897648D01*
X164410162Y-91695466D01*
X164392302Y-91640500D01*
X164346903Y-91500776D01*
X164296971Y-91402781D01*
X164253972Y-91318390D01*
X164246241Y-91307749D01*
X164133656Y-91152786D01*
X163988898Y-91008028D01*
X163823298Y-90887715D01*
X163823297Y-90887714D01*
X163823295Y-90887713D01*
X163766338Y-90858691D01*
X163640908Y-90794781D01*
X163446219Y-90731522D01*
X163271680Y-90703878D01*
X163244037Y-90699500D01*
X163039333Y-90699500D01*
X163015014Y-90703351D01*
X162837150Y-90731522D01*
X162642461Y-90794781D01*
X162460071Y-90887715D01*
X162294471Y-91008028D01*
X162149713Y-91152786D01*
X162029400Y-91318386D01*
X161936466Y-91500776D01*
X161873207Y-91695465D01*
X161841185Y-91897648D01*
X154282185Y-91897648D01*
X154250162Y-91695466D01*
X154232302Y-91640500D01*
X154186903Y-91500776D01*
X154136971Y-91402781D01*
X154093972Y-91318390D01*
X154086241Y-91307749D01*
X153973656Y-91152786D01*
X153828898Y-91008028D01*
X153663298Y-90887715D01*
X153663297Y-90887714D01*
X153663295Y-90887713D01*
X153606338Y-90858691D01*
X153480908Y-90794781D01*
X153286219Y-90731522D01*
X153111680Y-90703878D01*
X153084037Y-90699500D01*
X152879333Y-90699500D01*
X152855014Y-90703351D01*
X152677150Y-90731522D01*
X152482461Y-90794781D01*
X152300071Y-90887715D01*
X152134471Y-91008028D01*
X151989713Y-91152786D01*
X151869400Y-91318386D01*
X151776466Y-91500776D01*
X151713207Y-91695465D01*
X151681185Y-91897648D01*
X145522185Y-91897648D01*
X145490162Y-91695466D01*
X145472302Y-91640500D01*
X145426903Y-91500776D01*
X145376971Y-91402781D01*
X145333972Y-91318390D01*
X145326241Y-91307749D01*
X145213656Y-91152786D01*
X145068898Y-91008028D01*
X144903298Y-90887715D01*
X144903297Y-90887714D01*
X144903295Y-90887713D01*
X144846338Y-90858691D01*
X144720908Y-90794781D01*
X144526219Y-90731522D01*
X144351680Y-90703878D01*
X144324037Y-90699500D01*
X144119333Y-90699500D01*
X144095014Y-90703351D01*
X143917150Y-90731522D01*
X143722461Y-90794781D01*
X143540071Y-90887715D01*
X143374471Y-91008028D01*
X143229713Y-91152786D01*
X143109400Y-91318386D01*
X143016466Y-91500776D01*
X142953207Y-91695465D01*
X142921185Y-91897648D01*
X135362185Y-91897648D01*
X135330162Y-91695466D01*
X135312302Y-91640500D01*
X135266903Y-91500776D01*
X135216971Y-91402781D01*
X135173972Y-91318390D01*
X135166241Y-91307749D01*
X135053656Y-91152786D01*
X134908898Y-91008028D01*
X134743298Y-90887715D01*
X134743297Y-90887714D01*
X134743295Y-90887713D01*
X134686338Y-90858691D01*
X134560908Y-90794781D01*
X134366219Y-90731522D01*
X134191680Y-90703878D01*
X134164037Y-90699500D01*
X133959333Y-90699500D01*
X133935014Y-90703351D01*
X133757150Y-90731522D01*
X133562461Y-90794781D01*
X133380071Y-90887715D01*
X133214471Y-91008028D01*
X133069713Y-91152786D01*
X132949400Y-91318386D01*
X132856466Y-91500776D01*
X132793207Y-91695465D01*
X132761185Y-91897648D01*
X131434626Y-91897648D01*
X131386903Y-91750776D01*
X131330714Y-91640500D01*
X131293972Y-91568390D01*
X131238451Y-91491971D01*
X131173656Y-91402786D01*
X131028898Y-91258028D01*
X130863298Y-91137715D01*
X130863297Y-91137714D01*
X130863295Y-91137713D01*
X130806338Y-91108691D01*
X130680908Y-91044781D01*
X130486219Y-90981522D01*
X130311680Y-90953878D01*
X130284037Y-90949500D01*
X130079333Y-90949500D01*
X130055014Y-90953351D01*
X129877150Y-90981522D01*
X129682461Y-91044781D01*
X129500071Y-91137715D01*
X129334471Y-91258028D01*
X129189713Y-91402786D01*
X129069400Y-91568386D01*
X128976466Y-91750776D01*
X128913207Y-91945465D01*
X128881185Y-92147648D01*
X121322185Y-92147648D01*
X121290162Y-91945466D01*
X121290161Y-91945464D01*
X121260812Y-91855137D01*
X121226905Y-91750781D01*
X121226903Y-91750778D01*
X121226903Y-91750776D01*
X121170714Y-91640500D01*
X121133972Y-91568390D01*
X121078451Y-91491971D01*
X121013656Y-91402786D01*
X120868898Y-91258028D01*
X120703298Y-91137715D01*
X120703297Y-91137714D01*
X120703295Y-91137713D01*
X120646338Y-91108691D01*
X120520908Y-91044781D01*
X120326219Y-90981522D01*
X120151680Y-90953878D01*
X120124037Y-90949500D01*
X119919333Y-90949500D01*
X119895014Y-90953351D01*
X119717150Y-90981522D01*
X119522461Y-91044781D01*
X119340071Y-91137715D01*
X119174471Y-91258028D01*
X119029713Y-91402786D01*
X118909400Y-91568386D01*
X118816466Y-91750776D01*
X118753207Y-91945465D01*
X118721185Y-92147648D01*
X118404099Y-92147648D01*
X118406104Y-90397648D01*
X146341185Y-90397648D01*
X146341185Y-90602351D01*
X146373207Y-90804534D01*
X146436466Y-90999223D01*
X146500376Y-91124653D01*
X146514711Y-91152786D01*
X146529400Y-91181613D01*
X146649713Y-91347213D01*
X146794471Y-91491971D01*
X146899655Y-91568390D01*
X146960075Y-91612287D01*
X147076292Y-91671503D01*
X147142461Y-91705218D01*
X147142463Y-91705218D01*
X147142466Y-91705220D01*
X147246822Y-91739127D01*
X147337150Y-91768477D01*
X147438242Y-91784488D01*
X147539333Y-91800500D01*
X147539334Y-91800500D01*
X147744036Y-91800500D01*
X147744037Y-91800500D01*
X147854618Y-91782985D01*
X147934691Y-91770303D01*
X147935877Y-91770115D01*
X147946219Y-91768477D01*
X148140904Y-91705220D01*
X148323295Y-91612287D01*
X148416275Y-91544732D01*
X148488898Y-91491971D01*
X148488900Y-91491968D01*
X148488904Y-91491966D01*
X148633651Y-91347219D01*
X148633653Y-91347215D01*
X148633656Y-91347213D01*
X148698447Y-91258034D01*
X148753972Y-91181610D01*
X148846905Y-90999219D01*
X148910162Y-90804534D01*
X148942185Y-90602352D01*
X148942185Y-90397648D01*
X148916843Y-90237648D01*
X165071185Y-90237648D01*
X165071185Y-90442351D01*
X165103207Y-90644534D01*
X165166466Y-90839223D01*
X165222656Y-90949500D01*
X165247991Y-90999223D01*
X165259400Y-91021613D01*
X165379713Y-91187213D01*
X165524471Y-91331971D01*
X165679434Y-91444556D01*
X165690075Y-91452287D01*
X165785240Y-91500776D01*
X165872461Y-91545218D01*
X165872463Y-91545218D01*
X165872466Y-91545220D01*
X165943764Y-91568386D01*
X166067150Y-91608477D01*
X166168242Y-91624488D01*
X166269333Y-91640500D01*
X166269334Y-91640500D01*
X166474036Y-91640500D01*
X166474037Y-91640500D01*
X166676219Y-91608477D01*
X166870904Y-91545220D01*
X167053295Y-91452287D01*
X167146275Y-91384732D01*
X167218898Y-91331971D01*
X167218900Y-91331968D01*
X167218904Y-91331966D01*
X167363651Y-91187219D01*
X167363653Y-91187215D01*
X167363656Y-91187213D01*
X167467138Y-91044780D01*
X167483972Y-91021610D01*
X167576905Y-90839219D01*
X167640162Y-90644534D01*
X167672185Y-90442352D01*
X167672185Y-90237648D01*
X167640162Y-90035466D01*
X167576905Y-89840781D01*
X167576903Y-89840778D01*
X167576903Y-89840776D01*
X167543188Y-89774607D01*
X167483972Y-89658390D01*
X167476241Y-89647749D01*
X167363656Y-89492786D01*
X167218898Y-89348028D01*
X167053298Y-89227715D01*
X167053297Y-89227714D01*
X167053295Y-89227713D01*
X166996338Y-89198691D01*
X166870908Y-89134781D01*
X166676219Y-89071522D01*
X166501680Y-89043878D01*
X166474037Y-89039500D01*
X166269333Y-89039500D01*
X166245014Y-89043351D01*
X166067150Y-89071522D01*
X165872461Y-89134781D01*
X165690071Y-89227715D01*
X165524471Y-89348028D01*
X165379713Y-89492786D01*
X165259400Y-89658386D01*
X165166466Y-89840776D01*
X165103207Y-90035465D01*
X165071185Y-90237648D01*
X148916843Y-90237648D01*
X148910162Y-90195466D01*
X148846905Y-90000781D01*
X148846903Y-90000778D01*
X148846903Y-90000776D01*
X148813188Y-89934607D01*
X148753972Y-89818390D01*
X148746241Y-89807749D01*
X148633656Y-89652786D01*
X148488898Y-89508028D01*
X148323298Y-89387715D01*
X148323297Y-89387714D01*
X148323295Y-89387713D01*
X148245409Y-89348028D01*
X148140908Y-89294781D01*
X147946219Y-89231522D01*
X147771680Y-89203878D01*
X147744037Y-89199500D01*
X147539333Y-89199500D01*
X147515014Y-89203351D01*
X147337150Y-89231522D01*
X147142461Y-89294781D01*
X146960071Y-89387715D01*
X146794471Y-89508028D01*
X146649713Y-89652786D01*
X146529400Y-89818386D01*
X146436466Y-90000776D01*
X146373207Y-90195465D01*
X146341185Y-90397648D01*
X118406104Y-90397648D01*
X118429360Y-70102135D01*
X121892870Y-70102135D01*
X121892870Y-71897870D01*
X121892871Y-71897876D01*
X121899278Y-71957483D01*
X121949572Y-72092328D01*
X121949576Y-72092335D01*
X122035822Y-72207544D01*
X122035825Y-72207547D01*
X122151034Y-72293793D01*
X122151041Y-72293797D01*
X122282452Y-72342810D01*
X122338386Y-72384681D01*
X122362803Y-72450145D01*
X122347952Y-72518418D01*
X122326801Y-72546673D01*
X122213259Y-72660215D01*
X122088321Y-72832179D01*
X121991814Y-73021585D01*
X121926123Y-73223760D01*
X121892870Y-73433713D01*
X121892870Y-73646286D01*
X121926123Y-73856239D01*
X121991814Y-74058414D01*
X122088321Y-74247820D01*
X122213260Y-74419786D01*
X122363583Y-74570109D01*
X122535552Y-74695050D01*
X122544316Y-74699516D01*
X122595112Y-74747491D01*
X122611906Y-74815312D01*
X122589368Y-74881447D01*
X122544316Y-74920484D01*
X122535552Y-74924949D01*
X122363583Y-75049890D01*
X122213260Y-75200213D01*
X122088321Y-75372179D01*
X121991814Y-75561585D01*
X121926123Y-75763760D01*
X121892870Y-75973713D01*
X121892870Y-76186286D01*
X121926123Y-76396239D01*
X121991814Y-76598414D01*
X122088321Y-76787820D01*
X122213260Y-76959786D01*
X122363583Y-77110109D01*
X122535552Y-77235050D01*
X122544316Y-77239516D01*
X122595112Y-77287491D01*
X122611906Y-77355312D01*
X122589368Y-77421447D01*
X122544316Y-77460484D01*
X122535552Y-77464949D01*
X122363583Y-77589890D01*
X122213260Y-77740213D01*
X122088321Y-77912179D01*
X121991814Y-78101585D01*
X121926123Y-78303760D01*
X121892870Y-78513713D01*
X121892870Y-78726286D01*
X121919788Y-78896243D01*
X121926124Y-78936243D01*
X121952822Y-79018412D01*
X121991814Y-79138414D01*
X122088321Y-79327820D01*
X122213260Y-79499786D01*
X122363583Y-79650109D01*
X122535552Y-79775050D01*
X122544316Y-79779516D01*
X122595112Y-79827491D01*
X122611906Y-79895312D01*
X122589368Y-79961447D01*
X122544316Y-80000484D01*
X122535552Y-80004949D01*
X122363583Y-80129890D01*
X122213260Y-80280213D01*
X122088321Y-80452179D01*
X121991814Y-80641585D01*
X121926123Y-80843760D01*
X121892870Y-81053713D01*
X121892870Y-81266286D01*
X121926123Y-81476239D01*
X121991814Y-81678414D01*
X122088321Y-81867820D01*
X122213260Y-82039786D01*
X122363583Y-82190109D01*
X122535552Y-82315050D01*
X122544316Y-82319516D01*
X122595112Y-82367491D01*
X122611906Y-82435312D01*
X122589368Y-82501447D01*
X122544316Y-82540484D01*
X122535552Y-82544949D01*
X122363583Y-82669890D01*
X122213260Y-82820213D01*
X122088321Y-82992179D01*
X121991814Y-83181585D01*
X121926123Y-83383760D01*
X121892870Y-83593713D01*
X121892870Y-83806286D01*
X121926123Y-84016239D01*
X121991814Y-84218414D01*
X122088321Y-84407820D01*
X122213260Y-84579786D01*
X122363583Y-84730109D01*
X122535552Y-84855050D01*
X122544316Y-84859516D01*
X122595112Y-84907491D01*
X122611906Y-84975312D01*
X122589368Y-85041447D01*
X122544316Y-85080484D01*
X122535552Y-85084949D01*
X122363583Y-85209890D01*
X122213260Y-85360213D01*
X122088321Y-85532179D01*
X121991814Y-85721585D01*
X121926123Y-85923760D01*
X121892870Y-86133713D01*
X121892870Y-86346286D01*
X121926123Y-86556239D01*
X121991814Y-86758414D01*
X122088321Y-86947820D01*
X122213260Y-87119786D01*
X122363583Y-87270109D01*
X122535549Y-87395048D01*
X122535551Y-87395049D01*
X122535554Y-87395051D01*
X122724958Y-87491557D01*
X122927127Y-87557246D01*
X123137083Y-87590500D01*
X123137084Y-87590500D01*
X123349656Y-87590500D01*
X123349657Y-87590500D01*
X123559613Y-87557246D01*
X123761782Y-87491557D01*
X123951186Y-87395051D01*
X124006246Y-87355048D01*
X124123156Y-87270109D01*
X124123158Y-87270106D01*
X124123162Y-87270104D01*
X124273474Y-87119792D01*
X124273476Y-87119788D01*
X124273479Y-87119786D01*
X124398418Y-86947820D01*
X124398417Y-86947820D01*
X124398421Y-86947816D01*
X124494927Y-86758412D01*
X124560616Y-86556243D01*
X124593870Y-86346287D01*
X124593870Y-86133713D01*
X124560616Y-85923757D01*
X124494927Y-85721588D01*
X124398421Y-85532184D01*
X124398419Y-85532181D01*
X124398418Y-85532179D01*
X124273479Y-85360213D01*
X124123156Y-85209890D01*
X123951190Y-85084951D01*
X123950485Y-85084591D01*
X123942424Y-85080485D01*
X123891629Y-85032512D01*
X123874833Y-84964692D01*
X123897369Y-84898556D01*
X123942424Y-84859515D01*
X123951186Y-84855051D01*
X124006246Y-84815048D01*
X124123156Y-84730109D01*
X124123158Y-84730106D01*
X124123162Y-84730104D01*
X124273474Y-84579792D01*
X124273476Y-84579788D01*
X124273479Y-84579786D01*
X124398418Y-84407820D01*
X124398417Y-84407820D01*
X124398421Y-84407816D01*
X124494927Y-84218412D01*
X124560616Y-84016243D01*
X124593870Y-83806287D01*
X124593870Y-83593713D01*
X124560616Y-83383757D01*
X124494927Y-83181588D01*
X124398421Y-82992184D01*
X124398419Y-82992181D01*
X124398418Y-82992179D01*
X124273479Y-82820213D01*
X124123156Y-82669890D01*
X123951190Y-82544951D01*
X123950485Y-82544591D01*
X123942424Y-82540485D01*
X123891629Y-82492512D01*
X123874833Y-82424692D01*
X123897369Y-82358556D01*
X123942424Y-82319515D01*
X123951186Y-82315051D01*
X124006246Y-82275048D01*
X124123156Y-82190109D01*
X124123158Y-82190106D01*
X124123162Y-82190104D01*
X124273474Y-82039792D01*
X124273476Y-82039788D01*
X124273479Y-82039786D01*
X124398418Y-81867820D01*
X124398417Y-81867820D01*
X124398421Y-81867816D01*
X124494927Y-81678412D01*
X124560616Y-81476243D01*
X124593870Y-81266287D01*
X124593870Y-81053713D01*
X124560616Y-80843757D01*
X124494927Y-80641588D01*
X124398421Y-80452184D01*
X124398419Y-80452181D01*
X124398418Y-80452179D01*
X124273479Y-80280213D01*
X124123156Y-80129890D01*
X123951190Y-80004951D01*
X123950485Y-80004591D01*
X123942424Y-80000485D01*
X123891629Y-79952512D01*
X123874833Y-79884692D01*
X123897369Y-79818556D01*
X123942424Y-79779515D01*
X123951186Y-79775051D01*
X124006246Y-79735048D01*
X124123156Y-79650109D01*
X124123158Y-79650106D01*
X124123162Y-79650104D01*
X124273474Y-79499792D01*
X124273476Y-79499788D01*
X124273479Y-79499786D01*
X124398418Y-79327820D01*
X124398417Y-79327820D01*
X124398421Y-79327816D01*
X124494927Y-79138412D01*
X124560616Y-78936243D01*
X124593870Y-78726287D01*
X124593870Y-78513713D01*
X124574864Y-78393713D01*
X129649500Y-78393713D01*
X129649500Y-78606287D01*
X129682754Y-78816243D01*
X129721743Y-78936239D01*
X129748444Y-79018414D01*
X129844951Y-79207820D01*
X129969890Y-79379786D01*
X130120213Y-79530109D01*
X130292179Y-79655048D01*
X130292181Y-79655049D01*
X130292184Y-79655051D01*
X130481588Y-79751557D01*
X130683757Y-79817246D01*
X130893713Y-79850500D01*
X130893714Y-79850500D01*
X131106286Y-79850500D01*
X131106287Y-79850500D01*
X131316243Y-79817246D01*
X131518412Y-79751557D01*
X131707816Y-79655051D01*
X131769681Y-79610104D01*
X131879786Y-79530109D01*
X131879788Y-79530106D01*
X131879792Y-79530104D01*
X132030104Y-79379792D01*
X132030106Y-79379788D01*
X132030109Y-79379786D01*
X132155048Y-79207820D01*
X132155047Y-79207820D01*
X132155051Y-79207816D01*
X132251557Y-79018412D01*
X132317246Y-78816243D01*
X132350500Y-78606287D01*
X132350500Y-78393713D01*
X132317246Y-78183757D01*
X132251557Y-77981588D01*
X132155051Y-77792184D01*
X132155049Y-77792181D01*
X132155048Y-77792179D01*
X132030109Y-77620213D01*
X131879786Y-77469890D01*
X131707820Y-77344951D01*
X131518414Y-77248444D01*
X131518413Y-77248443D01*
X131518412Y-77248443D01*
X131316243Y-77182754D01*
X131316241Y-77182753D01*
X131316240Y-77182753D01*
X131154957Y-77157208D01*
X131106287Y-77149500D01*
X130893713Y-77149500D01*
X130845042Y-77157208D01*
X130683760Y-77182753D01*
X130481585Y-77248444D01*
X130292179Y-77344951D01*
X130120213Y-77469890D01*
X129969890Y-77620213D01*
X129844951Y-77792179D01*
X129748444Y-77981585D01*
X129682753Y-78183760D01*
X129663748Y-78303757D01*
X129649500Y-78393713D01*
X124574864Y-78393713D01*
X124560616Y-78303757D01*
X124494927Y-78101588D01*
X124398421Y-77912184D01*
X124398419Y-77912181D01*
X124398418Y-77912179D01*
X124273479Y-77740213D01*
X124123156Y-77589890D01*
X123951190Y-77464951D01*
X123950485Y-77464591D01*
X123942424Y-77460485D01*
X123891629Y-77412512D01*
X123874833Y-77344692D01*
X123897369Y-77278556D01*
X123942424Y-77239515D01*
X123951186Y-77235051D01*
X124068938Y-77149500D01*
X124123156Y-77110109D01*
X124123158Y-77110106D01*
X124123162Y-77110104D01*
X124273474Y-76959792D01*
X124273476Y-76959788D01*
X124273479Y-76959786D01*
X124398418Y-76787820D01*
X124398417Y-76787820D01*
X124398421Y-76787816D01*
X124494927Y-76598412D01*
X124560616Y-76396243D01*
X124593870Y-76186287D01*
X124593870Y-75973713D01*
X124560616Y-75763757D01*
X124494927Y-75561588D01*
X124398421Y-75372184D01*
X124398419Y-75372181D01*
X124398418Y-75372179D01*
X124273479Y-75200213D01*
X124123156Y-75049890D01*
X123951190Y-74924951D01*
X123950485Y-74924591D01*
X123942424Y-74920485D01*
X123891629Y-74872512D01*
X123874833Y-74804692D01*
X123897369Y-74738556D01*
X123942424Y-74699515D01*
X123951186Y-74695051D01*
X124060996Y-74615270D01*
X124123156Y-74570109D01*
X124123158Y-74570106D01*
X124123162Y-74570104D01*
X124273474Y-74419792D01*
X124273476Y-74419788D01*
X124273479Y-74419786D01*
X124398418Y-74247820D01*
X124398417Y-74247820D01*
X124398421Y-74247816D01*
X124494927Y-74058412D01*
X124560616Y-73856243D01*
X124593870Y-73646287D01*
X124593870Y-73433713D01*
X124560616Y-73223757D01*
X124494927Y-73021588D01*
X124398421Y-72832184D01*
X124398419Y-72832181D01*
X124398418Y-72832179D01*
X124273479Y-72660213D01*
X124159939Y-72546673D01*
X124126454Y-72485350D01*
X124131438Y-72415658D01*
X124173310Y-72359725D01*
X124204285Y-72342810D01*
X124335701Y-72293796D01*
X124450916Y-72207546D01*
X124537166Y-72092331D01*
X124587461Y-71957483D01*
X124593870Y-71897873D01*
X124593869Y-70102128D01*
X124589570Y-70062135D01*
X137132870Y-70062135D01*
X137132870Y-71857870D01*
X137132871Y-71857876D01*
X137139278Y-71917483D01*
X137189572Y-72052328D01*
X137189576Y-72052335D01*
X137275822Y-72167544D01*
X137275825Y-72167547D01*
X137391034Y-72253793D01*
X137391041Y-72253797D01*
X137435988Y-72270561D01*
X137525887Y-72304091D01*
X137585497Y-72310500D01*
X137596055Y-72310499D01*
X137663093Y-72330179D01*
X137683742Y-72346818D01*
X138353961Y-73017037D01*
X138290377Y-73034075D01*
X138176363Y-73099901D01*
X138083271Y-73192993D01*
X138017445Y-73307007D01*
X138000407Y-73370591D01*
X137368098Y-72738282D01*
X137368097Y-72738282D01*
X137328750Y-72792439D01*
X137232274Y-72981782D01*
X137166612Y-73183869D01*
X137166612Y-73183872D01*
X137133370Y-73393753D01*
X137133370Y-73606246D01*
X137166612Y-73816127D01*
X137166612Y-73816130D01*
X137232274Y-74018217D01*
X137328745Y-74207550D01*
X137368098Y-74261716D01*
X138000407Y-73629408D01*
X138017445Y-73692993D01*
X138083271Y-73807007D01*
X138176363Y-73900099D01*
X138290377Y-73965925D01*
X138353960Y-73982962D01*
X137721652Y-74615269D01*
X137721652Y-74615270D01*
X137775822Y-74654626D01*
X137775821Y-74654626D01*
X137784865Y-74659234D01*
X137835662Y-74707208D01*
X137852457Y-74775029D01*
X137829920Y-74841164D01*
X137784869Y-74880202D01*
X137775552Y-74884949D01*
X137603583Y-75009890D01*
X137453260Y-75160213D01*
X137328321Y-75332179D01*
X137231814Y-75521585D01*
X137166123Y-75723760D01*
X137132870Y-75933713D01*
X137132870Y-76146286D01*
X137166123Y-76356239D01*
X137231814Y-76558414D01*
X137328321Y-76747820D01*
X137453260Y-76919786D01*
X137603583Y-77070109D01*
X137775552Y-77195050D01*
X137784316Y-77199516D01*
X137835112Y-77247491D01*
X137851906Y-77315312D01*
X137829368Y-77381447D01*
X137784316Y-77420484D01*
X137775552Y-77424949D01*
X137603583Y-77549890D01*
X137453260Y-77700213D01*
X137328321Y-77872179D01*
X137231814Y-78061585D01*
X137166123Y-78263760D01*
X137132870Y-78473713D01*
X137132870Y-78686286D01*
X137153452Y-78816239D01*
X137166124Y-78896243D01*
X137205819Y-79018412D01*
X137231814Y-79098414D01*
X137328321Y-79287820D01*
X137453260Y-79459786D01*
X137603583Y-79610109D01*
X137775552Y-79735050D01*
X137784316Y-79739516D01*
X137835112Y-79787491D01*
X137851906Y-79855312D01*
X137829368Y-79921447D01*
X137784316Y-79960484D01*
X137775552Y-79964949D01*
X137603583Y-80089890D01*
X137453260Y-80240213D01*
X137328321Y-80412179D01*
X137231814Y-80601585D01*
X137166123Y-80803760D01*
X137132870Y-81013713D01*
X137132870Y-81226286D01*
X137166123Y-81436239D01*
X137231814Y-81638414D01*
X137328321Y-81827820D01*
X137453260Y-81999786D01*
X137603583Y-82150109D01*
X137775552Y-82275050D01*
X137784316Y-82279516D01*
X137835112Y-82327491D01*
X137851906Y-82395312D01*
X137829368Y-82461447D01*
X137784316Y-82500484D01*
X137775552Y-82504949D01*
X137603583Y-82629890D01*
X137453260Y-82780213D01*
X137328321Y-82952179D01*
X137231814Y-83141585D01*
X137166123Y-83343760D01*
X137132870Y-83553713D01*
X137132870Y-83766286D01*
X137166123Y-83976239D01*
X137231814Y-84178414D01*
X137328321Y-84367820D01*
X137453260Y-84539786D01*
X137603583Y-84690109D01*
X137775552Y-84815050D01*
X137784316Y-84819516D01*
X137835112Y-84867491D01*
X137851906Y-84935312D01*
X137829368Y-85001447D01*
X137784316Y-85040484D01*
X137775552Y-85044949D01*
X137603583Y-85169890D01*
X137453260Y-85320213D01*
X137328321Y-85492179D01*
X137231814Y-85681585D01*
X137166123Y-85883760D01*
X137132870Y-86093713D01*
X137132870Y-86306286D01*
X137166123Y-86516239D01*
X137231814Y-86718414D01*
X137328321Y-86907820D01*
X137453260Y-87079786D01*
X137603583Y-87230109D01*
X137775549Y-87355048D01*
X137775551Y-87355049D01*
X137775554Y-87355051D01*
X137964958Y-87451557D01*
X138167127Y-87517246D01*
X138377083Y-87550500D01*
X138377084Y-87550500D01*
X138589656Y-87550500D01*
X138589657Y-87550500D01*
X138799613Y-87517246D01*
X139001782Y-87451557D01*
X139191186Y-87355051D01*
X139213159Y-87339086D01*
X139363156Y-87230109D01*
X139363158Y-87230106D01*
X139363162Y-87230104D01*
X139513474Y-87079792D01*
X139513476Y-87079788D01*
X139513479Y-87079786D01*
X139638418Y-86907820D01*
X139638417Y-86907820D01*
X139638421Y-86907816D01*
X139734927Y-86718412D01*
X139800616Y-86516243D01*
X139833870Y-86306287D01*
X139833870Y-86093713D01*
X139800616Y-85883757D01*
X139734927Y-85681588D01*
X139638421Y-85492184D01*
X139638419Y-85492181D01*
X139638418Y-85492179D01*
X139513479Y-85320213D01*
X139363156Y-85169890D01*
X139191190Y-85044951D01*
X139190485Y-85044591D01*
X139182424Y-85040485D01*
X139131629Y-84992512D01*
X139114833Y-84924692D01*
X139137369Y-84858556D01*
X139182424Y-84819515D01*
X139191186Y-84815051D01*
X139213159Y-84799086D01*
X139363156Y-84690109D01*
X139363158Y-84690106D01*
X139363162Y-84690104D01*
X139513474Y-84539792D01*
X139513476Y-84539788D01*
X139513479Y-84539786D01*
X139638418Y-84367820D01*
X139638417Y-84367820D01*
X139638421Y-84367816D01*
X139734927Y-84178412D01*
X139800616Y-83976243D01*
X139833870Y-83766287D01*
X139833870Y-83553713D01*
X139800616Y-83343757D01*
X139734927Y-83141588D01*
X139638421Y-82952184D01*
X139638419Y-82952181D01*
X139638418Y-82952179D01*
X139513479Y-82780213D01*
X139363156Y-82629890D01*
X139191190Y-82504951D01*
X139190485Y-82504591D01*
X139182424Y-82500485D01*
X139131629Y-82452512D01*
X139114833Y-82384692D01*
X139137369Y-82318556D01*
X139182424Y-82279515D01*
X139191186Y-82275051D01*
X139213159Y-82259086D01*
X139363156Y-82150109D01*
X139363158Y-82150106D01*
X139363162Y-82150104D01*
X139513474Y-81999792D01*
X139513476Y-81999788D01*
X139513479Y-81999786D01*
X139638418Y-81827820D01*
X139638417Y-81827820D01*
X139638421Y-81827816D01*
X139734927Y-81638412D01*
X139800616Y-81436243D01*
X139833870Y-81226287D01*
X139833870Y-81013713D01*
X139800616Y-80803757D01*
X139734927Y-80601588D01*
X139638421Y-80412184D01*
X139638419Y-80412181D01*
X139638418Y-80412179D01*
X139513479Y-80240213D01*
X139363156Y-80089890D01*
X139191190Y-79964951D01*
X139190485Y-79964591D01*
X139182424Y-79960485D01*
X139131629Y-79912512D01*
X139114833Y-79844692D01*
X139137369Y-79778556D01*
X139182424Y-79739515D01*
X139191186Y-79735051D01*
X139213159Y-79719086D01*
X139363156Y-79610109D01*
X139363158Y-79610106D01*
X139363162Y-79610104D01*
X139513474Y-79459792D01*
X139513476Y-79459788D01*
X139513479Y-79459786D01*
X139638418Y-79287820D01*
X139638417Y-79287820D01*
X139638421Y-79287816D01*
X139734927Y-79098412D01*
X139800616Y-78896243D01*
X139833870Y-78686287D01*
X139833870Y-78473713D01*
X139800616Y-78263757D01*
X139734927Y-78061588D01*
X139638421Y-77872184D01*
X139638419Y-77872181D01*
X139638418Y-77872179D01*
X139513479Y-77700213D01*
X139363156Y-77549890D01*
X139191190Y-77424951D01*
X139190485Y-77424591D01*
X139182424Y-77420485D01*
X139131629Y-77372512D01*
X139114833Y-77304692D01*
X139137369Y-77238556D01*
X139182424Y-77199515D01*
X139191186Y-77195051D01*
X139253882Y-77149500D01*
X139363156Y-77070109D01*
X139363158Y-77070106D01*
X139363162Y-77070104D01*
X139513474Y-76919792D01*
X139513476Y-76919788D01*
X139513479Y-76919786D01*
X139638418Y-76747820D01*
X139638417Y-76747820D01*
X139638421Y-76747816D01*
X139734927Y-76558412D01*
X139800616Y-76356243D01*
X139833870Y-76146287D01*
X139833870Y-75933713D01*
X139800616Y-75723757D01*
X139734927Y-75521588D01*
X139638421Y-75332184D01*
X139638419Y-75332181D01*
X139638418Y-75332179D01*
X139513479Y-75160213D01*
X139363156Y-75009890D01*
X139191187Y-74884949D01*
X139181874Y-74880204D01*
X139131077Y-74832230D01*
X139114282Y-74764409D01*
X139136819Y-74698274D01*
X139181877Y-74659232D01*
X139190925Y-74654622D01*
X139245086Y-74615270D01*
X139245087Y-74615270D01*
X138612778Y-73982962D01*
X138676363Y-73965925D01*
X138790377Y-73900099D01*
X138883469Y-73807007D01*
X138949295Y-73692993D01*
X138966332Y-73629408D01*
X139598640Y-74261717D01*
X139598640Y-74261716D01*
X139637992Y-74207554D01*
X139734465Y-74018217D01*
X139800127Y-73816130D01*
X139800127Y-73816127D01*
X139833370Y-73606246D01*
X139833370Y-73393753D01*
X139800127Y-73183872D01*
X139800127Y-73183869D01*
X139734464Y-72981779D01*
X139716040Y-72945619D01*
X139716039Y-72945617D01*
X139637999Y-72792457D01*
X139637996Y-72792452D01*
X139598640Y-72738282D01*
X139598639Y-72738282D01*
X138966332Y-73370590D01*
X138949295Y-73307007D01*
X138883469Y-73192993D01*
X138790377Y-73099901D01*
X138676363Y-73034075D01*
X138612779Y-73017037D01*
X139282997Y-72346818D01*
X139344320Y-72313333D01*
X139370677Y-72310499D01*
X139381242Y-72310499D01*
X139440853Y-72304091D01*
X139575701Y-72253796D01*
X139690916Y-72167546D01*
X139777166Y-72052331D01*
X139827461Y-71917483D01*
X139833870Y-71857873D01*
X139833869Y-71382014D01*
X144831685Y-71382014D01*
X144831685Y-71617985D01*
X144862484Y-71851914D01*
X144923555Y-72079837D01*
X145013845Y-72297819D01*
X145013850Y-72297828D01*
X145131829Y-72502171D01*
X145131830Y-72502172D01*
X145194406Y-72583723D01*
X145877569Y-71900559D01*
X145878425Y-71902626D01*
X145971447Y-72041844D01*
X146089841Y-72160238D01*
X146229059Y-72253260D01*
X146231123Y-72254115D01*
X145547960Y-72937277D01*
X145629512Y-72999854D01*
X145629513Y-72999855D01*
X145833856Y-73117834D01*
X145833865Y-73117839D01*
X146051848Y-73208129D01*
X146051846Y-73208129D01*
X146279770Y-73269200D01*
X146513699Y-73299999D01*
X146513714Y-73300000D01*
X146749656Y-73300000D01*
X146749670Y-73299999D01*
X146983599Y-73269200D01*
X147211522Y-73208129D01*
X147429504Y-73117839D01*
X147429513Y-73117834D01*
X147633866Y-72999850D01*
X147715408Y-72937279D01*
X147715408Y-72937276D01*
X147032246Y-72254115D01*
X147034311Y-72253260D01*
X147173529Y-72160238D01*
X147291923Y-72041844D01*
X147384945Y-71902626D01*
X147385799Y-71900561D01*
X148068961Y-72583723D01*
X148068964Y-72583723D01*
X148131535Y-72502181D01*
X148249519Y-72297828D01*
X148249524Y-72297819D01*
X148339814Y-72079837D01*
X148400885Y-71851914D01*
X148431684Y-71617985D01*
X148431685Y-71617971D01*
X148431685Y-71382021D01*
X148431682Y-71381995D01*
X149911185Y-71381995D01*
X149911185Y-71618004D01*
X149911186Y-71618020D01*
X149941978Y-71851914D01*
X149941992Y-71852014D01*
X149959534Y-71917482D01*
X150003079Y-72079993D01*
X150093399Y-72298045D01*
X150093404Y-72298056D01*
X150161303Y-72415658D01*
X150211412Y-72502450D01*
X150211414Y-72502453D01*
X150211415Y-72502454D01*
X150355091Y-72689697D01*
X150355097Y-72689704D01*
X150521980Y-72856587D01*
X150521987Y-72856593D01*
X150631991Y-72941001D01*
X150709235Y-73000273D01*
X150840603Y-73076118D01*
X150913628Y-73118280D01*
X150913633Y-73118282D01*
X150913636Y-73118284D01*
X151131692Y-73208606D01*
X151359671Y-73269693D01*
X151593674Y-73300500D01*
X151593681Y-73300500D01*
X151829689Y-73300500D01*
X151829696Y-73300500D01*
X152063699Y-73269693D01*
X152291678Y-73208606D01*
X152509734Y-73118284D01*
X152714135Y-73000273D01*
X152901384Y-72856592D01*
X153068277Y-72689699D01*
X153211958Y-72502450D01*
X153329969Y-72298049D01*
X153420291Y-72079993D01*
X153481378Y-71852014D01*
X153512185Y-71618011D01*
X153512185Y-71381995D01*
X154991185Y-71381995D01*
X154991185Y-71618004D01*
X154991186Y-71618020D01*
X155021978Y-71851914D01*
X155021992Y-71852014D01*
X155039534Y-71917482D01*
X155083079Y-72079993D01*
X155173399Y-72298045D01*
X155173404Y-72298056D01*
X155241303Y-72415658D01*
X155291412Y-72502450D01*
X155291414Y-72502453D01*
X155291415Y-72502454D01*
X155435091Y-72689697D01*
X155435097Y-72689704D01*
X155601980Y-72856587D01*
X155601987Y-72856593D01*
X155711991Y-72941001D01*
X155789235Y-73000273D01*
X155920603Y-73076118D01*
X155993628Y-73118280D01*
X155993633Y-73118282D01*
X155993636Y-73118284D01*
X156211692Y-73208606D01*
X156439671Y-73269693D01*
X156673674Y-73300500D01*
X156673681Y-73300500D01*
X156909689Y-73300500D01*
X156909696Y-73300500D01*
X157143699Y-73269693D01*
X157371678Y-73208606D01*
X157589734Y-73118284D01*
X157794135Y-73000273D01*
X157981384Y-72856592D01*
X158148277Y-72689699D01*
X158291958Y-72502450D01*
X158409969Y-72298049D01*
X158500291Y-72079993D01*
X158561378Y-71852014D01*
X158592185Y-71618011D01*
X158592185Y-71381995D01*
X160071185Y-71381995D01*
X160071185Y-71618004D01*
X160071186Y-71618020D01*
X160101978Y-71851914D01*
X160101992Y-71852014D01*
X160119534Y-71917482D01*
X160163079Y-72079993D01*
X160253399Y-72298045D01*
X160253404Y-72298056D01*
X160321303Y-72415658D01*
X160371412Y-72502450D01*
X160371414Y-72502453D01*
X160371415Y-72502454D01*
X160515091Y-72689697D01*
X160515097Y-72689704D01*
X160681980Y-72856587D01*
X160681987Y-72856593D01*
X160791991Y-72941001D01*
X160869235Y-73000273D01*
X161000603Y-73076118D01*
X161073628Y-73118280D01*
X161073633Y-73118282D01*
X161073636Y-73118284D01*
X161291692Y-73208606D01*
X161519671Y-73269693D01*
X161753674Y-73300500D01*
X161753681Y-73300500D01*
X161989689Y-73300500D01*
X161989696Y-73300500D01*
X162223699Y-73269693D01*
X162451678Y-73208606D01*
X162669734Y-73118284D01*
X162874135Y-73000273D01*
X163061384Y-72856592D01*
X163228277Y-72689699D01*
X163371958Y-72502450D01*
X163489969Y-72298049D01*
X163580291Y-72079993D01*
X163641378Y-71852014D01*
X163672185Y-71618011D01*
X163672185Y-71381989D01*
X163641378Y-71147986D01*
X163580291Y-70920007D01*
X163489969Y-70701951D01*
X163489967Y-70701948D01*
X163489965Y-70701943D01*
X163434195Y-70605348D01*
X163371958Y-70497550D01*
X163297099Y-70399992D01*
X163297092Y-70399983D01*
X165151185Y-70399983D01*
X165151185Y-72600001D01*
X165151186Y-72600018D01*
X165161685Y-72702796D01*
X165161686Y-72702799D01*
X165191396Y-72792457D01*
X165216871Y-72869334D01*
X165308973Y-73018656D01*
X165433029Y-73142712D01*
X165582351Y-73234814D01*
X165748888Y-73289999D01*
X165851676Y-73300500D01*
X168051693Y-73300499D01*
X168154482Y-73289999D01*
X168321019Y-73234814D01*
X168470341Y-73142712D01*
X168594397Y-73018656D01*
X168686499Y-72869334D01*
X168741684Y-72702797D01*
X168752185Y-72600009D01*
X168752184Y-70399992D01*
X168741684Y-70297203D01*
X168686499Y-70130666D01*
X168594397Y-69981344D01*
X168470341Y-69857288D01*
X168365228Y-69792454D01*
X168321021Y-69765187D01*
X168321016Y-69765185D01*
X168282590Y-69752452D01*
X168154482Y-69710001D01*
X168154480Y-69710000D01*
X168051695Y-69699500D01*
X165851683Y-69699500D01*
X165851666Y-69699501D01*
X165748888Y-69710000D01*
X165748885Y-69710001D01*
X165582353Y-69765185D01*
X165582348Y-69765187D01*
X165433027Y-69857289D01*
X165308974Y-69981342D01*
X165216872Y-70130663D01*
X165216870Y-70130668D01*
X165212647Y-70143412D01*
X165161686Y-70297203D01*
X165161686Y-70297204D01*
X165161685Y-70297204D01*
X165151185Y-70399983D01*
X163297092Y-70399983D01*
X163228278Y-70310302D01*
X163228272Y-70310295D01*
X163061389Y-70143412D01*
X163061382Y-70143406D01*
X162874139Y-69999730D01*
X162874138Y-69999729D01*
X162874135Y-69999727D01*
X162792642Y-69952677D01*
X162669741Y-69881719D01*
X162669730Y-69881714D01*
X162451678Y-69791394D01*
X162223695Y-69730306D01*
X161989705Y-69699501D01*
X161989702Y-69699500D01*
X161989696Y-69699500D01*
X161753674Y-69699500D01*
X161753668Y-69699500D01*
X161753664Y-69699501D01*
X161519674Y-69730306D01*
X161291691Y-69791394D01*
X161073639Y-69881714D01*
X161073628Y-69881719D01*
X160869230Y-69999730D01*
X160681987Y-70143406D01*
X160681980Y-70143412D01*
X160515097Y-70310295D01*
X160515091Y-70310302D01*
X160371415Y-70497545D01*
X160371412Y-70497549D01*
X160371412Y-70497550D01*
X160363699Y-70510909D01*
X160253404Y-70701943D01*
X160253399Y-70701954D01*
X160163079Y-70920006D01*
X160101991Y-71147989D01*
X160071186Y-71381979D01*
X160071185Y-71381995D01*
X158592185Y-71381995D01*
X158592185Y-71381989D01*
X158561378Y-71147986D01*
X158500291Y-70920007D01*
X158409969Y-70701951D01*
X158409967Y-70701948D01*
X158409965Y-70701943D01*
X158367803Y-70628918D01*
X158291958Y-70497550D01*
X158148277Y-70310301D01*
X158148272Y-70310295D01*
X157981389Y-70143412D01*
X157981382Y-70143406D01*
X157794139Y-69999730D01*
X157794138Y-69999729D01*
X157794135Y-69999727D01*
X157712642Y-69952677D01*
X157589741Y-69881719D01*
X157589730Y-69881714D01*
X157371678Y-69791394D01*
X157143695Y-69730306D01*
X156909705Y-69699501D01*
X156909702Y-69699500D01*
X156909696Y-69699500D01*
X156673674Y-69699500D01*
X156673668Y-69699500D01*
X156673664Y-69699501D01*
X156439674Y-69730306D01*
X156211691Y-69791394D01*
X155993639Y-69881714D01*
X155993628Y-69881719D01*
X155789230Y-69999730D01*
X155601987Y-70143406D01*
X155601980Y-70143412D01*
X155435097Y-70310295D01*
X155435091Y-70310302D01*
X155291415Y-70497545D01*
X155291412Y-70497549D01*
X155291412Y-70497550D01*
X155283699Y-70510909D01*
X155173404Y-70701943D01*
X155173399Y-70701954D01*
X155083079Y-70920006D01*
X155021991Y-71147989D01*
X154991186Y-71381979D01*
X154991185Y-71381995D01*
X153512185Y-71381995D01*
X153512185Y-71381989D01*
X153481378Y-71147986D01*
X153420291Y-70920007D01*
X153329969Y-70701951D01*
X153329967Y-70701948D01*
X153329965Y-70701943D01*
X153287803Y-70628918D01*
X153211958Y-70497550D01*
X153068277Y-70310301D01*
X153068272Y-70310295D01*
X152901389Y-70143412D01*
X152901382Y-70143406D01*
X152714139Y-69999730D01*
X152714138Y-69999729D01*
X152714135Y-69999727D01*
X152632642Y-69952677D01*
X152509741Y-69881719D01*
X152509730Y-69881714D01*
X152291678Y-69791394D01*
X152063695Y-69730306D01*
X151829705Y-69699501D01*
X151829702Y-69699500D01*
X151829696Y-69699500D01*
X151593674Y-69699500D01*
X151593668Y-69699500D01*
X151593664Y-69699501D01*
X151359674Y-69730306D01*
X151131691Y-69791394D01*
X150913639Y-69881714D01*
X150913628Y-69881719D01*
X150709230Y-69999730D01*
X150521987Y-70143406D01*
X150521980Y-70143412D01*
X150355097Y-70310295D01*
X150355091Y-70310302D01*
X150211415Y-70497545D01*
X150211412Y-70497549D01*
X150211412Y-70497550D01*
X150203699Y-70510909D01*
X150093404Y-70701943D01*
X150093399Y-70701954D01*
X150003079Y-70920006D01*
X149941991Y-71147989D01*
X149911186Y-71381979D01*
X149911185Y-71381995D01*
X148431682Y-71381995D01*
X148400885Y-71148085D01*
X148339814Y-70920162D01*
X148249524Y-70702180D01*
X148249519Y-70702171D01*
X148131540Y-70497828D01*
X148131539Y-70497827D01*
X148068962Y-70416275D01*
X147385799Y-71099437D01*
X147384945Y-71097374D01*
X147291923Y-70958156D01*
X147173529Y-70839762D01*
X147034311Y-70746740D01*
X147032246Y-70745884D01*
X147715408Y-70062721D01*
X147633857Y-70000145D01*
X147633856Y-70000144D01*
X147429513Y-69882165D01*
X147429504Y-69882160D01*
X147211521Y-69791870D01*
X147211523Y-69791870D01*
X146983599Y-69730799D01*
X146749670Y-69700000D01*
X146513699Y-69700000D01*
X146279770Y-69730799D01*
X146051847Y-69791870D01*
X145833865Y-69882160D01*
X145833856Y-69882165D01*
X145629513Y-70000144D01*
X145629503Y-70000150D01*
X145547960Y-70062720D01*
X145547960Y-70062721D01*
X146231123Y-70745884D01*
X146229059Y-70746740D01*
X146089841Y-70839762D01*
X145971447Y-70958156D01*
X145878425Y-71097374D01*
X145877569Y-71099438D01*
X145194406Y-70416275D01*
X145194405Y-70416275D01*
X145131835Y-70497818D01*
X145131829Y-70497828D01*
X145013850Y-70702171D01*
X145013845Y-70702180D01*
X144923555Y-70920162D01*
X144862484Y-71148085D01*
X144831685Y-71382014D01*
X139833869Y-71382014D01*
X139833869Y-70958156D01*
X139833869Y-70110674D01*
X139833869Y-70062129D01*
X139833868Y-70062123D01*
X139833867Y-70062116D01*
X139827461Y-70002517D01*
X139826578Y-70000150D01*
X139777167Y-69867671D01*
X139777163Y-69867664D01*
X139690917Y-69752455D01*
X139690914Y-69752452D01*
X139575705Y-69666206D01*
X139575698Y-69666202D01*
X139440852Y-69615908D01*
X139440853Y-69615908D01*
X139381253Y-69609501D01*
X139381251Y-69609500D01*
X139381243Y-69609500D01*
X139381234Y-69609500D01*
X137585499Y-69609500D01*
X137585493Y-69609501D01*
X137525886Y-69615908D01*
X137391041Y-69666202D01*
X137391034Y-69666206D01*
X137275825Y-69752452D01*
X137275822Y-69752455D01*
X137189576Y-69867664D01*
X137189572Y-69867671D01*
X137139278Y-70002517D01*
X137134978Y-70042516D01*
X137132871Y-70062123D01*
X137132870Y-70062135D01*
X124589570Y-70062135D01*
X124587461Y-70042517D01*
X124537166Y-69907669D01*
X124537165Y-69907668D01*
X124537163Y-69907664D01*
X124450917Y-69792455D01*
X124450914Y-69792452D01*
X124335705Y-69706206D01*
X124335698Y-69706202D01*
X124200852Y-69655908D01*
X124200853Y-69655908D01*
X124141253Y-69649501D01*
X124141251Y-69649500D01*
X124141243Y-69649500D01*
X124141234Y-69649500D01*
X122345499Y-69649500D01*
X122345493Y-69649501D01*
X122285886Y-69655908D01*
X122151041Y-69706202D01*
X122151034Y-69706206D01*
X122035825Y-69792452D01*
X122035822Y-69792455D01*
X121949576Y-69907664D01*
X121949572Y-69907671D01*
X121899278Y-70042517D01*
X121893242Y-70098664D01*
X121892871Y-70102123D01*
X121892870Y-70102135D01*
X118429360Y-70102135D01*
X118429716Y-69791870D01*
X118432759Y-67135573D01*
X118432759Y-67135483D01*
X118432774Y-67127014D01*
X118432889Y-67126589D01*
X118432889Y-67065878D01*
X118432900Y-67065837D01*
X118433361Y-67055303D01*
X118436264Y-67022120D01*
X118447128Y-66897939D01*
X118450879Y-66876663D01*
X118490358Y-66729324D01*
X118497751Y-66709015D01*
X118497768Y-66708978D01*
X118562212Y-66570778D01*
X118573018Y-66552063D01*
X118660508Y-66427114D01*
X118674396Y-66410562D01*
X118782254Y-66302704D01*
X118798806Y-66288816D01*
X118923755Y-66201326D01*
X118942470Y-66190520D01*
X119080709Y-66126058D01*
X119101016Y-66118666D01*
X119248355Y-66079187D01*
X119269631Y-66075436D01*
X119402274Y-66063831D01*
X119426995Y-66061669D01*
X119437735Y-66061197D01*
X119498281Y-66061197D01*
X119498402Y-66061164D01*
X119506627Y-66061160D01*
X119506639Y-66061163D01*
X119506694Y-66061160D01*
X170245133Y-66061160D01*
X170305612Y-66061160D01*
X170316419Y-66061632D01*
G37*
%TD.AperFunction*%
%TD*%
M02*
