M48
; DRILL file KiCad 10.0.1 date 2026-06-12T14:07:15
; FORMAT={-:-/ absolute / metric / decimal}
; #@! TF.CreationDate,2026-06-12T14:07:15-07:00
; #@! TF.GenerationSoftware,Kicad,Pcbnew,10.0.1
; #@! TF.FileFunction,Plated,1,2,PTH
FMAT,2
METRIC
; #@! TA.AperFunction,Plated,PTH,ComponentDrill
T1C0.750
; #@! TA.AperFunction,Plated,PTH,ComponentDrill
T2C0.800
; #@! TA.AperFunction,Plated,PTH,ComponentDrill
T3C1.000
; #@! TA.AperFunction,Plated,PTH,ComponentDrill
T4C1.700
%
G90
G05
T1
X123.832Y-100.11
X125.102Y-100.11
X126.372Y-100.11
T2
X120.022Y-92.25
X121.532Y-110.02
X121.532Y-116.52
X130.182Y-92.25
X131.692Y-110.02
X131.692Y-116.52
X134.062Y-92.0
X134.797Y-110.21
X134.797Y-112.75
X134.797Y-115.29
X134.797Y-117.83
X135.332Y-98.73
X135.332Y-101.27
X142.417Y-110.21
X142.417Y-112.75
X142.417Y-115.29
X142.417Y-117.83
X142.952Y-98.73
X142.952Y-101.27
X144.222Y-92.0
X146.372Y-116.5
X146.532Y-110.02
X147.642Y-90.5
X147.642Y-100.66
X152.982Y-92.0
X154.062Y-98.725
X154.062Y-101.265
X156.532Y-116.5
X156.692Y-110.02
X161.682Y-98.725
X161.682Y-101.265
X163.142Y-92.0
X166.372Y-90.34
X166.372Y-100.5
T3
X123.243Y-71.0
X123.243Y-73.54
X123.243Y-76.08
X123.243Y-78.62
X123.243Y-81.16
X123.243Y-83.7
X123.243Y-86.24
X138.483Y-70.96
X138.483Y-73.5
X138.483Y-76.04
X138.483Y-78.58
X138.483Y-81.12
X138.483Y-83.66
X138.483Y-86.2
T4
X146.632Y-71.5
X151.712Y-71.5
X156.792Y-71.5
X161.872Y-71.5
X166.952Y-71.5
M30
