%TF.GenerationSoftware,KiCad,Pcbnew,10.0.1*%
%TF.CreationDate,2026-06-12T14:07:18-07:00*%
%TF.ProjectId,t1n-smart-lock,74316e2d-736d-4617-9274-2d6c6f636b2e,v1.0*%
%TF.SameCoordinates,Original*%
%TF.FileFunction,Soldermask,Top*%
%TF.FilePolarity,Negative*%
%FSLAX46Y46*%
G04 Gerber Fmt 4.6, Leading zero omitted, Abs format (unit mm)*
G04 Created by KiCad (PCBNEW 10.0.1) date 2026-06-12 14:07:18*
%MOMM*%
%LPD*%
G01*
G04 APERTURE LIST*
G04 Aperture macros list*
%AMRoundRect*
0 Rectangle with rounded corners*
0 $1 Rounding radius*
0 $2 $3 $4 $5 $6 $7 $8 $9 X,Y pos of 4 corners*
0 Add a 4 corners polygon primitive as box body*
4,1,4,$2,$3,$4,$5,$6,$7,$8,$9,$2,$3,0*
0 Add four circle primitives for the rounded corners*
1,1,$1+$1,$2,$3*
1,1,$1+$1,$4,$5*
1,1,$1+$1,$6,$7*
1,1,$1+$1,$8,$9*
0 Add four rect primitives between the rounded corners*
20,1,$1+$1,$2,$3,$4,$5,0*
20,1,$1+$1,$4,$5,$6,$7,0*
20,1,$1+$1,$6,$7,$8,$9,0*
20,1,$1+$1,$8,$9,$2,$3,0*%
G04 Aperture macros list end*
%ADD10C,1.600000*%
%ADD11RoundRect,0.250000X1.050000X1.050000X-1.050000X1.050000X-1.050000X-1.050000X1.050000X-1.050000X0*%
%ADD12C,2.600000*%
%ADD13RoundRect,0.250000X-0.550000X-0.550000X0.550000X-0.550000X0.550000X0.550000X-0.550000X0.550000X0*%
%ADD14R,1.700000X1.700000*%
%ADD15C,1.700000*%
%ADD16R,1.050000X1.500000*%
%ADD17O,1.050000X1.500000*%
%ADD18C,2.200000*%
%ADD19RoundRect,0.250000X0.550000X0.550000X-0.550000X0.550000X-0.550000X-0.550000X0.550000X-0.550000X0*%
G04 APERTURE END LIST*
D10*
%TO.C,R1*%
X120021685Y-92250000D03*
X130181685Y-92250000D03*
%TD*%
D11*
%TO.C,J3*%
X166951685Y-71500000D03*
D12*
X161871685Y-71500000D03*
X156791685Y-71500000D03*
X151711685Y-71500000D03*
X146631685Y-71500000D03*
%TD*%
D10*
%TO.C,R3*%
X147641685Y-90500000D03*
X147641685Y-100660000D03*
%TD*%
D13*
%TO.C,U1*%
X135331685Y-98730000D03*
D10*
X135331685Y-101270000D03*
X142951685Y-101270000D03*
X142951685Y-98730000D03*
%TD*%
%TO.C,R6*%
X156691685Y-110020001D03*
X146531685Y-110020001D03*
%TD*%
D14*
%TO.C,J1*%
X123243370Y-71000000D03*
D15*
X123243370Y-73540000D03*
X123243370Y-76080000D03*
X123243370Y-78620000D03*
X123243370Y-81160000D03*
X123243370Y-83700000D03*
X123243370Y-86240000D03*
%TD*%
D10*
%TO.C,R8*%
X121531685Y-110020001D03*
X131691685Y-110020001D03*
%TD*%
D16*
%TO.C,Q1*%
X123831685Y-100110000D03*
D17*
X125101685Y-100110000D03*
X126371685Y-100110000D03*
%TD*%
D18*
%TO.C,H1*%
X131000000Y-78500000D03*
%TD*%
%TO.C,H2*%
X166871685Y-114000000D03*
%TD*%
D10*
%TO.C,R7*%
X156531685Y-116500000D03*
X146371685Y-116500000D03*
%TD*%
D19*
%TO.C,U3*%
X142416685Y-117830001D03*
D10*
X142416685Y-115290001D03*
X142416685Y-112750001D03*
X142416685Y-110210001D03*
X134796685Y-110210001D03*
X134796685Y-112750001D03*
X134796685Y-115290001D03*
X134796685Y-117830001D03*
%TD*%
%TO.C,R2*%
X134061685Y-92000000D03*
X144221685Y-92000000D03*
%TD*%
%TO.C,R5*%
X166371685Y-90340000D03*
X166371685Y-100500000D03*
%TD*%
%TO.C,R9*%
X121531685Y-116520001D03*
X131691685Y-116520001D03*
%TD*%
D14*
%TO.C,J2*%
X138483370Y-70960000D03*
D15*
X138483370Y-73500000D03*
X138483370Y-76040000D03*
X138483370Y-78580000D03*
X138483370Y-81120000D03*
X138483370Y-83660000D03*
X138483370Y-86200000D03*
%TD*%
D13*
%TO.C,U2*%
X154061685Y-98725000D03*
D10*
X154061685Y-101265000D03*
X161681685Y-101265000D03*
X161681685Y-98725000D03*
%TD*%
%TO.C,R4*%
X152981685Y-92000000D03*
X163141685Y-92000000D03*
%TD*%
M02*
