%TF.GenerationSoftware,KiCad,Pcbnew,10.0.1*%
%TF.CreationDate,2026-06-12T14:07:18-07:00*%
%TF.ProjectId,t1n-smart-lock,74316e2d-736d-4617-9274-2d6c6f636b2e,v1.0*%
%TF.SameCoordinates,Original*%
%TF.FileFunction,Legend,Top*%
%TF.FilePolarity,Positive*%
%FSLAX46Y46*%
G04 Gerber Fmt 4.6, Leading zero omitted, Abs format (unit mm)*
G04 Created by KiCad (PCBNEW 10.0.1) date 2026-06-12 14:07:18*
%MOMM*%
%LPD*%
G01*
G04 APERTURE LIST*
%ADD10C,0.100000*%
%ADD11C,0.150000*%
%ADD12C,0.250000*%
%ADD13C,0.120000*%
G04 APERTURE END LIST*
D10*
X118871685Y-88500000D02*
X131628316Y-88500000D01*
X131628316Y-104978907D01*
X118871685Y-104978907D01*
X118871685Y-88500000D01*
X120296685Y-106250000D02*
X158296684Y-106250000D01*
X158296684Y-119999999D01*
X120296685Y-119999999D01*
X120296685Y-106250000D01*
X131628315Y-88500000D02*
X151371684Y-88500000D01*
X151371684Y-104999999D01*
X131628315Y-104999999D01*
X131628315Y-88500000D01*
X151371683Y-88500001D02*
X170871685Y-88500001D01*
X170871685Y-105000000D01*
X151371683Y-105000000D01*
X151371683Y-88500001D01*
D11*
X128619048Y-69759875D02*
X128619048Y-70569398D01*
X128619048Y-70569398D02*
X128666667Y-70664636D01*
X128666667Y-70664636D02*
X128714286Y-70712256D01*
X128714286Y-70712256D02*
X128809524Y-70759875D01*
X128809524Y-70759875D02*
X129000000Y-70759875D01*
X129000000Y-70759875D02*
X129095238Y-70712256D01*
X129095238Y-70712256D02*
X129142857Y-70664636D01*
X129142857Y-70664636D02*
X129190476Y-70569398D01*
X129190476Y-70569398D02*
X129190476Y-69759875D01*
X129619048Y-70712256D02*
X129761905Y-70759875D01*
X129761905Y-70759875D02*
X130000000Y-70759875D01*
X130000000Y-70759875D02*
X130095238Y-70712256D01*
X130095238Y-70712256D02*
X130142857Y-70664636D01*
X130142857Y-70664636D02*
X130190476Y-70569398D01*
X130190476Y-70569398D02*
X130190476Y-70474160D01*
X130190476Y-70474160D02*
X130142857Y-70378922D01*
X130142857Y-70378922D02*
X130095238Y-70331303D01*
X130095238Y-70331303D02*
X130000000Y-70283684D01*
X130000000Y-70283684D02*
X129809524Y-70236065D01*
X129809524Y-70236065D02*
X129714286Y-70188446D01*
X129714286Y-70188446D02*
X129666667Y-70140827D01*
X129666667Y-70140827D02*
X129619048Y-70045589D01*
X129619048Y-70045589D02*
X129619048Y-69950351D01*
X129619048Y-69950351D02*
X129666667Y-69855113D01*
X129666667Y-69855113D02*
X129714286Y-69807494D01*
X129714286Y-69807494D02*
X129809524Y-69759875D01*
X129809524Y-69759875D02*
X130047619Y-69759875D01*
X130047619Y-69759875D02*
X130190476Y-69807494D01*
X130952381Y-70236065D02*
X131095238Y-70283684D01*
X131095238Y-70283684D02*
X131142857Y-70331303D01*
X131142857Y-70331303D02*
X131190476Y-70426541D01*
X131190476Y-70426541D02*
X131190476Y-70569398D01*
X131190476Y-70569398D02*
X131142857Y-70664636D01*
X131142857Y-70664636D02*
X131095238Y-70712256D01*
X131095238Y-70712256D02*
X131000000Y-70759875D01*
X131000000Y-70759875D02*
X130619048Y-70759875D01*
X130619048Y-70759875D02*
X130619048Y-69759875D01*
X130619048Y-69759875D02*
X130952381Y-69759875D01*
X130952381Y-69759875D02*
X131047619Y-69807494D01*
X131047619Y-69807494D02*
X131095238Y-69855113D01*
X131095238Y-69855113D02*
X131142857Y-69950351D01*
X131142857Y-69950351D02*
X131142857Y-70045589D01*
X131142857Y-70045589D02*
X131095238Y-70140827D01*
X131095238Y-70140827D02*
X131047619Y-70188446D01*
X131047619Y-70188446D02*
X130952381Y-70236065D01*
X130952381Y-70236065D02*
X130619048Y-70236065D01*
X131619048Y-70378922D02*
X132380953Y-70378922D01*
X133428571Y-70664636D02*
X133380952Y-70712256D01*
X133380952Y-70712256D02*
X133238095Y-70759875D01*
X133238095Y-70759875D02*
X133142857Y-70759875D01*
X133142857Y-70759875D02*
X133000000Y-70712256D01*
X133000000Y-70712256D02*
X132904762Y-70617017D01*
X132904762Y-70617017D02*
X132857143Y-70521779D01*
X132857143Y-70521779D02*
X132809524Y-70331303D01*
X132809524Y-70331303D02*
X132809524Y-70188446D01*
X132809524Y-70188446D02*
X132857143Y-69997970D01*
X132857143Y-69997970D02*
X132904762Y-69902732D01*
X132904762Y-69902732D02*
X133000000Y-69807494D01*
X133000000Y-69807494D02*
X133142857Y-69759875D01*
X133142857Y-69759875D02*
X133238095Y-69759875D01*
X133238095Y-69759875D02*
X133380952Y-69807494D01*
X133380952Y-69807494D02*
X133428571Y-69855113D01*
X131000000Y-72369819D02*
X131000000Y-71607914D01*
X130809524Y-71798390D02*
X131000000Y-71607914D01*
X131000000Y-71607914D02*
X131190476Y-71798390D01*
X129476191Y-84759875D02*
X130142857Y-85759875D01*
X130142857Y-84759875D02*
X129476191Y-85759875D01*
X130523810Y-85759875D02*
X130523810Y-84759875D01*
X130952381Y-85474160D02*
X131428571Y-85474160D01*
X130857143Y-85759875D02*
X131190476Y-84759875D01*
X131190476Y-84759875D02*
X131523809Y-85759875D01*
X132047619Y-84759875D02*
X132238095Y-84759875D01*
X132238095Y-84759875D02*
X132333333Y-84807494D01*
X132333333Y-84807494D02*
X132428571Y-84902732D01*
X132428571Y-84902732D02*
X132476190Y-85093208D01*
X132476190Y-85093208D02*
X132476190Y-85426541D01*
X132476190Y-85426541D02*
X132428571Y-85617017D01*
X132428571Y-85617017D02*
X132333333Y-85712256D01*
X132333333Y-85712256D02*
X132238095Y-85759875D01*
X132238095Y-85759875D02*
X132047619Y-85759875D01*
X132047619Y-85759875D02*
X131952381Y-85712256D01*
X131952381Y-85712256D02*
X131857143Y-85617017D01*
X131857143Y-85617017D02*
X131809524Y-85426541D01*
X131809524Y-85426541D02*
X131809524Y-85093208D01*
X131809524Y-85093208D02*
X131857143Y-84902732D01*
X131857143Y-84902732D02*
X131952381Y-84807494D01*
X131952381Y-84807494D02*
X132047619Y-84759875D01*
X127261905Y-86846009D02*
X127595238Y-86846009D01*
X127738095Y-87369819D02*
X127261905Y-87369819D01*
X127261905Y-87369819D02*
X127261905Y-86369819D01*
X127261905Y-86369819D02*
X127738095Y-86369819D01*
X128119048Y-87322200D02*
X128261905Y-87369819D01*
X128261905Y-87369819D02*
X128500000Y-87369819D01*
X128500000Y-87369819D02*
X128595238Y-87322200D01*
X128595238Y-87322200D02*
X128642857Y-87274580D01*
X128642857Y-87274580D02*
X128690476Y-87179342D01*
X128690476Y-87179342D02*
X128690476Y-87084104D01*
X128690476Y-87084104D02*
X128642857Y-86988866D01*
X128642857Y-86988866D02*
X128595238Y-86941247D01*
X128595238Y-86941247D02*
X128500000Y-86893628D01*
X128500000Y-86893628D02*
X128309524Y-86846009D01*
X128309524Y-86846009D02*
X128214286Y-86798390D01*
X128214286Y-86798390D02*
X128166667Y-86750771D01*
X128166667Y-86750771D02*
X128119048Y-86655533D01*
X128119048Y-86655533D02*
X128119048Y-86560295D01*
X128119048Y-86560295D02*
X128166667Y-86465057D01*
X128166667Y-86465057D02*
X128214286Y-86417438D01*
X128214286Y-86417438D02*
X128309524Y-86369819D01*
X128309524Y-86369819D02*
X128547619Y-86369819D01*
X128547619Y-86369819D02*
X128690476Y-86417438D01*
X129119048Y-87369819D02*
X129119048Y-86369819D01*
X129119048Y-86369819D02*
X129500000Y-86369819D01*
X129500000Y-86369819D02*
X129595238Y-86417438D01*
X129595238Y-86417438D02*
X129642857Y-86465057D01*
X129642857Y-86465057D02*
X129690476Y-86560295D01*
X129690476Y-86560295D02*
X129690476Y-86703152D01*
X129690476Y-86703152D02*
X129642857Y-86798390D01*
X129642857Y-86798390D02*
X129595238Y-86846009D01*
X129595238Y-86846009D02*
X129500000Y-86893628D01*
X129500000Y-86893628D02*
X129119048Y-86893628D01*
X130023810Y-86369819D02*
X130642857Y-86369819D01*
X130642857Y-86369819D02*
X130309524Y-86750771D01*
X130309524Y-86750771D02*
X130452381Y-86750771D01*
X130452381Y-86750771D02*
X130547619Y-86798390D01*
X130547619Y-86798390D02*
X130595238Y-86846009D01*
X130595238Y-86846009D02*
X130642857Y-86941247D01*
X130642857Y-86941247D02*
X130642857Y-87179342D01*
X130642857Y-87179342D02*
X130595238Y-87274580D01*
X130595238Y-87274580D02*
X130547619Y-87322200D01*
X130547619Y-87322200D02*
X130452381Y-87369819D01*
X130452381Y-87369819D02*
X130166667Y-87369819D01*
X130166667Y-87369819D02*
X130071429Y-87322200D01*
X130071429Y-87322200D02*
X130023810Y-87274580D01*
X131023810Y-86465057D02*
X131071429Y-86417438D01*
X131071429Y-86417438D02*
X131166667Y-86369819D01*
X131166667Y-86369819D02*
X131404762Y-86369819D01*
X131404762Y-86369819D02*
X131500000Y-86417438D01*
X131500000Y-86417438D02*
X131547619Y-86465057D01*
X131547619Y-86465057D02*
X131595238Y-86560295D01*
X131595238Y-86560295D02*
X131595238Y-86655533D01*
X131595238Y-86655533D02*
X131547619Y-86798390D01*
X131547619Y-86798390D02*
X130976191Y-87369819D01*
X130976191Y-87369819D02*
X131595238Y-87369819D01*
X132023810Y-86988866D02*
X132785715Y-86988866D01*
X133833333Y-87274580D02*
X133785714Y-87322200D01*
X133785714Y-87322200D02*
X133642857Y-87369819D01*
X133642857Y-87369819D02*
X133547619Y-87369819D01*
X133547619Y-87369819D02*
X133404762Y-87322200D01*
X133404762Y-87322200D02*
X133309524Y-87226961D01*
X133309524Y-87226961D02*
X133261905Y-87131723D01*
X133261905Y-87131723D02*
X133214286Y-86941247D01*
X133214286Y-86941247D02*
X133214286Y-86798390D01*
X133214286Y-86798390D02*
X133261905Y-86607914D01*
X133261905Y-86607914D02*
X133309524Y-86512676D01*
X133309524Y-86512676D02*
X133404762Y-86417438D01*
X133404762Y-86417438D02*
X133547619Y-86369819D01*
X133547619Y-86369819D02*
X133642857Y-86369819D01*
X133642857Y-86369819D02*
X133785714Y-86417438D01*
X133785714Y-86417438D02*
X133833333Y-86465057D01*
X134690476Y-86369819D02*
X134500000Y-86369819D01*
X134500000Y-86369819D02*
X134404762Y-86417438D01*
X134404762Y-86417438D02*
X134357143Y-86465057D01*
X134357143Y-86465057D02*
X134261905Y-86607914D01*
X134261905Y-86607914D02*
X134214286Y-86798390D01*
X134214286Y-86798390D02*
X134214286Y-87179342D01*
X134214286Y-87179342D02*
X134261905Y-87274580D01*
X134261905Y-87274580D02*
X134309524Y-87322200D01*
X134309524Y-87322200D02*
X134404762Y-87369819D01*
X134404762Y-87369819D02*
X134595238Y-87369819D01*
X134595238Y-87369819D02*
X134690476Y-87322200D01*
X134690476Y-87322200D02*
X134738095Y-87274580D01*
X134738095Y-87274580D02*
X134785714Y-87179342D01*
X134785714Y-87179342D02*
X134785714Y-86941247D01*
X134785714Y-86941247D02*
X134738095Y-86846009D01*
X134738095Y-86846009D02*
X134690476Y-86798390D01*
X134690476Y-86798390D02*
X134595238Y-86750771D01*
X134595238Y-86750771D02*
X134404762Y-86750771D01*
X134404762Y-86750771D02*
X134309524Y-86798390D01*
X134309524Y-86798390D02*
X134261905Y-86846009D01*
X134261905Y-86846009D02*
X134214286Y-86941247D01*
X160235901Y-119210839D02*
X160235901Y-118734649D01*
X160521616Y-119306077D02*
X159521616Y-118972744D01*
X159521616Y-118972744D02*
X160521616Y-118639411D01*
X159521616Y-118306077D02*
X160331139Y-118306077D01*
X160331139Y-118306077D02*
X160426377Y-118258458D01*
X160426377Y-118258458D02*
X160473997Y-118210839D01*
X160473997Y-118210839D02*
X160521616Y-118115601D01*
X160521616Y-118115601D02*
X160521616Y-117925125D01*
X160521616Y-117925125D02*
X160473997Y-117829887D01*
X160473997Y-117829887D02*
X160426377Y-117782268D01*
X160426377Y-117782268D02*
X160331139Y-117734649D01*
X160331139Y-117734649D02*
X159521616Y-117734649D01*
X159521616Y-117401315D02*
X159521616Y-116829887D01*
X160521616Y-117115601D02*
X159521616Y-117115601D01*
X159521616Y-116306077D02*
X159521616Y-116115601D01*
X159521616Y-116115601D02*
X159569235Y-116020363D01*
X159569235Y-116020363D02*
X159664473Y-115925125D01*
X159664473Y-115925125D02*
X159854949Y-115877506D01*
X159854949Y-115877506D02*
X160188282Y-115877506D01*
X160188282Y-115877506D02*
X160378758Y-115925125D01*
X160378758Y-115925125D02*
X160473997Y-116020363D01*
X160473997Y-116020363D02*
X160521616Y-116115601D01*
X160521616Y-116115601D02*
X160521616Y-116306077D01*
X160521616Y-116306077D02*
X160473997Y-116401315D01*
X160473997Y-116401315D02*
X160378758Y-116496553D01*
X160378758Y-116496553D02*
X160188282Y-116544172D01*
X160188282Y-116544172D02*
X159854949Y-116544172D01*
X159854949Y-116544172D02*
X159664473Y-116496553D01*
X159664473Y-116496553D02*
X159569235Y-116401315D01*
X159569235Y-116401315D02*
X159521616Y-116306077D01*
X160521616Y-115448934D02*
X159521616Y-115448934D01*
X159521616Y-115448934D02*
X160235901Y-115115601D01*
X160235901Y-115115601D02*
X159521616Y-114782268D01*
X159521616Y-114782268D02*
X160521616Y-114782268D01*
X160235901Y-114353696D02*
X160235901Y-113877506D01*
X160521616Y-114448934D02*
X159521616Y-114115601D01*
X159521616Y-114115601D02*
X160521616Y-113782268D01*
X159521616Y-113591791D02*
X159521616Y-113020363D01*
X160521616Y-113306077D02*
X159521616Y-113306077D01*
X159521616Y-112496553D02*
X159521616Y-112306077D01*
X159521616Y-112306077D02*
X159569235Y-112210839D01*
X159569235Y-112210839D02*
X159664473Y-112115601D01*
X159664473Y-112115601D02*
X159854949Y-112067982D01*
X159854949Y-112067982D02*
X160188282Y-112067982D01*
X160188282Y-112067982D02*
X160378758Y-112115601D01*
X160378758Y-112115601D02*
X160473997Y-112210839D01*
X160473997Y-112210839D02*
X160521616Y-112306077D01*
X160521616Y-112306077D02*
X160521616Y-112496553D01*
X160521616Y-112496553D02*
X160473997Y-112591791D01*
X160473997Y-112591791D02*
X160378758Y-112687029D01*
X160378758Y-112687029D02*
X160188282Y-112734648D01*
X160188282Y-112734648D02*
X159854949Y-112734648D01*
X159854949Y-112734648D02*
X159664473Y-112687029D01*
X159664473Y-112687029D02*
X159569235Y-112591791D01*
X159569235Y-112591791D02*
X159521616Y-112496553D01*
X159521616Y-111639410D02*
X160331139Y-111639410D01*
X160331139Y-111639410D02*
X160426377Y-111591791D01*
X160426377Y-111591791D02*
X160473997Y-111544172D01*
X160473997Y-111544172D02*
X160521616Y-111448934D01*
X160521616Y-111448934D02*
X160521616Y-111258458D01*
X160521616Y-111258458D02*
X160473997Y-111163220D01*
X160473997Y-111163220D02*
X160426377Y-111115601D01*
X160426377Y-111115601D02*
X160331139Y-111067982D01*
X160331139Y-111067982D02*
X159521616Y-111067982D01*
X160473997Y-110639410D02*
X160521616Y-110496553D01*
X160521616Y-110496553D02*
X160521616Y-110258458D01*
X160521616Y-110258458D02*
X160473997Y-110163220D01*
X160473997Y-110163220D02*
X160426377Y-110115601D01*
X160426377Y-110115601D02*
X160331139Y-110067982D01*
X160331139Y-110067982D02*
X160235901Y-110067982D01*
X160235901Y-110067982D02*
X160140663Y-110115601D01*
X160140663Y-110115601D02*
X160093044Y-110163220D01*
X160093044Y-110163220D02*
X160045425Y-110258458D01*
X160045425Y-110258458D02*
X159997806Y-110448934D01*
X159997806Y-110448934D02*
X159950187Y-110544172D01*
X159950187Y-110544172D02*
X159902568Y-110591791D01*
X159902568Y-110591791D02*
X159807330Y-110639410D01*
X159807330Y-110639410D02*
X159712092Y-110639410D01*
X159712092Y-110639410D02*
X159616854Y-110591791D01*
X159616854Y-110591791D02*
X159569235Y-110544172D01*
X159569235Y-110544172D02*
X159521616Y-110448934D01*
X159521616Y-110448934D02*
X159521616Y-110210839D01*
X159521616Y-110210839D02*
X159569235Y-110067982D01*
X160426377Y-109639410D02*
X160473997Y-109591791D01*
X160473997Y-109591791D02*
X160521616Y-109639410D01*
X160521616Y-109639410D02*
X160473997Y-109687029D01*
X160473997Y-109687029D02*
X160426377Y-109639410D01*
X160426377Y-109639410D02*
X160521616Y-109639410D01*
X160521616Y-109163220D02*
X159521616Y-109163220D01*
X159521616Y-108496554D02*
X159521616Y-108306078D01*
X159521616Y-108306078D02*
X159569235Y-108210840D01*
X159569235Y-108210840D02*
X159664473Y-108115602D01*
X159664473Y-108115602D02*
X159854949Y-108067983D01*
X159854949Y-108067983D02*
X160188282Y-108067983D01*
X160188282Y-108067983D02*
X160378758Y-108115602D01*
X160378758Y-108115602D02*
X160473997Y-108210840D01*
X160473997Y-108210840D02*
X160521616Y-108306078D01*
X160521616Y-108306078D02*
X160521616Y-108496554D01*
X160521616Y-108496554D02*
X160473997Y-108591792D01*
X160473997Y-108591792D02*
X160378758Y-108687030D01*
X160378758Y-108687030D02*
X160188282Y-108734649D01*
X160188282Y-108734649D02*
X159854949Y-108734649D01*
X159854949Y-108734649D02*
X159664473Y-108687030D01*
X159664473Y-108687030D02*
X159569235Y-108591792D01*
X159569235Y-108591792D02*
X159521616Y-108496554D01*
X161131560Y-119306077D02*
X161131560Y-118734649D01*
X162131560Y-119020363D02*
X161131560Y-119020363D01*
X162131560Y-117877506D02*
X162131560Y-118448934D01*
X162131560Y-118163220D02*
X161131560Y-118163220D01*
X161131560Y-118163220D02*
X161274417Y-118258458D01*
X161274417Y-118258458D02*
X161369655Y-118353696D01*
X161369655Y-118353696D02*
X161417274Y-118448934D01*
X162131560Y-117448934D02*
X161131560Y-117448934D01*
X161131560Y-117448934D02*
X162131560Y-116877506D01*
X162131560Y-116877506D02*
X161131560Y-116877506D01*
X162083941Y-115687029D02*
X162131560Y-115544172D01*
X162131560Y-115544172D02*
X162131560Y-115306077D01*
X162131560Y-115306077D02*
X162083941Y-115210839D01*
X162083941Y-115210839D02*
X162036321Y-115163220D01*
X162036321Y-115163220D02*
X161941083Y-115115601D01*
X161941083Y-115115601D02*
X161845845Y-115115601D01*
X161845845Y-115115601D02*
X161750607Y-115163220D01*
X161750607Y-115163220D02*
X161702988Y-115210839D01*
X161702988Y-115210839D02*
X161655369Y-115306077D01*
X161655369Y-115306077D02*
X161607750Y-115496553D01*
X161607750Y-115496553D02*
X161560131Y-115591791D01*
X161560131Y-115591791D02*
X161512512Y-115639410D01*
X161512512Y-115639410D02*
X161417274Y-115687029D01*
X161417274Y-115687029D02*
X161322036Y-115687029D01*
X161322036Y-115687029D02*
X161226798Y-115639410D01*
X161226798Y-115639410D02*
X161179179Y-115591791D01*
X161179179Y-115591791D02*
X161131560Y-115496553D01*
X161131560Y-115496553D02*
X161131560Y-115258458D01*
X161131560Y-115258458D02*
X161179179Y-115115601D01*
X162131560Y-114687029D02*
X161464893Y-114687029D01*
X161560131Y-114687029D02*
X161512512Y-114639410D01*
X161512512Y-114639410D02*
X161464893Y-114544172D01*
X161464893Y-114544172D02*
X161464893Y-114401315D01*
X161464893Y-114401315D02*
X161512512Y-114306077D01*
X161512512Y-114306077D02*
X161607750Y-114258458D01*
X161607750Y-114258458D02*
X162131560Y-114258458D01*
X161607750Y-114258458D02*
X161512512Y-114210839D01*
X161512512Y-114210839D02*
X161464893Y-114115601D01*
X161464893Y-114115601D02*
X161464893Y-113972744D01*
X161464893Y-113972744D02*
X161512512Y-113877505D01*
X161512512Y-113877505D02*
X161607750Y-113829886D01*
X161607750Y-113829886D02*
X162131560Y-113829886D01*
X162131560Y-112925125D02*
X161607750Y-112925125D01*
X161607750Y-112925125D02*
X161512512Y-112972744D01*
X161512512Y-112972744D02*
X161464893Y-113067982D01*
X161464893Y-113067982D02*
X161464893Y-113258458D01*
X161464893Y-113258458D02*
X161512512Y-113353696D01*
X162083941Y-112925125D02*
X162131560Y-113020363D01*
X162131560Y-113020363D02*
X162131560Y-113258458D01*
X162131560Y-113258458D02*
X162083941Y-113353696D01*
X162083941Y-113353696D02*
X161988702Y-113401315D01*
X161988702Y-113401315D02*
X161893464Y-113401315D01*
X161893464Y-113401315D02*
X161798226Y-113353696D01*
X161798226Y-113353696D02*
X161750607Y-113258458D01*
X161750607Y-113258458D02*
X161750607Y-113020363D01*
X161750607Y-113020363D02*
X161702988Y-112925125D01*
X162131560Y-112448934D02*
X161464893Y-112448934D01*
X161655369Y-112448934D02*
X161560131Y-112401315D01*
X161560131Y-112401315D02*
X161512512Y-112353696D01*
X161512512Y-112353696D02*
X161464893Y-112258458D01*
X161464893Y-112258458D02*
X161464893Y-112163220D01*
X161464893Y-111972743D02*
X161464893Y-111591791D01*
X161131560Y-111829886D02*
X161988702Y-111829886D01*
X161988702Y-111829886D02*
X162083941Y-111782267D01*
X162083941Y-111782267D02*
X162131560Y-111687029D01*
X162131560Y-111687029D02*
X162131560Y-111591791D01*
X162131560Y-110020362D02*
X162131560Y-110496552D01*
X162131560Y-110496552D02*
X161131560Y-110496552D01*
X162131560Y-109544171D02*
X162083941Y-109639409D01*
X162083941Y-109639409D02*
X162036321Y-109687028D01*
X162036321Y-109687028D02*
X161941083Y-109734647D01*
X161941083Y-109734647D02*
X161655369Y-109734647D01*
X161655369Y-109734647D02*
X161560131Y-109687028D01*
X161560131Y-109687028D02*
X161512512Y-109639409D01*
X161512512Y-109639409D02*
X161464893Y-109544171D01*
X161464893Y-109544171D02*
X161464893Y-109401314D01*
X161464893Y-109401314D02*
X161512512Y-109306076D01*
X161512512Y-109306076D02*
X161560131Y-109258457D01*
X161560131Y-109258457D02*
X161655369Y-109210838D01*
X161655369Y-109210838D02*
X161941083Y-109210838D01*
X161941083Y-109210838D02*
X162036321Y-109258457D01*
X162036321Y-109258457D02*
X162083941Y-109306076D01*
X162083941Y-109306076D02*
X162131560Y-109401314D01*
X162131560Y-109401314D02*
X162131560Y-109544171D01*
X162083941Y-108353695D02*
X162131560Y-108448933D01*
X162131560Y-108448933D02*
X162131560Y-108639409D01*
X162131560Y-108639409D02*
X162083941Y-108734647D01*
X162083941Y-108734647D02*
X162036321Y-108782266D01*
X162036321Y-108782266D02*
X161941083Y-108829885D01*
X161941083Y-108829885D02*
X161655369Y-108829885D01*
X161655369Y-108829885D02*
X161560131Y-108782266D01*
X161560131Y-108782266D02*
X161512512Y-108734647D01*
X161512512Y-108734647D02*
X161464893Y-108639409D01*
X161464893Y-108639409D02*
X161464893Y-108448933D01*
X161464893Y-108448933D02*
X161512512Y-108353695D01*
X162131560Y-107925123D02*
X161131560Y-107925123D01*
X161750607Y-107829885D02*
X162131560Y-107544171D01*
X161464893Y-107544171D02*
X161845845Y-107925123D01*
X162741504Y-119306077D02*
X163741504Y-118972744D01*
X163741504Y-118972744D02*
X162741504Y-118639411D01*
X163693885Y-117925125D02*
X163741504Y-118020363D01*
X163741504Y-118020363D02*
X163741504Y-118210839D01*
X163741504Y-118210839D02*
X163693885Y-118306077D01*
X163693885Y-118306077D02*
X163598646Y-118353696D01*
X163598646Y-118353696D02*
X163217694Y-118353696D01*
X163217694Y-118353696D02*
X163122456Y-118306077D01*
X163122456Y-118306077D02*
X163074837Y-118210839D01*
X163074837Y-118210839D02*
X163074837Y-118020363D01*
X163074837Y-118020363D02*
X163122456Y-117925125D01*
X163122456Y-117925125D02*
X163217694Y-117877506D01*
X163217694Y-117877506D02*
X163312932Y-117877506D01*
X163312932Y-117877506D02*
X163408170Y-118353696D01*
X163741504Y-117448934D02*
X163074837Y-117448934D01*
X163265313Y-117448934D02*
X163170075Y-117401315D01*
X163170075Y-117401315D02*
X163122456Y-117353696D01*
X163122456Y-117353696D02*
X163074837Y-117258458D01*
X163074837Y-117258458D02*
X163074837Y-117163220D01*
X163693885Y-116877505D02*
X163741504Y-116782267D01*
X163741504Y-116782267D02*
X163741504Y-116591791D01*
X163741504Y-116591791D02*
X163693885Y-116496553D01*
X163693885Y-116496553D02*
X163598646Y-116448934D01*
X163598646Y-116448934D02*
X163551027Y-116448934D01*
X163551027Y-116448934D02*
X163455789Y-116496553D01*
X163455789Y-116496553D02*
X163408170Y-116591791D01*
X163408170Y-116591791D02*
X163408170Y-116734648D01*
X163408170Y-116734648D02*
X163360551Y-116829886D01*
X163360551Y-116829886D02*
X163265313Y-116877505D01*
X163265313Y-116877505D02*
X163217694Y-116877505D01*
X163217694Y-116877505D02*
X163122456Y-116829886D01*
X163122456Y-116829886D02*
X163074837Y-116734648D01*
X163074837Y-116734648D02*
X163074837Y-116591791D01*
X163074837Y-116591791D02*
X163122456Y-116496553D01*
X163741504Y-116020362D02*
X163074837Y-116020362D01*
X162741504Y-116020362D02*
X162789123Y-116067981D01*
X162789123Y-116067981D02*
X162836742Y-116020362D01*
X162836742Y-116020362D02*
X162789123Y-115972743D01*
X162789123Y-115972743D02*
X162741504Y-116020362D01*
X162741504Y-116020362D02*
X162836742Y-116020362D01*
X163741504Y-115401315D02*
X163693885Y-115496553D01*
X163693885Y-115496553D02*
X163646265Y-115544172D01*
X163646265Y-115544172D02*
X163551027Y-115591791D01*
X163551027Y-115591791D02*
X163265313Y-115591791D01*
X163265313Y-115591791D02*
X163170075Y-115544172D01*
X163170075Y-115544172D02*
X163122456Y-115496553D01*
X163122456Y-115496553D02*
X163074837Y-115401315D01*
X163074837Y-115401315D02*
X163074837Y-115258458D01*
X163074837Y-115258458D02*
X163122456Y-115163220D01*
X163122456Y-115163220D02*
X163170075Y-115115601D01*
X163170075Y-115115601D02*
X163265313Y-115067982D01*
X163265313Y-115067982D02*
X163551027Y-115067982D01*
X163551027Y-115067982D02*
X163646265Y-115115601D01*
X163646265Y-115115601D02*
X163693885Y-115163220D01*
X163693885Y-115163220D02*
X163741504Y-115258458D01*
X163741504Y-115258458D02*
X163741504Y-115401315D01*
X163074837Y-114639410D02*
X163741504Y-114639410D01*
X163170075Y-114639410D02*
X163122456Y-114591791D01*
X163122456Y-114591791D02*
X163074837Y-114496553D01*
X163074837Y-114496553D02*
X163074837Y-114353696D01*
X163074837Y-114353696D02*
X163122456Y-114258458D01*
X163122456Y-114258458D02*
X163217694Y-114210839D01*
X163217694Y-114210839D02*
X163741504Y-114210839D01*
X163741504Y-112448934D02*
X163741504Y-113020362D01*
X163741504Y-112734648D02*
X162741504Y-112734648D01*
X162741504Y-112734648D02*
X162884361Y-112829886D01*
X162884361Y-112829886D02*
X162979599Y-112925124D01*
X162979599Y-112925124D02*
X163027218Y-113020362D01*
X163646265Y-112020362D02*
X163693885Y-111972743D01*
X163693885Y-111972743D02*
X163741504Y-112020362D01*
X163741504Y-112020362D02*
X163693885Y-112067981D01*
X163693885Y-112067981D02*
X163646265Y-112020362D01*
X163646265Y-112020362D02*
X163741504Y-112020362D01*
X162741504Y-111353696D02*
X162741504Y-111258458D01*
X162741504Y-111258458D02*
X162789123Y-111163220D01*
X162789123Y-111163220D02*
X162836742Y-111115601D01*
X162836742Y-111115601D02*
X162931980Y-111067982D01*
X162931980Y-111067982D02*
X163122456Y-111020363D01*
X163122456Y-111020363D02*
X163360551Y-111020363D01*
X163360551Y-111020363D02*
X163551027Y-111067982D01*
X163551027Y-111067982D02*
X163646265Y-111115601D01*
X163646265Y-111115601D02*
X163693885Y-111163220D01*
X163693885Y-111163220D02*
X163741504Y-111258458D01*
X163741504Y-111258458D02*
X163741504Y-111353696D01*
X163741504Y-111353696D02*
X163693885Y-111448934D01*
X163693885Y-111448934D02*
X163646265Y-111496553D01*
X163646265Y-111496553D02*
X163551027Y-111544172D01*
X163551027Y-111544172D02*
X163360551Y-111591791D01*
X163360551Y-111591791D02*
X163122456Y-111591791D01*
X163122456Y-111591791D02*
X162931980Y-111544172D01*
X162931980Y-111544172D02*
X162836742Y-111496553D01*
X162836742Y-111496553D02*
X162789123Y-111448934D01*
X162789123Y-111448934D02*
X162741504Y-111353696D01*
X146954246Y-78860588D02*
X147001865Y-78765350D01*
X147001865Y-78765350D02*
X147001865Y-78622493D01*
X147001865Y-78622493D02*
X146954246Y-78479636D01*
X146954246Y-78479636D02*
X146859008Y-78384398D01*
X146859008Y-78384398D02*
X146763770Y-78336779D01*
X146763770Y-78336779D02*
X146573294Y-78289160D01*
X146573294Y-78289160D02*
X146430437Y-78289160D01*
X146430437Y-78289160D02*
X146239961Y-78336779D01*
X146239961Y-78336779D02*
X146144723Y-78384398D01*
X146144723Y-78384398D02*
X146049485Y-78479636D01*
X146049485Y-78479636D02*
X146001865Y-78622493D01*
X146001865Y-78622493D02*
X146001865Y-78717731D01*
X146001865Y-78717731D02*
X146049485Y-78860588D01*
X146049485Y-78860588D02*
X146097104Y-78908207D01*
X146097104Y-78908207D02*
X146430437Y-78908207D01*
X146430437Y-78908207D02*
X146430437Y-78717731D01*
X146001865Y-79336779D02*
X147001865Y-79336779D01*
X147001865Y-79336779D02*
X146001865Y-79908207D01*
X146001865Y-79908207D02*
X147001865Y-79908207D01*
X146001865Y-80384398D02*
X147001865Y-80384398D01*
X147001865Y-80384398D02*
X147001865Y-80622493D01*
X147001865Y-80622493D02*
X146954246Y-80765350D01*
X146954246Y-80765350D02*
X146859008Y-80860588D01*
X146859008Y-80860588D02*
X146763770Y-80908207D01*
X146763770Y-80908207D02*
X146573294Y-80955826D01*
X146573294Y-80955826D02*
X146430437Y-80955826D01*
X146430437Y-80955826D02*
X146239961Y-80908207D01*
X146239961Y-80908207D02*
X146144723Y-80860588D01*
X146144723Y-80860588D02*
X146049485Y-80765350D01*
X146049485Y-80765350D02*
X146001865Y-80622493D01*
X146001865Y-80622493D02*
X146001865Y-80384398D01*
X152001865Y-78241541D02*
X151001865Y-78479636D01*
X151001865Y-78479636D02*
X151716151Y-78670112D01*
X151716151Y-78670112D02*
X151001865Y-78860588D01*
X151001865Y-78860588D02*
X152001865Y-79098684D01*
X152001865Y-79336779D02*
X152001865Y-79908207D01*
X151001865Y-79622493D02*
X152001865Y-79622493D01*
X150906627Y-80003446D02*
X150906627Y-80765350D01*
X151001865Y-81003446D02*
X152001865Y-81003446D01*
X152001865Y-81003446D02*
X152001865Y-81241541D01*
X152001865Y-81241541D02*
X151954246Y-81384398D01*
X151954246Y-81384398D02*
X151859008Y-81479636D01*
X151859008Y-81479636D02*
X151763770Y-81527255D01*
X151763770Y-81527255D02*
X151573294Y-81574874D01*
X151573294Y-81574874D02*
X151430437Y-81574874D01*
X151430437Y-81574874D02*
X151239961Y-81527255D01*
X151239961Y-81527255D02*
X151144723Y-81479636D01*
X151144723Y-81479636D02*
X151049485Y-81384398D01*
X151049485Y-81384398D02*
X151001865Y-81241541D01*
X151001865Y-81241541D02*
X151001865Y-81003446D01*
X151954246Y-82527255D02*
X152001865Y-82432017D01*
X152001865Y-82432017D02*
X152001865Y-82289160D01*
X152001865Y-82289160D02*
X151954246Y-82146303D01*
X151954246Y-82146303D02*
X151859008Y-82051065D01*
X151859008Y-82051065D02*
X151763770Y-82003446D01*
X151763770Y-82003446D02*
X151573294Y-81955827D01*
X151573294Y-81955827D02*
X151430437Y-81955827D01*
X151430437Y-81955827D02*
X151239961Y-82003446D01*
X151239961Y-82003446D02*
X151144723Y-82051065D01*
X151144723Y-82051065D02*
X151049485Y-82146303D01*
X151049485Y-82146303D02*
X151001865Y-82289160D01*
X151001865Y-82289160D02*
X151001865Y-82384398D01*
X151001865Y-82384398D02*
X151049485Y-82527255D01*
X151049485Y-82527255D02*
X151097104Y-82574874D01*
X151097104Y-82574874D02*
X151430437Y-82574874D01*
X151430437Y-82574874D02*
X151430437Y-82384398D01*
X157501865Y-78241541D02*
X156501865Y-78479636D01*
X156501865Y-78479636D02*
X157216151Y-78670112D01*
X157216151Y-78670112D02*
X156501865Y-78860588D01*
X156501865Y-78860588D02*
X157501865Y-79098684D01*
X157501865Y-79336779D02*
X157501865Y-79908207D01*
X156501865Y-79622493D02*
X157501865Y-79622493D01*
X156406627Y-80003446D02*
X156406627Y-80765350D01*
X157025675Y-81336779D02*
X156978056Y-81479636D01*
X156978056Y-81479636D02*
X156930437Y-81527255D01*
X156930437Y-81527255D02*
X156835199Y-81574874D01*
X156835199Y-81574874D02*
X156692342Y-81574874D01*
X156692342Y-81574874D02*
X156597104Y-81527255D01*
X156597104Y-81527255D02*
X156549485Y-81479636D01*
X156549485Y-81479636D02*
X156501865Y-81384398D01*
X156501865Y-81384398D02*
X156501865Y-81003446D01*
X156501865Y-81003446D02*
X157501865Y-81003446D01*
X157501865Y-81003446D02*
X157501865Y-81336779D01*
X157501865Y-81336779D02*
X157454246Y-81432017D01*
X157454246Y-81432017D02*
X157406627Y-81479636D01*
X157406627Y-81479636D02*
X157311389Y-81527255D01*
X157311389Y-81527255D02*
X157216151Y-81527255D01*
X157216151Y-81527255D02*
X157120913Y-81479636D01*
X157120913Y-81479636D02*
X157073294Y-81432017D01*
X157073294Y-81432017D02*
X157025675Y-81336779D01*
X157025675Y-81336779D02*
X157025675Y-81003446D01*
X156501865Y-82003446D02*
X157501865Y-82003446D01*
X156501865Y-82574874D02*
X157073294Y-82146303D01*
X157501865Y-82574874D02*
X156930437Y-82003446D01*
X162501865Y-78241541D02*
X161501865Y-78479636D01*
X161501865Y-78479636D02*
X162216151Y-78670112D01*
X162216151Y-78670112D02*
X161501865Y-78860588D01*
X161501865Y-78860588D02*
X162501865Y-79098684D01*
X162501865Y-79336779D02*
X162501865Y-79908207D01*
X161501865Y-79622493D02*
X162501865Y-79622493D01*
X161406627Y-80003446D02*
X161406627Y-80765350D01*
X161501865Y-81574874D02*
X161978056Y-81241541D01*
X161501865Y-81003446D02*
X162501865Y-81003446D01*
X162501865Y-81003446D02*
X162501865Y-81384398D01*
X162501865Y-81384398D02*
X162454246Y-81479636D01*
X162454246Y-81479636D02*
X162406627Y-81527255D01*
X162406627Y-81527255D02*
X162311389Y-81574874D01*
X162311389Y-81574874D02*
X162168532Y-81574874D01*
X162168532Y-81574874D02*
X162073294Y-81527255D01*
X162073294Y-81527255D02*
X162025675Y-81479636D01*
X162025675Y-81479636D02*
X161978056Y-81384398D01*
X161978056Y-81384398D02*
X161978056Y-81003446D01*
X161501865Y-82003446D02*
X162501865Y-82003446D01*
X162501865Y-82003446D02*
X162501865Y-82241541D01*
X162501865Y-82241541D02*
X162454246Y-82384398D01*
X162454246Y-82384398D02*
X162359008Y-82479636D01*
X162359008Y-82479636D02*
X162263770Y-82527255D01*
X162263770Y-82527255D02*
X162073294Y-82574874D01*
X162073294Y-82574874D02*
X161930437Y-82574874D01*
X161930437Y-82574874D02*
X161739961Y-82527255D01*
X161739961Y-82527255D02*
X161644723Y-82479636D01*
X161644723Y-82479636D02*
X161549485Y-82384398D01*
X161549485Y-82384398D02*
X161501865Y-82241541D01*
X161501865Y-82241541D02*
X161501865Y-82003446D01*
X167501865Y-78241541D02*
X166501865Y-78479636D01*
X166501865Y-78479636D02*
X167216151Y-78670112D01*
X167216151Y-78670112D02*
X166501865Y-78860588D01*
X166501865Y-78860588D02*
X167501865Y-79098684D01*
X167501865Y-79336779D02*
X167501865Y-79908207D01*
X166501865Y-79622493D02*
X167501865Y-79622493D01*
X166406627Y-80003446D02*
X166406627Y-80765350D01*
X166978056Y-81193922D02*
X166501865Y-81193922D01*
X167501865Y-80860589D02*
X166978056Y-81193922D01*
X166978056Y-81193922D02*
X167501865Y-81527255D01*
X166501865Y-82336779D02*
X166501865Y-81860589D01*
X166501865Y-81860589D02*
X167501865Y-81860589D01*
D12*
X146131396Y-84864619D02*
X146464729Y-85864619D01*
X146464729Y-85864619D02*
X146798062Y-84864619D01*
X147131396Y-85340809D02*
X147464729Y-85340809D01*
X147607586Y-85864619D02*
X147131396Y-85864619D01*
X147131396Y-85864619D02*
X147131396Y-84864619D01*
X147131396Y-84864619D02*
X147607586Y-84864619D01*
X148607586Y-85864619D02*
X148274253Y-85388428D01*
X148036158Y-85864619D02*
X148036158Y-84864619D01*
X148036158Y-84864619D02*
X148417110Y-84864619D01*
X148417110Y-84864619D02*
X148512348Y-84912238D01*
X148512348Y-84912238D02*
X148559967Y-84959857D01*
X148559967Y-84959857D02*
X148607586Y-85055095D01*
X148607586Y-85055095D02*
X148607586Y-85197952D01*
X148607586Y-85197952D02*
X148559967Y-85293190D01*
X148559967Y-85293190D02*
X148512348Y-85340809D01*
X148512348Y-85340809D02*
X148417110Y-85388428D01*
X148417110Y-85388428D02*
X148036158Y-85388428D01*
X149036158Y-85864619D02*
X149036158Y-84864619D01*
X149845681Y-85340809D02*
X149512348Y-85340809D01*
X149512348Y-85864619D02*
X149512348Y-84864619D01*
X149512348Y-84864619D02*
X149988538Y-84864619D01*
X150559967Y-85388428D02*
X150559967Y-85864619D01*
X150226634Y-84864619D02*
X150559967Y-85388428D01*
X150559967Y-85388428D02*
X150893300Y-84864619D01*
X152321872Y-85340809D02*
X152464729Y-85388428D01*
X152464729Y-85388428D02*
X152512348Y-85436047D01*
X152512348Y-85436047D02*
X152559967Y-85531285D01*
X152559967Y-85531285D02*
X152559967Y-85674142D01*
X152559967Y-85674142D02*
X152512348Y-85769380D01*
X152512348Y-85769380D02*
X152464729Y-85817000D01*
X152464729Y-85817000D02*
X152369491Y-85864619D01*
X152369491Y-85864619D02*
X151988539Y-85864619D01*
X151988539Y-85864619D02*
X151988539Y-84864619D01*
X151988539Y-84864619D02*
X152321872Y-84864619D01*
X152321872Y-84864619D02*
X152417110Y-84912238D01*
X152417110Y-84912238D02*
X152464729Y-84959857D01*
X152464729Y-84959857D02*
X152512348Y-85055095D01*
X152512348Y-85055095D02*
X152512348Y-85150333D01*
X152512348Y-85150333D02*
X152464729Y-85245571D01*
X152464729Y-85245571D02*
X152417110Y-85293190D01*
X152417110Y-85293190D02*
X152321872Y-85340809D01*
X152321872Y-85340809D02*
X151988539Y-85340809D01*
X152988539Y-85340809D02*
X153321872Y-85340809D01*
X153464729Y-85864619D02*
X152988539Y-85864619D01*
X152988539Y-85864619D02*
X152988539Y-84864619D01*
X152988539Y-84864619D02*
X153464729Y-84864619D01*
X154226634Y-85340809D02*
X153893301Y-85340809D01*
X153893301Y-85864619D02*
X153893301Y-84864619D01*
X153893301Y-84864619D02*
X154369491Y-84864619D01*
X154940920Y-84864619D02*
X155131396Y-84864619D01*
X155131396Y-84864619D02*
X155226634Y-84912238D01*
X155226634Y-84912238D02*
X155321872Y-85007476D01*
X155321872Y-85007476D02*
X155369491Y-85197952D01*
X155369491Y-85197952D02*
X155369491Y-85531285D01*
X155369491Y-85531285D02*
X155321872Y-85721761D01*
X155321872Y-85721761D02*
X155226634Y-85817000D01*
X155226634Y-85817000D02*
X155131396Y-85864619D01*
X155131396Y-85864619D02*
X154940920Y-85864619D01*
X154940920Y-85864619D02*
X154845682Y-85817000D01*
X154845682Y-85817000D02*
X154750444Y-85721761D01*
X154750444Y-85721761D02*
X154702825Y-85531285D01*
X154702825Y-85531285D02*
X154702825Y-85197952D01*
X154702825Y-85197952D02*
X154750444Y-85007476D01*
X154750444Y-85007476D02*
X154845682Y-84912238D01*
X154845682Y-84912238D02*
X154940920Y-84864619D01*
X156369491Y-85864619D02*
X156036158Y-85388428D01*
X155798063Y-85864619D02*
X155798063Y-84864619D01*
X155798063Y-84864619D02*
X156179015Y-84864619D01*
X156179015Y-84864619D02*
X156274253Y-84912238D01*
X156274253Y-84912238D02*
X156321872Y-84959857D01*
X156321872Y-84959857D02*
X156369491Y-85055095D01*
X156369491Y-85055095D02*
X156369491Y-85197952D01*
X156369491Y-85197952D02*
X156321872Y-85293190D01*
X156321872Y-85293190D02*
X156274253Y-85340809D01*
X156274253Y-85340809D02*
X156179015Y-85388428D01*
X156179015Y-85388428D02*
X155798063Y-85388428D01*
X156798063Y-85340809D02*
X157131396Y-85340809D01*
X157274253Y-85864619D02*
X156798063Y-85864619D01*
X156798063Y-85864619D02*
X156798063Y-84864619D01*
X156798063Y-84864619D02*
X157274253Y-84864619D01*
X159036158Y-85769380D02*
X158988539Y-85817000D01*
X158988539Y-85817000D02*
X158845682Y-85864619D01*
X158845682Y-85864619D02*
X158750444Y-85864619D01*
X158750444Y-85864619D02*
X158607587Y-85817000D01*
X158607587Y-85817000D02*
X158512349Y-85721761D01*
X158512349Y-85721761D02*
X158464730Y-85626523D01*
X158464730Y-85626523D02*
X158417111Y-85436047D01*
X158417111Y-85436047D02*
X158417111Y-85293190D01*
X158417111Y-85293190D02*
X158464730Y-85102714D01*
X158464730Y-85102714D02*
X158512349Y-85007476D01*
X158512349Y-85007476D02*
X158607587Y-84912238D01*
X158607587Y-84912238D02*
X158750444Y-84864619D01*
X158750444Y-84864619D02*
X158845682Y-84864619D01*
X158845682Y-84864619D02*
X158988539Y-84912238D01*
X158988539Y-84912238D02*
X159036158Y-84959857D01*
X159655206Y-84864619D02*
X159845682Y-84864619D01*
X159845682Y-84864619D02*
X159940920Y-84912238D01*
X159940920Y-84912238D02*
X160036158Y-85007476D01*
X160036158Y-85007476D02*
X160083777Y-85197952D01*
X160083777Y-85197952D02*
X160083777Y-85531285D01*
X160083777Y-85531285D02*
X160036158Y-85721761D01*
X160036158Y-85721761D02*
X159940920Y-85817000D01*
X159940920Y-85817000D02*
X159845682Y-85864619D01*
X159845682Y-85864619D02*
X159655206Y-85864619D01*
X159655206Y-85864619D02*
X159559968Y-85817000D01*
X159559968Y-85817000D02*
X159464730Y-85721761D01*
X159464730Y-85721761D02*
X159417111Y-85531285D01*
X159417111Y-85531285D02*
X159417111Y-85197952D01*
X159417111Y-85197952D02*
X159464730Y-85007476D01*
X159464730Y-85007476D02*
X159559968Y-84912238D01*
X159559968Y-84912238D02*
X159655206Y-84864619D01*
X160512349Y-85864619D02*
X160512349Y-84864619D01*
X160512349Y-84864619D02*
X161083777Y-85864619D01*
X161083777Y-85864619D02*
X161083777Y-84864619D01*
X161559968Y-85864619D02*
X161559968Y-84864619D01*
X161559968Y-84864619D02*
X162131396Y-85864619D01*
X162131396Y-85864619D02*
X162131396Y-84864619D01*
X162607587Y-85340809D02*
X162940920Y-85340809D01*
X163083777Y-85864619D02*
X162607587Y-85864619D01*
X162607587Y-85864619D02*
X162607587Y-84864619D01*
X162607587Y-84864619D02*
X163083777Y-84864619D01*
X164083777Y-85769380D02*
X164036158Y-85817000D01*
X164036158Y-85817000D02*
X163893301Y-85864619D01*
X163893301Y-85864619D02*
X163798063Y-85864619D01*
X163798063Y-85864619D02*
X163655206Y-85817000D01*
X163655206Y-85817000D02*
X163559968Y-85721761D01*
X163559968Y-85721761D02*
X163512349Y-85626523D01*
X163512349Y-85626523D02*
X163464730Y-85436047D01*
X163464730Y-85436047D02*
X163464730Y-85293190D01*
X163464730Y-85293190D02*
X163512349Y-85102714D01*
X163512349Y-85102714D02*
X163559968Y-85007476D01*
X163559968Y-85007476D02*
X163655206Y-84912238D01*
X163655206Y-84912238D02*
X163798063Y-84864619D01*
X163798063Y-84864619D02*
X163893301Y-84864619D01*
X163893301Y-84864619D02*
X164036158Y-84912238D01*
X164036158Y-84912238D02*
X164083777Y-84959857D01*
X164369492Y-84864619D02*
X164940920Y-84864619D01*
X164655206Y-85864619D02*
X164655206Y-84864619D01*
X165274254Y-85864619D02*
X165274254Y-84864619D01*
X165750444Y-85864619D02*
X165750444Y-84864619D01*
X165750444Y-84864619D02*
X166321872Y-85864619D01*
X166321872Y-85864619D02*
X166321872Y-84864619D01*
X167321872Y-84912238D02*
X167226634Y-84864619D01*
X167226634Y-84864619D02*
X167083777Y-84864619D01*
X167083777Y-84864619D02*
X166940920Y-84912238D01*
X166940920Y-84912238D02*
X166845682Y-85007476D01*
X166845682Y-85007476D02*
X166798063Y-85102714D01*
X166798063Y-85102714D02*
X166750444Y-85293190D01*
X166750444Y-85293190D02*
X166750444Y-85436047D01*
X166750444Y-85436047D02*
X166798063Y-85626523D01*
X166798063Y-85626523D02*
X166845682Y-85721761D01*
X166845682Y-85721761D02*
X166940920Y-85817000D01*
X166940920Y-85817000D02*
X167083777Y-85864619D01*
X167083777Y-85864619D02*
X167179015Y-85864619D01*
X167179015Y-85864619D02*
X167321872Y-85817000D01*
X167321872Y-85817000D02*
X167369491Y-85769380D01*
X167369491Y-85769380D02*
X167369491Y-85436047D01*
X167369491Y-85436047D02*
X167179015Y-85436047D01*
D11*
X124705018Y-90454819D02*
X124371685Y-89978628D01*
X124133590Y-90454819D02*
X124133590Y-89454819D01*
X124133590Y-89454819D02*
X124514542Y-89454819D01*
X124514542Y-89454819D02*
X124609780Y-89502438D01*
X124609780Y-89502438D02*
X124657399Y-89550057D01*
X124657399Y-89550057D02*
X124705018Y-89645295D01*
X124705018Y-89645295D02*
X124705018Y-89788152D01*
X124705018Y-89788152D02*
X124657399Y-89883390D01*
X124657399Y-89883390D02*
X124609780Y-89931009D01*
X124609780Y-89931009D02*
X124514542Y-89978628D01*
X124514542Y-89978628D02*
X124133590Y-89978628D01*
X125657399Y-90454819D02*
X125085971Y-90454819D01*
X125371685Y-90454819D02*
X125371685Y-89454819D01*
X125371685Y-89454819D02*
X125276447Y-89597676D01*
X125276447Y-89597676D02*
X125181209Y-89692914D01*
X125181209Y-89692914D02*
X125085971Y-89740533D01*
X123966923Y-94050057D02*
X124014542Y-94002438D01*
X124014542Y-94002438D02*
X124109780Y-93954819D01*
X124109780Y-93954819D02*
X124347875Y-93954819D01*
X124347875Y-93954819D02*
X124443113Y-94002438D01*
X124443113Y-94002438D02*
X124490732Y-94050057D01*
X124490732Y-94050057D02*
X124538351Y-94145295D01*
X124538351Y-94145295D02*
X124538351Y-94240533D01*
X124538351Y-94240533D02*
X124490732Y-94383390D01*
X124490732Y-94383390D02*
X123919304Y-94954819D01*
X123919304Y-94954819D02*
X124538351Y-94954819D01*
X124966923Y-94859580D02*
X125014542Y-94907200D01*
X125014542Y-94907200D02*
X124966923Y-94954819D01*
X124966923Y-94954819D02*
X124919304Y-94907200D01*
X124919304Y-94907200D02*
X124966923Y-94859580D01*
X124966923Y-94859580D02*
X124966923Y-94954819D01*
X125395494Y-94050057D02*
X125443113Y-94002438D01*
X125443113Y-94002438D02*
X125538351Y-93954819D01*
X125538351Y-93954819D02*
X125776446Y-93954819D01*
X125776446Y-93954819D02*
X125871684Y-94002438D01*
X125871684Y-94002438D02*
X125919303Y-94050057D01*
X125919303Y-94050057D02*
X125966922Y-94145295D01*
X125966922Y-94145295D02*
X125966922Y-94240533D01*
X125966922Y-94240533D02*
X125919303Y-94383390D01*
X125919303Y-94383390D02*
X125347875Y-94954819D01*
X125347875Y-94954819D02*
X125966922Y-94954819D01*
X126395494Y-94954819D02*
X126395494Y-93954819D01*
X126490732Y-94573866D02*
X126776446Y-94954819D01*
X126776446Y-94288152D02*
X126395494Y-94669104D01*
X142038351Y-70954819D02*
X142038351Y-71669104D01*
X142038351Y-71669104D02*
X141990732Y-71811961D01*
X141990732Y-71811961D02*
X141895494Y-71907200D01*
X141895494Y-71907200D02*
X141752637Y-71954819D01*
X141752637Y-71954819D02*
X141657399Y-71954819D01*
X142419304Y-70954819D02*
X143038351Y-70954819D01*
X143038351Y-70954819D02*
X142705018Y-71335771D01*
X142705018Y-71335771D02*
X142847875Y-71335771D01*
X142847875Y-71335771D02*
X142943113Y-71383390D01*
X142943113Y-71383390D02*
X142990732Y-71431009D01*
X142990732Y-71431009D02*
X143038351Y-71526247D01*
X143038351Y-71526247D02*
X143038351Y-71764342D01*
X143038351Y-71764342D02*
X142990732Y-71859580D01*
X142990732Y-71859580D02*
X142943113Y-71907200D01*
X142943113Y-71907200D02*
X142847875Y-71954819D01*
X142847875Y-71954819D02*
X142562161Y-71954819D01*
X142562161Y-71954819D02*
X142466923Y-71907200D01*
X142466923Y-71907200D02*
X142419304Y-71859580D01*
X145726504Y-95746666D02*
X145250313Y-96079999D01*
X145726504Y-96318094D02*
X144726504Y-96318094D01*
X144726504Y-96318094D02*
X144726504Y-95937142D01*
X144726504Y-95937142D02*
X144774123Y-95841904D01*
X144774123Y-95841904D02*
X144821742Y-95794285D01*
X144821742Y-95794285D02*
X144916980Y-95746666D01*
X144916980Y-95746666D02*
X145059837Y-95746666D01*
X145059837Y-95746666D02*
X145155075Y-95794285D01*
X145155075Y-95794285D02*
X145202694Y-95841904D01*
X145202694Y-95841904D02*
X145250313Y-95937142D01*
X145250313Y-95937142D02*
X145250313Y-96318094D01*
X144726504Y-95413332D02*
X144726504Y-94794285D01*
X144726504Y-94794285D02*
X145107456Y-95127618D01*
X145107456Y-95127618D02*
X145107456Y-94984761D01*
X145107456Y-94984761D02*
X145155075Y-94889523D01*
X145155075Y-94889523D02*
X145202694Y-94841904D01*
X145202694Y-94841904D02*
X145297932Y-94794285D01*
X145297932Y-94794285D02*
X145536027Y-94794285D01*
X145536027Y-94794285D02*
X145631265Y-94841904D01*
X145631265Y-94841904D02*
X145678885Y-94889523D01*
X145678885Y-94889523D02*
X145726504Y-94984761D01*
X145726504Y-94984761D02*
X145726504Y-95270475D01*
X145726504Y-95270475D02*
X145678885Y-95365713D01*
X145678885Y-95365713D02*
X145631265Y-95413332D01*
X150466504Y-96175238D02*
X150466504Y-96746666D01*
X150466504Y-96460952D02*
X149466504Y-96460952D01*
X149466504Y-96460952D02*
X149609361Y-96556190D01*
X149609361Y-96556190D02*
X149704599Y-96651428D01*
X149704599Y-96651428D02*
X149752218Y-96746666D01*
X149466504Y-95556190D02*
X149466504Y-95460952D01*
X149466504Y-95460952D02*
X149514123Y-95365714D01*
X149514123Y-95365714D02*
X149561742Y-95318095D01*
X149561742Y-95318095D02*
X149656980Y-95270476D01*
X149656980Y-95270476D02*
X149847456Y-95222857D01*
X149847456Y-95222857D02*
X150085551Y-95222857D01*
X150085551Y-95222857D02*
X150276027Y-95270476D01*
X150276027Y-95270476D02*
X150371265Y-95318095D01*
X150371265Y-95318095D02*
X150418885Y-95365714D01*
X150418885Y-95365714D02*
X150466504Y-95460952D01*
X150466504Y-95460952D02*
X150466504Y-95556190D01*
X150466504Y-95556190D02*
X150418885Y-95651428D01*
X150418885Y-95651428D02*
X150371265Y-95699047D01*
X150371265Y-95699047D02*
X150276027Y-95746666D01*
X150276027Y-95746666D02*
X150085551Y-95794285D01*
X150085551Y-95794285D02*
X149847456Y-95794285D01*
X149847456Y-95794285D02*
X149656980Y-95746666D01*
X149656980Y-95746666D02*
X149561742Y-95699047D01*
X149561742Y-95699047D02*
X149514123Y-95651428D01*
X149514123Y-95651428D02*
X149466504Y-95556190D01*
X150466504Y-94794285D02*
X149466504Y-94794285D01*
X150085551Y-94699047D02*
X150466504Y-94413333D01*
X149799837Y-94413333D02*
X150180789Y-94794285D01*
X138379780Y-95854819D02*
X138379780Y-96664342D01*
X138379780Y-96664342D02*
X138427399Y-96759580D01*
X138427399Y-96759580D02*
X138475018Y-96807200D01*
X138475018Y-96807200D02*
X138570256Y-96854819D01*
X138570256Y-96854819D02*
X138760732Y-96854819D01*
X138760732Y-96854819D02*
X138855970Y-96807200D01*
X138855970Y-96807200D02*
X138903589Y-96759580D01*
X138903589Y-96759580D02*
X138951208Y-96664342D01*
X138951208Y-96664342D02*
X138951208Y-95854819D01*
X139951208Y-96854819D02*
X139379780Y-96854819D01*
X139665494Y-96854819D02*
X139665494Y-95854819D01*
X139665494Y-95854819D02*
X139570256Y-95997676D01*
X139570256Y-95997676D02*
X139475018Y-96092914D01*
X139475018Y-96092914D02*
X139379780Y-96140533D01*
X137752637Y-104454819D02*
X137752637Y-103454819D01*
X137752637Y-103454819D02*
X137990732Y-103454819D01*
X137990732Y-103454819D02*
X138133589Y-103502438D01*
X138133589Y-103502438D02*
X138228827Y-103597676D01*
X138228827Y-103597676D02*
X138276446Y-103692914D01*
X138276446Y-103692914D02*
X138324065Y-103883390D01*
X138324065Y-103883390D02*
X138324065Y-104026247D01*
X138324065Y-104026247D02*
X138276446Y-104216723D01*
X138276446Y-104216723D02*
X138228827Y-104311961D01*
X138228827Y-104311961D02*
X138133589Y-104407200D01*
X138133589Y-104407200D02*
X137990732Y-104454819D01*
X137990732Y-104454819D02*
X137752637Y-104454819D01*
X139324065Y-104454819D02*
X138990732Y-103978628D01*
X138752637Y-104454819D02*
X138752637Y-103454819D01*
X138752637Y-103454819D02*
X139133589Y-103454819D01*
X139133589Y-103454819D02*
X139228827Y-103502438D01*
X139228827Y-103502438D02*
X139276446Y-103550057D01*
X139276446Y-103550057D02*
X139324065Y-103645295D01*
X139324065Y-103645295D02*
X139324065Y-103788152D01*
X139324065Y-103788152D02*
X139276446Y-103883390D01*
X139276446Y-103883390D02*
X139228827Y-103931009D01*
X139228827Y-103931009D02*
X139133589Y-103978628D01*
X139133589Y-103978628D02*
X138752637Y-103978628D01*
X139752637Y-104454819D02*
X139752637Y-103454819D01*
X140085970Y-103454819D02*
X140419303Y-104454819D01*
X140419303Y-104454819D02*
X140752636Y-103454819D01*
X141085970Y-103931009D02*
X141419303Y-103931009D01*
X141562160Y-104454819D02*
X141085970Y-104454819D01*
X141085970Y-104454819D02*
X141085970Y-103454819D01*
X141085970Y-103454819D02*
X141562160Y-103454819D01*
X142562160Y-104454819D02*
X142228827Y-103978628D01*
X141990732Y-104454819D02*
X141990732Y-103454819D01*
X141990732Y-103454819D02*
X142371684Y-103454819D01*
X142371684Y-103454819D02*
X142466922Y-103502438D01*
X142466922Y-103502438D02*
X142514541Y-103550057D01*
X142514541Y-103550057D02*
X142562160Y-103645295D01*
X142562160Y-103645295D02*
X142562160Y-103788152D01*
X142562160Y-103788152D02*
X142514541Y-103883390D01*
X142514541Y-103883390D02*
X142466922Y-103931009D01*
X142466922Y-103931009D02*
X142371684Y-103978628D01*
X142371684Y-103978628D02*
X141990732Y-103978628D01*
X144228827Y-104454819D02*
X143752637Y-104454819D01*
X143752637Y-104454819D02*
X143752637Y-103454819D01*
X144562161Y-103931009D02*
X144895494Y-103931009D01*
X145038351Y-104454819D02*
X144562161Y-104454819D01*
X144562161Y-104454819D02*
X144562161Y-103454819D01*
X144562161Y-103454819D02*
X145038351Y-103454819D01*
X145466923Y-104454819D02*
X145466923Y-103454819D01*
X145466923Y-103454819D02*
X145705018Y-103454819D01*
X145705018Y-103454819D02*
X145847875Y-103502438D01*
X145847875Y-103502438D02*
X145943113Y-103597676D01*
X145943113Y-103597676D02*
X145990732Y-103692914D01*
X145990732Y-103692914D02*
X146038351Y-103883390D01*
X146038351Y-103883390D02*
X146038351Y-104026247D01*
X146038351Y-104026247D02*
X145990732Y-104216723D01*
X145990732Y-104216723D02*
X145943113Y-104311961D01*
X145943113Y-104311961D02*
X145847875Y-104407200D01*
X145847875Y-104407200D02*
X145705018Y-104454819D01*
X145705018Y-104454819D02*
X145466923Y-104454819D01*
X151445018Y-108104820D02*
X151111685Y-107628629D01*
X150873590Y-108104820D02*
X150873590Y-107104820D01*
X150873590Y-107104820D02*
X151254542Y-107104820D01*
X151254542Y-107104820D02*
X151349780Y-107152439D01*
X151349780Y-107152439D02*
X151397399Y-107200058D01*
X151397399Y-107200058D02*
X151445018Y-107295296D01*
X151445018Y-107295296D02*
X151445018Y-107438153D01*
X151445018Y-107438153D02*
X151397399Y-107533391D01*
X151397399Y-107533391D02*
X151349780Y-107581010D01*
X151349780Y-107581010D02*
X151254542Y-107628629D01*
X151254542Y-107628629D02*
X150873590Y-107628629D01*
X152302161Y-107104820D02*
X152111685Y-107104820D01*
X152111685Y-107104820D02*
X152016447Y-107152439D01*
X152016447Y-107152439D02*
X151968828Y-107200058D01*
X151968828Y-107200058D02*
X151873590Y-107342915D01*
X151873590Y-107342915D02*
X151825971Y-107533391D01*
X151825971Y-107533391D02*
X151825971Y-107914343D01*
X151825971Y-107914343D02*
X151873590Y-108009581D01*
X151873590Y-108009581D02*
X151921209Y-108057201D01*
X151921209Y-108057201D02*
X152016447Y-108104820D01*
X152016447Y-108104820D02*
X152206923Y-108104820D01*
X152206923Y-108104820D02*
X152302161Y-108057201D01*
X152302161Y-108057201D02*
X152349780Y-108009581D01*
X152349780Y-108009581D02*
X152397399Y-107914343D01*
X152397399Y-107914343D02*
X152397399Y-107676248D01*
X152397399Y-107676248D02*
X152349780Y-107581010D01*
X152349780Y-107581010D02*
X152302161Y-107533391D01*
X152302161Y-107533391D02*
X152206923Y-107485772D01*
X152206923Y-107485772D02*
X152016447Y-107485772D01*
X152016447Y-107485772D02*
X151921209Y-107533391D01*
X151921209Y-107533391D02*
X151873590Y-107581010D01*
X151873590Y-107581010D02*
X151825971Y-107676248D01*
X151016446Y-112844820D02*
X150445018Y-112844820D01*
X150730732Y-112844820D02*
X150730732Y-111844820D01*
X150730732Y-111844820D02*
X150635494Y-111987677D01*
X150635494Y-111987677D02*
X150540256Y-112082915D01*
X150540256Y-112082915D02*
X150445018Y-112130534D01*
X151635494Y-111844820D02*
X151730732Y-111844820D01*
X151730732Y-111844820D02*
X151825970Y-111892439D01*
X151825970Y-111892439D02*
X151873589Y-111940058D01*
X151873589Y-111940058D02*
X151921208Y-112035296D01*
X151921208Y-112035296D02*
X151968827Y-112225772D01*
X151968827Y-112225772D02*
X151968827Y-112463867D01*
X151968827Y-112463867D02*
X151921208Y-112654343D01*
X151921208Y-112654343D02*
X151873589Y-112749581D01*
X151873589Y-112749581D02*
X151825970Y-112797201D01*
X151825970Y-112797201D02*
X151730732Y-112844820D01*
X151730732Y-112844820D02*
X151635494Y-112844820D01*
X151635494Y-112844820D02*
X151540256Y-112797201D01*
X151540256Y-112797201D02*
X151492637Y-112749581D01*
X151492637Y-112749581D02*
X151445018Y-112654343D01*
X151445018Y-112654343D02*
X151397399Y-112463867D01*
X151397399Y-112463867D02*
X151397399Y-112225772D01*
X151397399Y-112225772D02*
X151445018Y-112035296D01*
X151445018Y-112035296D02*
X151492637Y-111940058D01*
X151492637Y-111940058D02*
X151540256Y-111892439D01*
X151540256Y-111892439D02*
X151635494Y-111844820D01*
X152397399Y-112844820D02*
X152397399Y-111844820D01*
X152492637Y-112463867D02*
X152778351Y-112844820D01*
X152778351Y-112178153D02*
X152397399Y-112559105D01*
X123166666Y-67454819D02*
X123166666Y-68169104D01*
X123166666Y-68169104D02*
X123119047Y-68311961D01*
X123119047Y-68311961D02*
X123023809Y-68407200D01*
X123023809Y-68407200D02*
X122880952Y-68454819D01*
X122880952Y-68454819D02*
X122785714Y-68454819D01*
X124166666Y-68454819D02*
X123595238Y-68454819D01*
X123880952Y-68454819D02*
X123880952Y-67454819D01*
X123880952Y-67454819D02*
X123785714Y-67597676D01*
X123785714Y-67597676D02*
X123690476Y-67692914D01*
X123690476Y-67692914D02*
X123595238Y-67740533D01*
X126445018Y-108104820D02*
X126111685Y-107628629D01*
X125873590Y-108104820D02*
X125873590Y-107104820D01*
X125873590Y-107104820D02*
X126254542Y-107104820D01*
X126254542Y-107104820D02*
X126349780Y-107152439D01*
X126349780Y-107152439D02*
X126397399Y-107200058D01*
X126397399Y-107200058D02*
X126445018Y-107295296D01*
X126445018Y-107295296D02*
X126445018Y-107438153D01*
X126445018Y-107438153D02*
X126397399Y-107533391D01*
X126397399Y-107533391D02*
X126349780Y-107581010D01*
X126349780Y-107581010D02*
X126254542Y-107628629D01*
X126254542Y-107628629D02*
X125873590Y-107628629D01*
X127016447Y-107533391D02*
X126921209Y-107485772D01*
X126921209Y-107485772D02*
X126873590Y-107438153D01*
X126873590Y-107438153D02*
X126825971Y-107342915D01*
X126825971Y-107342915D02*
X126825971Y-107295296D01*
X126825971Y-107295296D02*
X126873590Y-107200058D01*
X126873590Y-107200058D02*
X126921209Y-107152439D01*
X126921209Y-107152439D02*
X127016447Y-107104820D01*
X127016447Y-107104820D02*
X127206923Y-107104820D01*
X127206923Y-107104820D02*
X127302161Y-107152439D01*
X127302161Y-107152439D02*
X127349780Y-107200058D01*
X127349780Y-107200058D02*
X127397399Y-107295296D01*
X127397399Y-107295296D02*
X127397399Y-107342915D01*
X127397399Y-107342915D02*
X127349780Y-107438153D01*
X127349780Y-107438153D02*
X127302161Y-107485772D01*
X127302161Y-107485772D02*
X127206923Y-107533391D01*
X127206923Y-107533391D02*
X127016447Y-107533391D01*
X127016447Y-107533391D02*
X126921209Y-107581010D01*
X126921209Y-107581010D02*
X126873590Y-107628629D01*
X126873590Y-107628629D02*
X126825971Y-107723867D01*
X126825971Y-107723867D02*
X126825971Y-107914343D01*
X126825971Y-107914343D02*
X126873590Y-108009581D01*
X126873590Y-108009581D02*
X126921209Y-108057201D01*
X126921209Y-108057201D02*
X127016447Y-108104820D01*
X127016447Y-108104820D02*
X127206923Y-108104820D01*
X127206923Y-108104820D02*
X127302161Y-108057201D01*
X127302161Y-108057201D02*
X127349780Y-108009581D01*
X127349780Y-108009581D02*
X127397399Y-107914343D01*
X127397399Y-107914343D02*
X127397399Y-107723867D01*
X127397399Y-107723867D02*
X127349780Y-107628629D01*
X127349780Y-107628629D02*
X127302161Y-107581010D01*
X127302161Y-107581010D02*
X127206923Y-107533391D01*
X125849780Y-111844820D02*
X125659304Y-111844820D01*
X125659304Y-111844820D02*
X125564066Y-111892439D01*
X125564066Y-111892439D02*
X125516447Y-111940058D01*
X125516447Y-111940058D02*
X125421209Y-112082915D01*
X125421209Y-112082915D02*
X125373590Y-112273391D01*
X125373590Y-112273391D02*
X125373590Y-112654343D01*
X125373590Y-112654343D02*
X125421209Y-112749581D01*
X125421209Y-112749581D02*
X125468828Y-112797201D01*
X125468828Y-112797201D02*
X125564066Y-112844820D01*
X125564066Y-112844820D02*
X125754542Y-112844820D01*
X125754542Y-112844820D02*
X125849780Y-112797201D01*
X125849780Y-112797201D02*
X125897399Y-112749581D01*
X125897399Y-112749581D02*
X125945018Y-112654343D01*
X125945018Y-112654343D02*
X125945018Y-112416248D01*
X125945018Y-112416248D02*
X125897399Y-112321010D01*
X125897399Y-112321010D02*
X125849780Y-112273391D01*
X125849780Y-112273391D02*
X125754542Y-112225772D01*
X125754542Y-112225772D02*
X125564066Y-112225772D01*
X125564066Y-112225772D02*
X125468828Y-112273391D01*
X125468828Y-112273391D02*
X125421209Y-112321010D01*
X125421209Y-112321010D02*
X125373590Y-112416248D01*
X126516447Y-112273391D02*
X126421209Y-112225772D01*
X126421209Y-112225772D02*
X126373590Y-112178153D01*
X126373590Y-112178153D02*
X126325971Y-112082915D01*
X126325971Y-112082915D02*
X126325971Y-112035296D01*
X126325971Y-112035296D02*
X126373590Y-111940058D01*
X126373590Y-111940058D02*
X126421209Y-111892439D01*
X126421209Y-111892439D02*
X126516447Y-111844820D01*
X126516447Y-111844820D02*
X126706923Y-111844820D01*
X126706923Y-111844820D02*
X126802161Y-111892439D01*
X126802161Y-111892439D02*
X126849780Y-111940058D01*
X126849780Y-111940058D02*
X126897399Y-112035296D01*
X126897399Y-112035296D02*
X126897399Y-112082915D01*
X126897399Y-112082915D02*
X126849780Y-112178153D01*
X126849780Y-112178153D02*
X126802161Y-112225772D01*
X126802161Y-112225772D02*
X126706923Y-112273391D01*
X126706923Y-112273391D02*
X126516447Y-112273391D01*
X126516447Y-112273391D02*
X126421209Y-112321010D01*
X126421209Y-112321010D02*
X126373590Y-112368629D01*
X126373590Y-112368629D02*
X126325971Y-112463867D01*
X126325971Y-112463867D02*
X126325971Y-112654343D01*
X126325971Y-112654343D02*
X126373590Y-112749581D01*
X126373590Y-112749581D02*
X126421209Y-112797201D01*
X126421209Y-112797201D02*
X126516447Y-112844820D01*
X126516447Y-112844820D02*
X126706923Y-112844820D01*
X126706923Y-112844820D02*
X126802161Y-112797201D01*
X126802161Y-112797201D02*
X126849780Y-112749581D01*
X126849780Y-112749581D02*
X126897399Y-112654343D01*
X126897399Y-112654343D02*
X126897399Y-112463867D01*
X126897399Y-112463867D02*
X126849780Y-112368629D01*
X126849780Y-112368629D02*
X126802161Y-112321010D01*
X126802161Y-112321010D02*
X126706923Y-112273391D01*
X127516447Y-111844820D02*
X127611685Y-111844820D01*
X127611685Y-111844820D02*
X127706923Y-111892439D01*
X127706923Y-111892439D02*
X127754542Y-111940058D01*
X127754542Y-111940058D02*
X127802161Y-112035296D01*
X127802161Y-112035296D02*
X127849780Y-112225772D01*
X127849780Y-112225772D02*
X127849780Y-112463867D01*
X127849780Y-112463867D02*
X127802161Y-112654343D01*
X127802161Y-112654343D02*
X127754542Y-112749581D01*
X127754542Y-112749581D02*
X127706923Y-112797201D01*
X127706923Y-112797201D02*
X127611685Y-112844820D01*
X127611685Y-112844820D02*
X127516447Y-112844820D01*
X127516447Y-112844820D02*
X127421209Y-112797201D01*
X127421209Y-112797201D02*
X127373590Y-112749581D01*
X127373590Y-112749581D02*
X127325971Y-112654343D01*
X127325971Y-112654343D02*
X127278352Y-112463867D01*
X127278352Y-112463867D02*
X127278352Y-112225772D01*
X127278352Y-112225772D02*
X127325971Y-112035296D01*
X127325971Y-112035296D02*
X127373590Y-111940058D01*
X127373590Y-111940058D02*
X127421209Y-111892439D01*
X127421209Y-111892439D02*
X127516447Y-111844820D01*
X125006446Y-97100057D02*
X124911208Y-97052438D01*
X124911208Y-97052438D02*
X124815970Y-96957200D01*
X124815970Y-96957200D02*
X124673113Y-96814342D01*
X124673113Y-96814342D02*
X124577875Y-96766723D01*
X124577875Y-96766723D02*
X124482637Y-96766723D01*
X124530256Y-97004819D02*
X124435018Y-96957200D01*
X124435018Y-96957200D02*
X124339780Y-96861961D01*
X124339780Y-96861961D02*
X124292161Y-96671485D01*
X124292161Y-96671485D02*
X124292161Y-96338152D01*
X124292161Y-96338152D02*
X124339780Y-96147676D01*
X124339780Y-96147676D02*
X124435018Y-96052438D01*
X124435018Y-96052438D02*
X124530256Y-96004819D01*
X124530256Y-96004819D02*
X124720732Y-96004819D01*
X124720732Y-96004819D02*
X124815970Y-96052438D01*
X124815970Y-96052438D02*
X124911208Y-96147676D01*
X124911208Y-96147676D02*
X124958827Y-96338152D01*
X124958827Y-96338152D02*
X124958827Y-96671485D01*
X124958827Y-96671485D02*
X124911208Y-96861961D01*
X124911208Y-96861961D02*
X124815970Y-96957200D01*
X124815970Y-96957200D02*
X124720732Y-97004819D01*
X124720732Y-97004819D02*
X124530256Y-97004819D01*
X125911208Y-97004819D02*
X125339780Y-97004819D01*
X125625494Y-97004819D02*
X125625494Y-96004819D01*
X125625494Y-96004819D02*
X125530256Y-96147676D01*
X125530256Y-96147676D02*
X125435018Y-96242914D01*
X125435018Y-96242914D02*
X125339780Y-96290533D01*
X121149303Y-104454819D02*
X120673113Y-104454819D01*
X120673113Y-104454819D02*
X120673113Y-103454819D01*
X121673113Y-103454819D02*
X121863589Y-103454819D01*
X121863589Y-103454819D02*
X121958827Y-103502438D01*
X121958827Y-103502438D02*
X122054065Y-103597676D01*
X122054065Y-103597676D02*
X122101684Y-103788152D01*
X122101684Y-103788152D02*
X122101684Y-104121485D01*
X122101684Y-104121485D02*
X122054065Y-104311961D01*
X122054065Y-104311961D02*
X121958827Y-104407200D01*
X121958827Y-104407200D02*
X121863589Y-104454819D01*
X121863589Y-104454819D02*
X121673113Y-104454819D01*
X121673113Y-104454819D02*
X121577875Y-104407200D01*
X121577875Y-104407200D02*
X121482637Y-104311961D01*
X121482637Y-104311961D02*
X121435018Y-104121485D01*
X121435018Y-104121485D02*
X121435018Y-103788152D01*
X121435018Y-103788152D02*
X121482637Y-103597676D01*
X121482637Y-103597676D02*
X121577875Y-103502438D01*
X121577875Y-103502438D02*
X121673113Y-103454819D01*
X123101684Y-104359580D02*
X123054065Y-104407200D01*
X123054065Y-104407200D02*
X122911208Y-104454819D01*
X122911208Y-104454819D02*
X122815970Y-104454819D01*
X122815970Y-104454819D02*
X122673113Y-104407200D01*
X122673113Y-104407200D02*
X122577875Y-104311961D01*
X122577875Y-104311961D02*
X122530256Y-104216723D01*
X122530256Y-104216723D02*
X122482637Y-104026247D01*
X122482637Y-104026247D02*
X122482637Y-103883390D01*
X122482637Y-103883390D02*
X122530256Y-103692914D01*
X122530256Y-103692914D02*
X122577875Y-103597676D01*
X122577875Y-103597676D02*
X122673113Y-103502438D01*
X122673113Y-103502438D02*
X122815970Y-103454819D01*
X122815970Y-103454819D02*
X122911208Y-103454819D01*
X122911208Y-103454819D02*
X123054065Y-103502438D01*
X123054065Y-103502438D02*
X123101684Y-103550057D01*
X123530256Y-104454819D02*
X123530256Y-103454819D01*
X124101684Y-104454819D02*
X123673113Y-103883390D01*
X124101684Y-103454819D02*
X123530256Y-104026247D01*
X125292161Y-104454819D02*
X125292161Y-103454819D01*
X125292161Y-103454819D02*
X125673113Y-103454819D01*
X125673113Y-103454819D02*
X125768351Y-103502438D01*
X125768351Y-103502438D02*
X125815970Y-103550057D01*
X125815970Y-103550057D02*
X125863589Y-103645295D01*
X125863589Y-103645295D02*
X125863589Y-103788152D01*
X125863589Y-103788152D02*
X125815970Y-103883390D01*
X125815970Y-103883390D02*
X125768351Y-103931009D01*
X125768351Y-103931009D02*
X125673113Y-103978628D01*
X125673113Y-103978628D02*
X125292161Y-103978628D01*
X126292161Y-103454819D02*
X126292161Y-104264342D01*
X126292161Y-104264342D02*
X126339780Y-104359580D01*
X126339780Y-104359580D02*
X126387399Y-104407200D01*
X126387399Y-104407200D02*
X126482637Y-104454819D01*
X126482637Y-104454819D02*
X126673113Y-104454819D01*
X126673113Y-104454819D02*
X126768351Y-104407200D01*
X126768351Y-104407200D02*
X126815970Y-104359580D01*
X126815970Y-104359580D02*
X126863589Y-104264342D01*
X126863589Y-104264342D02*
X126863589Y-103454819D01*
X127815970Y-104454819D02*
X127339780Y-104454819D01*
X127339780Y-104454819D02*
X127339780Y-103454819D01*
X128101685Y-104407200D02*
X128244542Y-104454819D01*
X128244542Y-104454819D02*
X128482637Y-104454819D01*
X128482637Y-104454819D02*
X128577875Y-104407200D01*
X128577875Y-104407200D02*
X128625494Y-104359580D01*
X128625494Y-104359580D02*
X128673113Y-104264342D01*
X128673113Y-104264342D02*
X128673113Y-104169104D01*
X128673113Y-104169104D02*
X128625494Y-104073866D01*
X128625494Y-104073866D02*
X128577875Y-104026247D01*
X128577875Y-104026247D02*
X128482637Y-103978628D01*
X128482637Y-103978628D02*
X128292161Y-103931009D01*
X128292161Y-103931009D02*
X128196923Y-103883390D01*
X128196923Y-103883390D02*
X128149304Y-103835771D01*
X128149304Y-103835771D02*
X128101685Y-103740533D01*
X128101685Y-103740533D02*
X128101685Y-103645295D01*
X128101685Y-103645295D02*
X128149304Y-103550057D01*
X128149304Y-103550057D02*
X128196923Y-103502438D01*
X128196923Y-103502438D02*
X128292161Y-103454819D01*
X128292161Y-103454819D02*
X128530256Y-103454819D01*
X128530256Y-103454819D02*
X128673113Y-103502438D01*
X129101685Y-103931009D02*
X129435018Y-103931009D01*
X129577875Y-104454819D02*
X129101685Y-104454819D01*
X129101685Y-104454819D02*
X129101685Y-103454819D01*
X129101685Y-103454819D02*
X129577875Y-103454819D01*
X151285018Y-114584819D02*
X150951685Y-114108628D01*
X150713590Y-114584819D02*
X150713590Y-113584819D01*
X150713590Y-113584819D02*
X151094542Y-113584819D01*
X151094542Y-113584819D02*
X151189780Y-113632438D01*
X151189780Y-113632438D02*
X151237399Y-113680057D01*
X151237399Y-113680057D02*
X151285018Y-113775295D01*
X151285018Y-113775295D02*
X151285018Y-113918152D01*
X151285018Y-113918152D02*
X151237399Y-114013390D01*
X151237399Y-114013390D02*
X151189780Y-114061009D01*
X151189780Y-114061009D02*
X151094542Y-114108628D01*
X151094542Y-114108628D02*
X150713590Y-114108628D01*
X151618352Y-113584819D02*
X152285018Y-113584819D01*
X152285018Y-113584819D02*
X151856447Y-114584819D01*
X150380256Y-119324819D02*
X149808828Y-119324819D01*
X150094542Y-119324819D02*
X150094542Y-118324819D01*
X150094542Y-118324819D02*
X149999304Y-118467676D01*
X149999304Y-118467676D02*
X149904066Y-118562914D01*
X149904066Y-118562914D02*
X149808828Y-118610533D01*
X150999304Y-118324819D02*
X151094542Y-118324819D01*
X151094542Y-118324819D02*
X151189780Y-118372438D01*
X151189780Y-118372438D02*
X151237399Y-118420057D01*
X151237399Y-118420057D02*
X151285018Y-118515295D01*
X151285018Y-118515295D02*
X151332637Y-118705771D01*
X151332637Y-118705771D02*
X151332637Y-118943866D01*
X151332637Y-118943866D02*
X151285018Y-119134342D01*
X151285018Y-119134342D02*
X151237399Y-119229580D01*
X151237399Y-119229580D02*
X151189780Y-119277200D01*
X151189780Y-119277200D02*
X151094542Y-119324819D01*
X151094542Y-119324819D02*
X150999304Y-119324819D01*
X150999304Y-119324819D02*
X150904066Y-119277200D01*
X150904066Y-119277200D02*
X150856447Y-119229580D01*
X150856447Y-119229580D02*
X150808828Y-119134342D01*
X150808828Y-119134342D02*
X150761209Y-118943866D01*
X150761209Y-118943866D02*
X150761209Y-118705771D01*
X150761209Y-118705771D02*
X150808828Y-118515295D01*
X150808828Y-118515295D02*
X150856447Y-118420057D01*
X150856447Y-118420057D02*
X150904066Y-118372438D01*
X150904066Y-118372438D02*
X150999304Y-118324819D01*
X151951685Y-118324819D02*
X152046923Y-118324819D01*
X152046923Y-118324819D02*
X152142161Y-118372438D01*
X152142161Y-118372438D02*
X152189780Y-118420057D01*
X152189780Y-118420057D02*
X152237399Y-118515295D01*
X152237399Y-118515295D02*
X152285018Y-118705771D01*
X152285018Y-118705771D02*
X152285018Y-118943866D01*
X152285018Y-118943866D02*
X152237399Y-119134342D01*
X152237399Y-119134342D02*
X152189780Y-119229580D01*
X152189780Y-119229580D02*
X152142161Y-119277200D01*
X152142161Y-119277200D02*
X152046923Y-119324819D01*
X152046923Y-119324819D02*
X151951685Y-119324819D01*
X151951685Y-119324819D02*
X151856447Y-119277200D01*
X151856447Y-119277200D02*
X151808828Y-119229580D01*
X151808828Y-119229580D02*
X151761209Y-119134342D01*
X151761209Y-119134342D02*
X151713590Y-118943866D01*
X151713590Y-118943866D02*
X151713590Y-118705771D01*
X151713590Y-118705771D02*
X151761209Y-118515295D01*
X151761209Y-118515295D02*
X151808828Y-118420057D01*
X151808828Y-118420057D02*
X151856447Y-118372438D01*
X151856447Y-118372438D02*
X151951685Y-118324819D01*
X152713590Y-119324819D02*
X152713590Y-118324819D01*
X152808828Y-118943866D02*
X153094542Y-119324819D01*
X153094542Y-118658152D02*
X152713590Y-119039104D01*
X143561504Y-114281905D02*
X144371027Y-114281905D01*
X144371027Y-114281905D02*
X144466265Y-114234286D01*
X144466265Y-114234286D02*
X144513885Y-114186667D01*
X144513885Y-114186667D02*
X144561504Y-114091429D01*
X144561504Y-114091429D02*
X144561504Y-113900953D01*
X144561504Y-113900953D02*
X144513885Y-113805715D01*
X144513885Y-113805715D02*
X144466265Y-113758096D01*
X144466265Y-113758096D02*
X144371027Y-113710477D01*
X144371027Y-113710477D02*
X143561504Y-113710477D01*
X143561504Y-113329524D02*
X143561504Y-112710477D01*
X143561504Y-112710477D02*
X143942456Y-113043810D01*
X143942456Y-113043810D02*
X143942456Y-112900953D01*
X143942456Y-112900953D02*
X143990075Y-112805715D01*
X143990075Y-112805715D02*
X144037694Y-112758096D01*
X144037694Y-112758096D02*
X144132932Y-112710477D01*
X144132932Y-112710477D02*
X144371027Y-112710477D01*
X144371027Y-112710477D02*
X144466265Y-112758096D01*
X144466265Y-112758096D02*
X144513885Y-112805715D01*
X144513885Y-112805715D02*
X144561504Y-112900953D01*
X144561504Y-112900953D02*
X144561504Y-113186667D01*
X144561504Y-113186667D02*
X144513885Y-113281905D01*
X144513885Y-113281905D02*
X144466265Y-113329524D01*
X135463827Y-107879581D02*
X135416208Y-107927201D01*
X135416208Y-107927201D02*
X135273351Y-107974820D01*
X135273351Y-107974820D02*
X135178113Y-107974820D01*
X135178113Y-107974820D02*
X135035256Y-107927201D01*
X135035256Y-107927201D02*
X134940018Y-107831962D01*
X134940018Y-107831962D02*
X134892399Y-107736724D01*
X134892399Y-107736724D02*
X134844780Y-107546248D01*
X134844780Y-107546248D02*
X134844780Y-107403391D01*
X134844780Y-107403391D02*
X134892399Y-107212915D01*
X134892399Y-107212915D02*
X134940018Y-107117677D01*
X134940018Y-107117677D02*
X135035256Y-107022439D01*
X135035256Y-107022439D02*
X135178113Y-106974820D01*
X135178113Y-106974820D02*
X135273351Y-106974820D01*
X135273351Y-106974820D02*
X135416208Y-107022439D01*
X135416208Y-107022439D02*
X135463827Y-107070058D01*
X135749542Y-106974820D02*
X136320970Y-106974820D01*
X136035256Y-107974820D02*
X136035256Y-106974820D01*
X136654304Y-107974820D02*
X136654304Y-106974820D01*
X136654304Y-106974820D02*
X136987637Y-107689105D01*
X136987637Y-107689105D02*
X137320970Y-106974820D01*
X137320970Y-106974820D02*
X137320970Y-107974820D01*
X138511447Y-107927201D02*
X138654304Y-107974820D01*
X138654304Y-107974820D02*
X138892399Y-107974820D01*
X138892399Y-107974820D02*
X138987637Y-107927201D01*
X138987637Y-107927201D02*
X139035256Y-107879581D01*
X139035256Y-107879581D02*
X139082875Y-107784343D01*
X139082875Y-107784343D02*
X139082875Y-107689105D01*
X139082875Y-107689105D02*
X139035256Y-107593867D01*
X139035256Y-107593867D02*
X138987637Y-107546248D01*
X138987637Y-107546248D02*
X138892399Y-107498629D01*
X138892399Y-107498629D02*
X138701923Y-107451010D01*
X138701923Y-107451010D02*
X138606685Y-107403391D01*
X138606685Y-107403391D02*
X138559066Y-107355772D01*
X138559066Y-107355772D02*
X138511447Y-107260534D01*
X138511447Y-107260534D02*
X138511447Y-107165296D01*
X138511447Y-107165296D02*
X138559066Y-107070058D01*
X138559066Y-107070058D02*
X138606685Y-107022439D01*
X138606685Y-107022439D02*
X138701923Y-106974820D01*
X138701923Y-106974820D02*
X138940018Y-106974820D01*
X138940018Y-106974820D02*
X139082875Y-107022439D01*
X139368590Y-106974820D02*
X139940018Y-106974820D01*
X139654304Y-107974820D02*
X139654304Y-106974820D01*
X140225733Y-107689105D02*
X140701923Y-107689105D01*
X140130495Y-107974820D02*
X140463828Y-106974820D01*
X140463828Y-106974820D02*
X140797161Y-107974820D01*
X140987638Y-106974820D02*
X141559066Y-106974820D01*
X141273352Y-107974820D02*
X141273352Y-106974820D01*
X141892400Y-107451010D02*
X142225733Y-107451010D01*
X142368590Y-107974820D02*
X141892400Y-107974820D01*
X141892400Y-107974820D02*
X141892400Y-106974820D01*
X141892400Y-106974820D02*
X142368590Y-106974820D01*
X138975018Y-90084819D02*
X138641685Y-89608628D01*
X138403590Y-90084819D02*
X138403590Y-89084819D01*
X138403590Y-89084819D02*
X138784542Y-89084819D01*
X138784542Y-89084819D02*
X138879780Y-89132438D01*
X138879780Y-89132438D02*
X138927399Y-89180057D01*
X138927399Y-89180057D02*
X138975018Y-89275295D01*
X138975018Y-89275295D02*
X138975018Y-89418152D01*
X138975018Y-89418152D02*
X138927399Y-89513390D01*
X138927399Y-89513390D02*
X138879780Y-89561009D01*
X138879780Y-89561009D02*
X138784542Y-89608628D01*
X138784542Y-89608628D02*
X138403590Y-89608628D01*
X139355971Y-89180057D02*
X139403590Y-89132438D01*
X139403590Y-89132438D02*
X139498828Y-89084819D01*
X139498828Y-89084819D02*
X139736923Y-89084819D01*
X139736923Y-89084819D02*
X139832161Y-89132438D01*
X139832161Y-89132438D02*
X139879780Y-89180057D01*
X139879780Y-89180057D02*
X139927399Y-89275295D01*
X139927399Y-89275295D02*
X139927399Y-89370533D01*
X139927399Y-89370533D02*
X139879780Y-89513390D01*
X139879780Y-89513390D02*
X139308352Y-90084819D01*
X139308352Y-90084819D02*
X139927399Y-90084819D01*
X138379780Y-93824819D02*
X138189304Y-93824819D01*
X138189304Y-93824819D02*
X138094066Y-93872438D01*
X138094066Y-93872438D02*
X138046447Y-93920057D01*
X138046447Y-93920057D02*
X137951209Y-94062914D01*
X137951209Y-94062914D02*
X137903590Y-94253390D01*
X137903590Y-94253390D02*
X137903590Y-94634342D01*
X137903590Y-94634342D02*
X137951209Y-94729580D01*
X137951209Y-94729580D02*
X137998828Y-94777200D01*
X137998828Y-94777200D02*
X138094066Y-94824819D01*
X138094066Y-94824819D02*
X138284542Y-94824819D01*
X138284542Y-94824819D02*
X138379780Y-94777200D01*
X138379780Y-94777200D02*
X138427399Y-94729580D01*
X138427399Y-94729580D02*
X138475018Y-94634342D01*
X138475018Y-94634342D02*
X138475018Y-94396247D01*
X138475018Y-94396247D02*
X138427399Y-94301009D01*
X138427399Y-94301009D02*
X138379780Y-94253390D01*
X138379780Y-94253390D02*
X138284542Y-94205771D01*
X138284542Y-94205771D02*
X138094066Y-94205771D01*
X138094066Y-94205771D02*
X137998828Y-94253390D01*
X137998828Y-94253390D02*
X137951209Y-94301009D01*
X137951209Y-94301009D02*
X137903590Y-94396247D01*
X139046447Y-94253390D02*
X138951209Y-94205771D01*
X138951209Y-94205771D02*
X138903590Y-94158152D01*
X138903590Y-94158152D02*
X138855971Y-94062914D01*
X138855971Y-94062914D02*
X138855971Y-94015295D01*
X138855971Y-94015295D02*
X138903590Y-93920057D01*
X138903590Y-93920057D02*
X138951209Y-93872438D01*
X138951209Y-93872438D02*
X139046447Y-93824819D01*
X139046447Y-93824819D02*
X139236923Y-93824819D01*
X139236923Y-93824819D02*
X139332161Y-93872438D01*
X139332161Y-93872438D02*
X139379780Y-93920057D01*
X139379780Y-93920057D02*
X139427399Y-94015295D01*
X139427399Y-94015295D02*
X139427399Y-94062914D01*
X139427399Y-94062914D02*
X139379780Y-94158152D01*
X139379780Y-94158152D02*
X139332161Y-94205771D01*
X139332161Y-94205771D02*
X139236923Y-94253390D01*
X139236923Y-94253390D02*
X139046447Y-94253390D01*
X139046447Y-94253390D02*
X138951209Y-94301009D01*
X138951209Y-94301009D02*
X138903590Y-94348628D01*
X138903590Y-94348628D02*
X138855971Y-94443866D01*
X138855971Y-94443866D02*
X138855971Y-94634342D01*
X138855971Y-94634342D02*
X138903590Y-94729580D01*
X138903590Y-94729580D02*
X138951209Y-94777200D01*
X138951209Y-94777200D02*
X139046447Y-94824819D01*
X139046447Y-94824819D02*
X139236923Y-94824819D01*
X139236923Y-94824819D02*
X139332161Y-94777200D01*
X139332161Y-94777200D02*
X139379780Y-94729580D01*
X139379780Y-94729580D02*
X139427399Y-94634342D01*
X139427399Y-94634342D02*
X139427399Y-94443866D01*
X139427399Y-94443866D02*
X139379780Y-94348628D01*
X139379780Y-94348628D02*
X139332161Y-94301009D01*
X139332161Y-94301009D02*
X139236923Y-94253390D01*
X140046447Y-93824819D02*
X140141685Y-93824819D01*
X140141685Y-93824819D02*
X140236923Y-93872438D01*
X140236923Y-93872438D02*
X140284542Y-93920057D01*
X140284542Y-93920057D02*
X140332161Y-94015295D01*
X140332161Y-94015295D02*
X140379780Y-94205771D01*
X140379780Y-94205771D02*
X140379780Y-94443866D01*
X140379780Y-94443866D02*
X140332161Y-94634342D01*
X140332161Y-94634342D02*
X140284542Y-94729580D01*
X140284542Y-94729580D02*
X140236923Y-94777200D01*
X140236923Y-94777200D02*
X140141685Y-94824819D01*
X140141685Y-94824819D02*
X140046447Y-94824819D01*
X140046447Y-94824819D02*
X139951209Y-94777200D01*
X139951209Y-94777200D02*
X139903590Y-94729580D01*
X139903590Y-94729580D02*
X139855971Y-94634342D01*
X139855971Y-94634342D02*
X139808352Y-94443866D01*
X139808352Y-94443866D02*
X139808352Y-94205771D01*
X139808352Y-94205771D02*
X139855971Y-94015295D01*
X139855971Y-94015295D02*
X139903590Y-93920057D01*
X139903590Y-93920057D02*
X139951209Y-93872438D01*
X139951209Y-93872438D02*
X140046447Y-93824819D01*
X164456504Y-95586666D02*
X163980313Y-95919999D01*
X164456504Y-96158094D02*
X163456504Y-96158094D01*
X163456504Y-96158094D02*
X163456504Y-95777142D01*
X163456504Y-95777142D02*
X163504123Y-95681904D01*
X163504123Y-95681904D02*
X163551742Y-95634285D01*
X163551742Y-95634285D02*
X163646980Y-95586666D01*
X163646980Y-95586666D02*
X163789837Y-95586666D01*
X163789837Y-95586666D02*
X163885075Y-95634285D01*
X163885075Y-95634285D02*
X163932694Y-95681904D01*
X163932694Y-95681904D02*
X163980313Y-95777142D01*
X163980313Y-95777142D02*
X163980313Y-96158094D01*
X163456504Y-94681904D02*
X163456504Y-95158094D01*
X163456504Y-95158094D02*
X163932694Y-95205713D01*
X163932694Y-95205713D02*
X163885075Y-95158094D01*
X163885075Y-95158094D02*
X163837456Y-95062856D01*
X163837456Y-95062856D02*
X163837456Y-94824761D01*
X163837456Y-94824761D02*
X163885075Y-94729523D01*
X163885075Y-94729523D02*
X163932694Y-94681904D01*
X163932694Y-94681904D02*
X164027932Y-94634285D01*
X164027932Y-94634285D02*
X164266027Y-94634285D01*
X164266027Y-94634285D02*
X164361265Y-94681904D01*
X164361265Y-94681904D02*
X164408885Y-94729523D01*
X164408885Y-94729523D02*
X164456504Y-94824761D01*
X164456504Y-94824761D02*
X164456504Y-95062856D01*
X164456504Y-95062856D02*
X164408885Y-95158094D01*
X164408885Y-95158094D02*
X164361265Y-95205713D01*
X169196504Y-96015238D02*
X169196504Y-96586666D01*
X169196504Y-96300952D02*
X168196504Y-96300952D01*
X168196504Y-96300952D02*
X168339361Y-96396190D01*
X168339361Y-96396190D02*
X168434599Y-96491428D01*
X168434599Y-96491428D02*
X168482218Y-96586666D01*
X168196504Y-95396190D02*
X168196504Y-95300952D01*
X168196504Y-95300952D02*
X168244123Y-95205714D01*
X168244123Y-95205714D02*
X168291742Y-95158095D01*
X168291742Y-95158095D02*
X168386980Y-95110476D01*
X168386980Y-95110476D02*
X168577456Y-95062857D01*
X168577456Y-95062857D02*
X168815551Y-95062857D01*
X168815551Y-95062857D02*
X169006027Y-95110476D01*
X169006027Y-95110476D02*
X169101265Y-95158095D01*
X169101265Y-95158095D02*
X169148885Y-95205714D01*
X169148885Y-95205714D02*
X169196504Y-95300952D01*
X169196504Y-95300952D02*
X169196504Y-95396190D01*
X169196504Y-95396190D02*
X169148885Y-95491428D01*
X169148885Y-95491428D02*
X169101265Y-95539047D01*
X169101265Y-95539047D02*
X169006027Y-95586666D01*
X169006027Y-95586666D02*
X168815551Y-95634285D01*
X168815551Y-95634285D02*
X168577456Y-95634285D01*
X168577456Y-95634285D02*
X168386980Y-95586666D01*
X168386980Y-95586666D02*
X168291742Y-95539047D01*
X168291742Y-95539047D02*
X168244123Y-95491428D01*
X168244123Y-95491428D02*
X168196504Y-95396190D01*
X169196504Y-94634285D02*
X168196504Y-94634285D01*
X168815551Y-94539047D02*
X169196504Y-94253333D01*
X168529837Y-94253333D02*
X168910789Y-94634285D01*
X126445018Y-114604820D02*
X126111685Y-114128629D01*
X125873590Y-114604820D02*
X125873590Y-113604820D01*
X125873590Y-113604820D02*
X126254542Y-113604820D01*
X126254542Y-113604820D02*
X126349780Y-113652439D01*
X126349780Y-113652439D02*
X126397399Y-113700058D01*
X126397399Y-113700058D02*
X126445018Y-113795296D01*
X126445018Y-113795296D02*
X126445018Y-113938153D01*
X126445018Y-113938153D02*
X126397399Y-114033391D01*
X126397399Y-114033391D02*
X126349780Y-114081010D01*
X126349780Y-114081010D02*
X126254542Y-114128629D01*
X126254542Y-114128629D02*
X125873590Y-114128629D01*
X126921209Y-114604820D02*
X127111685Y-114604820D01*
X127111685Y-114604820D02*
X127206923Y-114557201D01*
X127206923Y-114557201D02*
X127254542Y-114509581D01*
X127254542Y-114509581D02*
X127349780Y-114366724D01*
X127349780Y-114366724D02*
X127397399Y-114176248D01*
X127397399Y-114176248D02*
X127397399Y-113795296D01*
X127397399Y-113795296D02*
X127349780Y-113700058D01*
X127349780Y-113700058D02*
X127302161Y-113652439D01*
X127302161Y-113652439D02*
X127206923Y-113604820D01*
X127206923Y-113604820D02*
X127016447Y-113604820D01*
X127016447Y-113604820D02*
X126921209Y-113652439D01*
X126921209Y-113652439D02*
X126873590Y-113700058D01*
X126873590Y-113700058D02*
X126825971Y-113795296D01*
X126825971Y-113795296D02*
X126825971Y-114033391D01*
X126825971Y-114033391D02*
X126873590Y-114128629D01*
X126873590Y-114128629D02*
X126921209Y-114176248D01*
X126921209Y-114176248D02*
X127016447Y-114223867D01*
X127016447Y-114223867D02*
X127206923Y-114223867D01*
X127206923Y-114223867D02*
X127302161Y-114176248D01*
X127302161Y-114176248D02*
X127349780Y-114128629D01*
X127349780Y-114128629D02*
X127397399Y-114033391D01*
X126016446Y-119344820D02*
X125445018Y-119344820D01*
X125730732Y-119344820D02*
X125730732Y-118344820D01*
X125730732Y-118344820D02*
X125635494Y-118487677D01*
X125635494Y-118487677D02*
X125540256Y-118582915D01*
X125540256Y-118582915D02*
X125445018Y-118630534D01*
X126635494Y-118344820D02*
X126730732Y-118344820D01*
X126730732Y-118344820D02*
X126825970Y-118392439D01*
X126825970Y-118392439D02*
X126873589Y-118440058D01*
X126873589Y-118440058D02*
X126921208Y-118535296D01*
X126921208Y-118535296D02*
X126968827Y-118725772D01*
X126968827Y-118725772D02*
X126968827Y-118963867D01*
X126968827Y-118963867D02*
X126921208Y-119154343D01*
X126921208Y-119154343D02*
X126873589Y-119249581D01*
X126873589Y-119249581D02*
X126825970Y-119297201D01*
X126825970Y-119297201D02*
X126730732Y-119344820D01*
X126730732Y-119344820D02*
X126635494Y-119344820D01*
X126635494Y-119344820D02*
X126540256Y-119297201D01*
X126540256Y-119297201D02*
X126492637Y-119249581D01*
X126492637Y-119249581D02*
X126445018Y-119154343D01*
X126445018Y-119154343D02*
X126397399Y-118963867D01*
X126397399Y-118963867D02*
X126397399Y-118725772D01*
X126397399Y-118725772D02*
X126445018Y-118535296D01*
X126445018Y-118535296D02*
X126492637Y-118440058D01*
X126492637Y-118440058D02*
X126540256Y-118392439D01*
X126540256Y-118392439D02*
X126635494Y-118344820D01*
X127397399Y-119344820D02*
X127397399Y-118344820D01*
X127492637Y-118963867D02*
X127778351Y-119344820D01*
X127778351Y-118678153D02*
X127397399Y-119059105D01*
X138166666Y-67454819D02*
X138166666Y-68169104D01*
X138166666Y-68169104D02*
X138119047Y-68311961D01*
X138119047Y-68311961D02*
X138023809Y-68407200D01*
X138023809Y-68407200D02*
X137880952Y-68454819D01*
X137880952Y-68454819D02*
X137785714Y-68454819D01*
X138595238Y-67550057D02*
X138642857Y-67502438D01*
X138642857Y-67502438D02*
X138738095Y-67454819D01*
X138738095Y-67454819D02*
X138976190Y-67454819D01*
X138976190Y-67454819D02*
X139071428Y-67502438D01*
X139071428Y-67502438D02*
X139119047Y-67550057D01*
X139119047Y-67550057D02*
X139166666Y-67645295D01*
X139166666Y-67645295D02*
X139166666Y-67740533D01*
X139166666Y-67740533D02*
X139119047Y-67883390D01*
X139119047Y-67883390D02*
X138547619Y-68454819D01*
X138547619Y-68454819D02*
X139166666Y-68454819D01*
X157109780Y-95849819D02*
X157109780Y-96659342D01*
X157109780Y-96659342D02*
X157157399Y-96754580D01*
X157157399Y-96754580D02*
X157205018Y-96802200D01*
X157205018Y-96802200D02*
X157300256Y-96849819D01*
X157300256Y-96849819D02*
X157490732Y-96849819D01*
X157490732Y-96849819D02*
X157585970Y-96802200D01*
X157585970Y-96802200D02*
X157633589Y-96754580D01*
X157633589Y-96754580D02*
X157681208Y-96659342D01*
X157681208Y-96659342D02*
X157681208Y-95849819D01*
X158109780Y-95945057D02*
X158157399Y-95897438D01*
X158157399Y-95897438D02*
X158252637Y-95849819D01*
X158252637Y-95849819D02*
X158490732Y-95849819D01*
X158490732Y-95849819D02*
X158585970Y-95897438D01*
X158585970Y-95897438D02*
X158633589Y-95945057D01*
X158633589Y-95945057D02*
X158681208Y-96040295D01*
X158681208Y-96040295D02*
X158681208Y-96135533D01*
X158681208Y-96135533D02*
X158633589Y-96278390D01*
X158633589Y-96278390D02*
X158062161Y-96849819D01*
X158062161Y-96849819D02*
X158681208Y-96849819D01*
X155014542Y-104454819D02*
X155014542Y-103454819D01*
X155014542Y-103454819D02*
X155395494Y-103454819D01*
X155395494Y-103454819D02*
X155490732Y-103502438D01*
X155490732Y-103502438D02*
X155538351Y-103550057D01*
X155538351Y-103550057D02*
X155585970Y-103645295D01*
X155585970Y-103645295D02*
X155585970Y-103788152D01*
X155585970Y-103788152D02*
X155538351Y-103883390D01*
X155538351Y-103883390D02*
X155490732Y-103931009D01*
X155490732Y-103931009D02*
X155395494Y-103978628D01*
X155395494Y-103978628D02*
X155014542Y-103978628D01*
X155966923Y-104169104D02*
X156443113Y-104169104D01*
X155871685Y-104454819D02*
X156205018Y-103454819D01*
X156205018Y-103454819D02*
X156538351Y-104454819D01*
X156824066Y-104407200D02*
X156966923Y-104454819D01*
X156966923Y-104454819D02*
X157205018Y-104454819D01*
X157205018Y-104454819D02*
X157300256Y-104407200D01*
X157300256Y-104407200D02*
X157347875Y-104359580D01*
X157347875Y-104359580D02*
X157395494Y-104264342D01*
X157395494Y-104264342D02*
X157395494Y-104169104D01*
X157395494Y-104169104D02*
X157347875Y-104073866D01*
X157347875Y-104073866D02*
X157300256Y-104026247D01*
X157300256Y-104026247D02*
X157205018Y-103978628D01*
X157205018Y-103978628D02*
X157014542Y-103931009D01*
X157014542Y-103931009D02*
X156919304Y-103883390D01*
X156919304Y-103883390D02*
X156871685Y-103835771D01*
X156871685Y-103835771D02*
X156824066Y-103740533D01*
X156824066Y-103740533D02*
X156824066Y-103645295D01*
X156824066Y-103645295D02*
X156871685Y-103550057D01*
X156871685Y-103550057D02*
X156919304Y-103502438D01*
X156919304Y-103502438D02*
X157014542Y-103454819D01*
X157014542Y-103454819D02*
X157252637Y-103454819D01*
X157252637Y-103454819D02*
X157395494Y-103502438D01*
X157776447Y-104407200D02*
X157919304Y-104454819D01*
X157919304Y-104454819D02*
X158157399Y-104454819D01*
X158157399Y-104454819D02*
X158252637Y-104407200D01*
X158252637Y-104407200D02*
X158300256Y-104359580D01*
X158300256Y-104359580D02*
X158347875Y-104264342D01*
X158347875Y-104264342D02*
X158347875Y-104169104D01*
X158347875Y-104169104D02*
X158300256Y-104073866D01*
X158300256Y-104073866D02*
X158252637Y-104026247D01*
X158252637Y-104026247D02*
X158157399Y-103978628D01*
X158157399Y-103978628D02*
X157966923Y-103931009D01*
X157966923Y-103931009D02*
X157871685Y-103883390D01*
X157871685Y-103883390D02*
X157824066Y-103835771D01*
X157824066Y-103835771D02*
X157776447Y-103740533D01*
X157776447Y-103740533D02*
X157776447Y-103645295D01*
X157776447Y-103645295D02*
X157824066Y-103550057D01*
X157824066Y-103550057D02*
X157871685Y-103502438D01*
X157871685Y-103502438D02*
X157966923Y-103454819D01*
X157966923Y-103454819D02*
X158205018Y-103454819D01*
X158205018Y-103454819D02*
X158347875Y-103502438D01*
X159490732Y-103407200D02*
X158633590Y-104692914D01*
X160395494Y-104359580D02*
X160347875Y-104407200D01*
X160347875Y-104407200D02*
X160205018Y-104454819D01*
X160205018Y-104454819D02*
X160109780Y-104454819D01*
X160109780Y-104454819D02*
X159966923Y-104407200D01*
X159966923Y-104407200D02*
X159871685Y-104311961D01*
X159871685Y-104311961D02*
X159824066Y-104216723D01*
X159824066Y-104216723D02*
X159776447Y-104026247D01*
X159776447Y-104026247D02*
X159776447Y-103883390D01*
X159776447Y-103883390D02*
X159824066Y-103692914D01*
X159824066Y-103692914D02*
X159871685Y-103597676D01*
X159871685Y-103597676D02*
X159966923Y-103502438D01*
X159966923Y-103502438D02*
X160109780Y-103454819D01*
X160109780Y-103454819D02*
X160205018Y-103454819D01*
X160205018Y-103454819D02*
X160347875Y-103502438D01*
X160347875Y-103502438D02*
X160395494Y-103550057D01*
X160776447Y-104169104D02*
X161252637Y-104169104D01*
X160681209Y-104454819D02*
X161014542Y-103454819D01*
X161014542Y-103454819D02*
X161347875Y-104454819D01*
X162252637Y-104454819D02*
X161919304Y-103978628D01*
X161681209Y-104454819D02*
X161681209Y-103454819D01*
X161681209Y-103454819D02*
X162062161Y-103454819D01*
X162062161Y-103454819D02*
X162157399Y-103502438D01*
X162157399Y-103502438D02*
X162205018Y-103550057D01*
X162205018Y-103550057D02*
X162252637Y-103645295D01*
X162252637Y-103645295D02*
X162252637Y-103788152D01*
X162252637Y-103788152D02*
X162205018Y-103883390D01*
X162205018Y-103883390D02*
X162157399Y-103931009D01*
X162157399Y-103931009D02*
X162062161Y-103978628D01*
X162062161Y-103978628D02*
X161681209Y-103978628D01*
X163205018Y-103502438D02*
X163109780Y-103454819D01*
X163109780Y-103454819D02*
X162966923Y-103454819D01*
X162966923Y-103454819D02*
X162824066Y-103502438D01*
X162824066Y-103502438D02*
X162728828Y-103597676D01*
X162728828Y-103597676D02*
X162681209Y-103692914D01*
X162681209Y-103692914D02*
X162633590Y-103883390D01*
X162633590Y-103883390D02*
X162633590Y-104026247D01*
X162633590Y-104026247D02*
X162681209Y-104216723D01*
X162681209Y-104216723D02*
X162728828Y-104311961D01*
X162728828Y-104311961D02*
X162824066Y-104407200D01*
X162824066Y-104407200D02*
X162966923Y-104454819D01*
X162966923Y-104454819D02*
X163062161Y-104454819D01*
X163062161Y-104454819D02*
X163205018Y-104407200D01*
X163205018Y-104407200D02*
X163252637Y-104359580D01*
X163252637Y-104359580D02*
X163252637Y-104026247D01*
X163252637Y-104026247D02*
X163062161Y-104026247D01*
X163871685Y-103454819D02*
X164062161Y-103454819D01*
X164062161Y-103454819D02*
X164157399Y-103502438D01*
X164157399Y-103502438D02*
X164252637Y-103597676D01*
X164252637Y-103597676D02*
X164300256Y-103788152D01*
X164300256Y-103788152D02*
X164300256Y-104121485D01*
X164300256Y-104121485D02*
X164252637Y-104311961D01*
X164252637Y-104311961D02*
X164157399Y-104407200D01*
X164157399Y-104407200D02*
X164062161Y-104454819D01*
X164062161Y-104454819D02*
X163871685Y-104454819D01*
X163871685Y-104454819D02*
X163776447Y-104407200D01*
X163776447Y-104407200D02*
X163681209Y-104311961D01*
X163681209Y-104311961D02*
X163633590Y-104121485D01*
X163633590Y-104121485D02*
X163633590Y-103788152D01*
X163633590Y-103788152D02*
X163681209Y-103597676D01*
X163681209Y-103597676D02*
X163776447Y-103502438D01*
X163776447Y-103502438D02*
X163871685Y-103454819D01*
X165966923Y-104454819D02*
X165490733Y-104454819D01*
X165490733Y-104454819D02*
X165490733Y-103454819D01*
X166300257Y-103931009D02*
X166633590Y-103931009D01*
X166776447Y-104454819D02*
X166300257Y-104454819D01*
X166300257Y-104454819D02*
X166300257Y-103454819D01*
X166300257Y-103454819D02*
X166776447Y-103454819D01*
X167205019Y-104454819D02*
X167205019Y-103454819D01*
X167205019Y-103454819D02*
X167443114Y-103454819D01*
X167443114Y-103454819D02*
X167585971Y-103502438D01*
X167585971Y-103502438D02*
X167681209Y-103597676D01*
X167681209Y-103597676D02*
X167728828Y-103692914D01*
X167728828Y-103692914D02*
X167776447Y-103883390D01*
X167776447Y-103883390D02*
X167776447Y-104026247D01*
X167776447Y-104026247D02*
X167728828Y-104216723D01*
X167728828Y-104216723D02*
X167681209Y-104311961D01*
X167681209Y-104311961D02*
X167585971Y-104407200D01*
X167585971Y-104407200D02*
X167443114Y-104454819D01*
X167443114Y-104454819D02*
X167205019Y-104454819D01*
X157895018Y-90084819D02*
X157561685Y-89608628D01*
X157323590Y-90084819D02*
X157323590Y-89084819D01*
X157323590Y-89084819D02*
X157704542Y-89084819D01*
X157704542Y-89084819D02*
X157799780Y-89132438D01*
X157799780Y-89132438D02*
X157847399Y-89180057D01*
X157847399Y-89180057D02*
X157895018Y-89275295D01*
X157895018Y-89275295D02*
X157895018Y-89418152D01*
X157895018Y-89418152D02*
X157847399Y-89513390D01*
X157847399Y-89513390D02*
X157799780Y-89561009D01*
X157799780Y-89561009D02*
X157704542Y-89608628D01*
X157704542Y-89608628D02*
X157323590Y-89608628D01*
X158752161Y-89418152D02*
X158752161Y-90084819D01*
X158514066Y-89037200D02*
X158275971Y-89751485D01*
X158275971Y-89751485D02*
X158895018Y-89751485D01*
X157299780Y-93824819D02*
X157109304Y-93824819D01*
X157109304Y-93824819D02*
X157014066Y-93872438D01*
X157014066Y-93872438D02*
X156966447Y-93920057D01*
X156966447Y-93920057D02*
X156871209Y-94062914D01*
X156871209Y-94062914D02*
X156823590Y-94253390D01*
X156823590Y-94253390D02*
X156823590Y-94634342D01*
X156823590Y-94634342D02*
X156871209Y-94729580D01*
X156871209Y-94729580D02*
X156918828Y-94777200D01*
X156918828Y-94777200D02*
X157014066Y-94824819D01*
X157014066Y-94824819D02*
X157204542Y-94824819D01*
X157204542Y-94824819D02*
X157299780Y-94777200D01*
X157299780Y-94777200D02*
X157347399Y-94729580D01*
X157347399Y-94729580D02*
X157395018Y-94634342D01*
X157395018Y-94634342D02*
X157395018Y-94396247D01*
X157395018Y-94396247D02*
X157347399Y-94301009D01*
X157347399Y-94301009D02*
X157299780Y-94253390D01*
X157299780Y-94253390D02*
X157204542Y-94205771D01*
X157204542Y-94205771D02*
X157014066Y-94205771D01*
X157014066Y-94205771D02*
X156918828Y-94253390D01*
X156918828Y-94253390D02*
X156871209Y-94301009D01*
X156871209Y-94301009D02*
X156823590Y-94396247D01*
X157966447Y-94253390D02*
X157871209Y-94205771D01*
X157871209Y-94205771D02*
X157823590Y-94158152D01*
X157823590Y-94158152D02*
X157775971Y-94062914D01*
X157775971Y-94062914D02*
X157775971Y-94015295D01*
X157775971Y-94015295D02*
X157823590Y-93920057D01*
X157823590Y-93920057D02*
X157871209Y-93872438D01*
X157871209Y-93872438D02*
X157966447Y-93824819D01*
X157966447Y-93824819D02*
X158156923Y-93824819D01*
X158156923Y-93824819D02*
X158252161Y-93872438D01*
X158252161Y-93872438D02*
X158299780Y-93920057D01*
X158299780Y-93920057D02*
X158347399Y-94015295D01*
X158347399Y-94015295D02*
X158347399Y-94062914D01*
X158347399Y-94062914D02*
X158299780Y-94158152D01*
X158299780Y-94158152D02*
X158252161Y-94205771D01*
X158252161Y-94205771D02*
X158156923Y-94253390D01*
X158156923Y-94253390D02*
X157966447Y-94253390D01*
X157966447Y-94253390D02*
X157871209Y-94301009D01*
X157871209Y-94301009D02*
X157823590Y-94348628D01*
X157823590Y-94348628D02*
X157775971Y-94443866D01*
X157775971Y-94443866D02*
X157775971Y-94634342D01*
X157775971Y-94634342D02*
X157823590Y-94729580D01*
X157823590Y-94729580D02*
X157871209Y-94777200D01*
X157871209Y-94777200D02*
X157966447Y-94824819D01*
X157966447Y-94824819D02*
X158156923Y-94824819D01*
X158156923Y-94824819D02*
X158252161Y-94777200D01*
X158252161Y-94777200D02*
X158299780Y-94729580D01*
X158299780Y-94729580D02*
X158347399Y-94634342D01*
X158347399Y-94634342D02*
X158347399Y-94443866D01*
X158347399Y-94443866D02*
X158299780Y-94348628D01*
X158299780Y-94348628D02*
X158252161Y-94301009D01*
X158252161Y-94301009D02*
X158156923Y-94253390D01*
X158966447Y-93824819D02*
X159061685Y-93824819D01*
X159061685Y-93824819D02*
X159156923Y-93872438D01*
X159156923Y-93872438D02*
X159204542Y-93920057D01*
X159204542Y-93920057D02*
X159252161Y-94015295D01*
X159252161Y-94015295D02*
X159299780Y-94205771D01*
X159299780Y-94205771D02*
X159299780Y-94443866D01*
X159299780Y-94443866D02*
X159252161Y-94634342D01*
X159252161Y-94634342D02*
X159204542Y-94729580D01*
X159204542Y-94729580D02*
X159156923Y-94777200D01*
X159156923Y-94777200D02*
X159061685Y-94824819D01*
X159061685Y-94824819D02*
X158966447Y-94824819D01*
X158966447Y-94824819D02*
X158871209Y-94777200D01*
X158871209Y-94777200D02*
X158823590Y-94729580D01*
X158823590Y-94729580D02*
X158775971Y-94634342D01*
X158775971Y-94634342D02*
X158728352Y-94443866D01*
X158728352Y-94443866D02*
X158728352Y-94205771D01*
X158728352Y-94205771D02*
X158775971Y-94015295D01*
X158775971Y-94015295D02*
X158823590Y-93920057D01*
X158823590Y-93920057D02*
X158871209Y-93872438D01*
X158871209Y-93872438D02*
X158966447Y-93824819D01*
%TO.C,R1*%
D13*
X121061685Y-92250000D02*
X121831685Y-92250000D01*
X129141685Y-92250000D02*
X128371685Y-92250000D01*
X121831685Y-90880000D02*
X128371685Y-90880000D01*
X128371685Y-93620000D01*
X121831685Y-93620000D01*
X121831685Y-90880000D01*
%TO.C,J3*%
X143971685Y-66780000D02*
X166651685Y-66780000D01*
X143971685Y-76820000D02*
X143971685Y-66780000D01*
X167251685Y-66780000D02*
X169611685Y-66780000D01*
X169611685Y-66780000D02*
X169611685Y-76820000D01*
X169611685Y-67400000D02*
X143971685Y-67400000D01*
X169611685Y-68900000D02*
X143971685Y-68900000D01*
X169611685Y-73800000D02*
X143971685Y-73800000D01*
X169611685Y-76820000D02*
X143971685Y-76820000D01*
X166951685Y-66780000D02*
X166511685Y-66170000D01*
X167391685Y-66170000D01*
X166951685Y-66780000D01*
G36*
X166951685Y-66780000D02*
G01*
X166511685Y-66170000D01*
X167391685Y-66170000D01*
X166951685Y-66780000D01*
G37*
%TO.C,R3*%
X147641685Y-91540000D02*
X147641685Y-92310000D01*
X147641685Y-99620000D02*
X147641685Y-98850000D01*
X146271685Y-92310000D02*
X149011685Y-92310000D01*
X149011685Y-98850000D01*
X146271685Y-98850000D01*
X146271685Y-92310000D01*
%TO.C,U1*%
X136491685Y-97400000D02*
X136491685Y-102600000D01*
X136491685Y-102600000D02*
X141791685Y-102600000D01*
X138141685Y-97400000D02*
X136491685Y-97400000D01*
X141791685Y-97400000D02*
X140141685Y-97400000D01*
X141791685Y-102600000D02*
X141791685Y-97400000D01*
X140141685Y-97400000D02*
G75*
G02*
X138141685Y-97400000I-1000000J0D01*
G01*
%TO.C,R6*%
X147571685Y-110020001D02*
X148341685Y-110020001D01*
X155651685Y-110020001D02*
X154881685Y-110020001D01*
X148341685Y-108650001D02*
X154881685Y-108650001D01*
X154881685Y-111390001D01*
X148341685Y-111390001D01*
X148341685Y-108650001D01*
%TO.C,J1*%
X121913370Y-72270000D02*
X121913370Y-87570000D01*
X121913370Y-72270000D02*
X124573370Y-72270000D01*
X121913370Y-87570000D02*
X124573370Y-87570000D01*
X123243370Y-69670000D02*
X124573370Y-69670000D01*
X124573370Y-69670000D02*
X124573370Y-71000000D01*
X124573370Y-72270000D02*
X124573370Y-87570000D01*
%TO.C,R8*%
X122571685Y-110020001D02*
X123341685Y-110020001D01*
X130651685Y-110020001D02*
X129881685Y-110020001D01*
X123341685Y-108650001D02*
X129881685Y-108650001D01*
X129881685Y-111390001D01*
X123341685Y-111390001D01*
X123341685Y-108650001D01*
%TO.C,Q1*%
X123301685Y-101960000D02*
X126901685Y-101960000D01*
X123263207Y-101948478D02*
G75*
G02*
X125101685Y-97509999I1838478J1838478D01*
G01*
X125101685Y-97510000D02*
G75*
G02*
X126940163Y-101948478I0J-2600000D01*
G01*
%TO.C,R7*%
X147411685Y-116500000D02*
X148181685Y-116500000D01*
X155491685Y-116500000D02*
X154721685Y-116500000D01*
X148181685Y-115130000D02*
X154721685Y-115130000D01*
X154721685Y-117870000D01*
X148181685Y-117870000D01*
X148181685Y-115130000D01*
%TO.C,U3*%
X135956685Y-108880001D02*
X135956685Y-119160001D01*
X135956685Y-119160001D02*
X137606685Y-119160001D01*
X139606685Y-119160001D02*
X141256685Y-119160001D01*
X141256685Y-108880001D02*
X135956685Y-108880001D01*
X141256685Y-119160001D02*
X141256685Y-108880001D01*
X137606685Y-119160001D02*
G75*
G02*
X139606685Y-119160001I1000000J0D01*
G01*
%TO.C,R2*%
X135101685Y-92000000D02*
X135871685Y-92000000D01*
X143181685Y-92000000D02*
X142411685Y-92000000D01*
X135871685Y-90630000D02*
X142411685Y-90630000D01*
X142411685Y-93370000D01*
X135871685Y-93370000D01*
X135871685Y-90630000D01*
%TO.C,R5*%
X166371685Y-91380000D02*
X166371685Y-92150000D01*
X166371685Y-99460000D02*
X166371685Y-98690000D01*
X165001685Y-92150000D02*
X167741685Y-92150000D01*
X167741685Y-98690000D01*
X165001685Y-98690000D01*
X165001685Y-92150000D01*
%TO.C,R9*%
X122571685Y-116520001D02*
X123341685Y-116520001D01*
X130651685Y-116520001D02*
X129881685Y-116520001D01*
X123341685Y-115150001D02*
X129881685Y-115150001D01*
X129881685Y-117890001D01*
X123341685Y-117890001D01*
X123341685Y-115150001D01*
%TO.C,J2*%
X137153370Y-72230000D02*
X137153370Y-87530000D01*
X137153370Y-72230000D02*
X139813370Y-72230000D01*
X137153370Y-87530000D02*
X139813370Y-87530000D01*
X138483370Y-69630000D02*
X139813370Y-69630000D01*
X139813370Y-69630000D02*
X139813370Y-70960000D01*
X139813370Y-72230000D02*
X139813370Y-87530000D01*
%TO.C,U2*%
X155221685Y-97395000D02*
X155221685Y-102595000D01*
X155221685Y-102595000D02*
X160521685Y-102595000D01*
X156871685Y-97395000D02*
X155221685Y-97395000D01*
X160521685Y-97395000D02*
X158871685Y-97395000D01*
X160521685Y-102595000D02*
X160521685Y-97395000D01*
X158871685Y-97395000D02*
G75*
G02*
X156871685Y-97395000I-1000000J0D01*
G01*
%TO.C,R4*%
X154021685Y-92000000D02*
X154791685Y-92000000D01*
X162101685Y-92000000D02*
X161331685Y-92000000D01*
X154791685Y-90630000D02*
X161331685Y-90630000D01*
X161331685Y-93370000D01*
X154791685Y-93370000D01*
X154791685Y-90630000D01*
%TD*%
M02*
